<?xml version="1.0" encoding="utf-8"?>
<svg version="1.1" id="Warstwa_1" xmlns="http://www.w3.org/2000/svg" xmlns:xlink="http://www.w3.org/1999/xlink" x="0px" y="0px"
	 viewBox="0 0 319.5 276.4" style="enable-background:new 0 0 319.5 276.4;" xml:space="preserve">
<style type="text/css">
	.st0{fill:#637C89;}
	.st1{fill:#B9A385;}
	.st2{fill:#FDA080;}
	.st3{fill:#F4907C;}
	.st4{opacity:0.4;fill:#808080;enable-background:new    ;}
	.st5{opacity:0.4;}
	.st6{fill:#1D1D1B;}
	.st7{fill:#E5E5E5;}
	.st8{fill:#666666;}
	.st9{fill:#CBCBCB;}
	.st10{fill:#FFFFFF;}
	.st11{fill:#808080;}
	.st12{fill:#61C1C5;}
	.st13{fill:#EAC9B8;}
	.st14{fill:#C4CCD7;}
	.st15{fill:#FAD1B1;}
	.st16{fill:#86A5B0;}
	.st17{fill:#F8FBFC;}
	.st18{fill:#D4D2D1;}
	.st19{opacity:0.4;fill:#1D1D1B;enable-background:new    ;}
	.st20{fill:#FDF5EA;}
	.st21{fill:#80C1D8;}
	.st22{fill:#F39475;}
	.st23{fill:#E74A5F;}
	.st24{fill:#C9364F;}
	.st25{fill:#393F4B;}
	.st26{fill:#63ADC1;}
	.st27{fill:#6F251E;}
	.st28{fill:#E28166;}
	.st29{fill:#F16A44;}
	.st30{fill:#93603D;}
	.st31{fill:#A4704C;}
	.st32{opacity:0.5;}
	.st33{fill:#F9E1DF;}
	.st34{fill:#195852;}
	.st35{fill:#DADADA;}
	.st36{fill:#0F3858;}
	.st37{fill:#F1F1F1;}
	.st38{fill:#9A9A9A;}
	.st39{fill:#94DADD;}
	.st40{fill:#111224;}
	.st41{fill:none;stroke:#0F3858;stroke-miterlimit:10;}
	.st42{fill:#545766;}
	.st43{opacity:0.3;fill:#0A1925;enable-background:new    ;}
	.st44{fill:#5F8897;}
	.st45{fill:#BCDD31;}
	.st46{fill:#69AE17;}
	.st47{fill:#11114E;}
</style>
<g id="Warstwa_1_1_">
	<g id="Warstwa_2_1_">
		<g id="OBJECTS">
			<path class="st0" d="M310.6,123.4L265.8,21.5C260,8.1,244.4,2.1,231,7.9L107.5,61.5v0.3L40.1,91.1c-13.4,5.9-19.4,21.4-13.6,34.8
				l44.7,101.9c5.9,13.4,21.4,19.4,34.8,13.6l1.5-0.7v0.1L297,158.2C310.4,152.3,316.4,136.7,310.6,123.4z"/>
			<path class="st1" d="M180.1,276.4c-2.5,0.1-4.6-1.9-4.7-4.4c-0.1-2.5,1.9-4.6,4.4-4.7c4.4-0.5,8.7-1.6,12.8-3.4
				c9.6-3.9,17.9-10.4,24-18.8c1.5-2,4.4-2.5,6.4-1s2.5,4.4,1,6.4l0,0c-17.6,24.1-42.5,25.9-43.6,26L180.1,276.4z"/>
			<path class="st1" d="M2.5,193.9c-0.1-2.5,1.9-4.6,4.4-4.7s4.6,1.9,4.7,4.4c0.5,4.4,1.6,8.7,3.4,12.8c3.9,9.6,10.4,17.9,18.8,24
				c2.1,1.5,2.6,4.3,1.1,6.4c-1.5,2.1-4.3,2.6-6.4,1.1l-0.1-0.1c-24-17.7-25.9-42.6-25.9-43.6C2.5,194.1,2.5,194,2.5,193.9z"/>
			<path class="st1" d="M138.8,13.4c1.9,1.7,2,4.6,0.3,6.5c-1.6,1.8-4.3,2-6.2,0.5c-3.6-2.6-7.6-4.6-11.8-6
				c-9.7-3.5-20.3-4.2-30.4-2c-2.5,0.5-4.9-1.1-5.4-3.6s1.1-4.9,3.6-5.4c29.2-6.1,48.9,9.2,49.7,9.9L138.8,13.4z"/>
			<polygon class="st2" points="25.9,190.1 49.4,177.8 60.4,203 36,211.6 			"/>
			<path class="st3" d="M34.3,188.9c0,0,8.3-1.7,11.8,0s6.5,12.2,6.5,12.2l7.3,0.5l-11.5-26.1L38,180.4L34.3,188.9z"/>
			<circle class="st4" cx="54.4" cy="121.2" r="8.9"/>
			<g class="st5">
				<path class="st6" d="M115.8,177.8l-8.5,8.7l-35.6,30.9l-5.6-1.3l5.2,11.8c0.5,1.1,1,2.1,1.6,3.1c4.2-1.1,9.5-2.8,11.8-4.6
					c4.1-3.2,22.8-29.5,22.8-29.5s5.5-3.4,6.3-5.3s2.1-10,2.7-11.3C116.7,179.4,116.4,178.4,115.8,177.8z"/>
				<path class="st6" d="M83.5,173c1.9-0.2,3.3-2.9,3.3-2.9l3-1.3l0.4-2.9l-4.9-2.1l-27.8-8L40.2,152l-0.9,3l5.1,11.5l29,5.7
					C73.3,172.2,81.6,173.2,83.5,173z"/>
			</g>
			<path class="st4" d="M169,151.1l1.9,18l10.3,16.6l15.6,15.9l-64.6,28.3l-3.8-31.1l-3.7-16.6l-10.3-17.6l53.6-23.3
				c0.2,0.4,0.4,0.7,0.4,1.2C168.4,142.9,169,151.1,169,151.1z"/>
			<path class="st7" d="M122.3,172l45.9-19.8c0.9-0.4,2,0,2.4,0.9l13.1,30.3c0.4,0.9,0,2-0.9,2.4l-45.9,19.8c-0.9,0.4-2,0-2.4-0.9
				l-13.1-30.3C120.9,173.5,121.3,172.4,122.3,172z"/>
			<path class="st8" d="M127.6,171.2l36.4-15.7c0.8-0.3,1.6,0,1.9,0.8l7.9,18.2c0.3,0.8,0,1.6-0.8,1.9l-36.4,15.7
				c-0.8,0.3-1.6,0-1.9-0.8l-7.9-18.2C126.5,172.4,126.8,171.6,127.6,171.2z"/>
			<path class="st9" d="M152.3,187.1l6.2-2.7c0.8-0.3,1.7,0,2,0.8l2.2,5.1c0.3,0.8,0,1.7-0.8,2l-6.2,2.7c-0.8,0.3-1.7,0-2-0.8
				l-2.2-5.1C151.2,188.3,151.6,187.4,152.3,187.1z"/>
			<path class="st10" d="M166.5,140.9L140.8,152l-25.7,11.1c-0.7,0.3-1,1.1-0.7,1.8c0.1,0.1,0.1,0.3,0.3,0.4l6.2,6.6
				c0.3,0.3,0.7,0.4,1.1,0.2l23.1-10l23.1-10c0.4-0.2,0.6-0.6,0.6-1l-0.6-9.1c-0.1-0.7-0.7-1.3-1.4-1.2
				C166.8,140.8,166.6,140.8,166.5,140.9z"/>
			<path class="st11" d="M169,151.1l-0.6-9c-0.4-0.4-1-0.4-1.5-0.2L141.3,153l-25.7,11.1c-0.5,0.2-0.8,0.7-0.8,1.2l6.2,6.6
				c0.3,0.3,0.7,0.4,1.1,0.2l23.1-10l23.1-10C168.8,152,169,151.6,169,151.1z"/>
			<path class="st12" d="M166.7,151.7l-0.2-7.5c-0.4-0.3-0.9-0.3-1.3-0.1l-23.4,10.1l-23.4,10.1c-0.4,0.2-0.7,0.5-0.8,1l5.4,5.3
				c0.3,0.2,0.7,0.3,1,0.1l21-9.1l21.1-9.1C166.4,152.4,166.7,152.1,166.7,151.7z"/>
			<path class="st13" d="M143.9,206.5l-2.1-10c0,0,2-6.4,1.8-7.6s-2.3-8.8-2.3-8.8s-1.4-0.1-1.8,0.6s0,4.5,0,4.5
				c-0.5-0.6-1-1.2-1.4-1.9c-0.2-0.5-0.7-5.7-1-8.2c-0.1-0.8-0.7-1.3-1.5-1.3l0,0c-0.7,0-1.4,0.5-1.4,1.3L134,178l-2.5,0.5l-1.2,2.7
				l-2.6,5.6l1.6,6.3l3.7,4.8l0.8,8.6L143.9,206.5z"/>
			<path class="st13" d="M178.9,191.6L172,184c0,0-6.3-2.1-7.2-3s-5.8-7-5.8-7s0.7-1.3,1.5-1.1s3.6,2.6,3.6,2.6
				c-0.2-0.8-0.4-1.5-0.7-2.2c-0.3-0.5-4.2-4-6.1-5.6c-0.6-0.5-0.7-1.3-0.2-1.9l0,0c0.4-0.6,1.2-0.8,1.9-0.4l2.6,1.4l1.8-1.7
				l2.9,0.6l6,1.1l4.1,5l1.8,5.8l6.5,5.7L178.9,191.6z"/>
			
				<rect x="66.6" y="159.2" transform="matrix(0.942 -0.3355 0.3355 0.942 -53.6517 40.0413)" class="st10" width="44.9" height="32.2"/>
			
				<rect x="66.3" y="159.5" transform="matrix(0.942 -0.3355 0.3355 0.942 -53.3959 39.6891)" class="st14" width="43.7" height="29.8"/>
			
				<rect x="64.4" y="157" transform="matrix(0.942 -0.3355 0.3355 0.942 -53.0366 39.1795)" class="st10" width="44.9" height="32.2"/>
			<path class="st15" d="M101.2,198.7l3.7-4.4c0,0,6-1.6,7.4-3.2s1-4.1,1.3-4.8s-0.2-5.1,0.1-5.5c1.1-1.2,2.6-2.3,3.6-3.3
				c1.6-1.8,0.5-2.6-0.3-2.2c-1.3,0.5-9.8,6.3-9.8,6.3c0.3-0.8,0.6-1.6,0.9-2.4c0.1-0.5-0.4-1.4-0.7-1.5s-3.7,4-4.7,5.1
				c-1,1.2-1.7,2.7-2.2,4.1c-0.2,0.5-0.6,2.4-0.6,2.4l-4.1,4.8L101.2,198.7z"/>
			<path class="st16" d="M98.8,101.5l33.5-11.1c2-0.7,4.2,0.4,4.8,2.4l6.7,20.1c0.7,2-0.4,4.2-2.4,4.8l-33.5,11.1
				c-2,0.7-4.2-0.4-4.8-2.4l-6.7-20.1C95.7,104.3,96.8,102.1,98.8,101.5z"/>
			<path class="st17" d="M141.6,118.5l-33.5,11.1c-2.5,0.8-5.2-0.5-6-3l-6.7-20.1c-0.8-2.5,0.5-5.2,3-6l33.5-11.1
				c2.5-0.8,5.2,0.5,6,3l0,0l6.7,20.1C145.5,115,144.1,117.7,141.6,118.5z M100.6,101.9c-1.5,0.5-2.3,2.1-1.8,3.6l6.7,20.1
				c0.5,1.5,2.1,2.3,3.6,1.8l32-10.7c1.5-0.5,2.3-2.1,1.8-3.6l0,0L136.1,93c-0.5-1.5-2.1-2.3-3.6-1.8l0,0L100.6,101.9z"/>
			<path class="st18" d="M101.8,115.6c0.2,0.6-0.1,1.3-0.7,1.5s-1.3-0.1-1.5-0.7s0.1-1.3,0.7-1.5l0,0
				C100.9,114.6,101.6,115,101.8,115.6z"/>
			<polygon class="st19" points="71,77.5 102.6,122.9 116.8,119.3 112.8,109.7 104.6,107.4 94.9,90 144.5,72 145.2,64.1 138.7,47.8 
							"/>
			<path class="st20" d="M115.1,114.2l-6.5-3c-0.3-0.1-0.7-0.1-0.9,0.2l-0.1,0.1c-0.3,0.3-0.2,0.8,0.1,1.1c0,0,0.1,0.1,0.2,0.1
				l6.6,2.9c0.4,0.2,0.8,0,1-0.4C115.6,114.8,115.4,114.4,115.1,114.2z"/>
			<path class="st13" d="M101,72c-1.2,0.5-2.5,0.8-3.7,1c-1.8,0.2-4.1-0.8-5.6-0.5s-5.3,2.9-5.3,2.9L84.8,79L84,84.8l6.6,2.7
				c0,0,1.7,0.8,4.4-0.7c2.7-1.7,5.3-3.6,7.7-5.7l3.3-1.7L101,72z"/>
			<path class="st13" d="M105.6,105l4.5,1.6c0,0,2.3,2.5,2.8,3.2s0,2.8,0,2.8s1.6,1.6,1.5,3s-2.4,3.4-5.3,3.5s-6,0.4-6.7,0s-4-7-4-7
				l-4.7-6.4l9.1-4.4L105.6,105z"/>
			<path class="st21" d="M23.9,222.7c-0.1,0.4,16.5,12.7,23,10.4s31.5-8.4,34.9-10.9s22.2-24.8,22.2-24.8l-6-7.3L78.2,208l-13.7,4.2
				L58,197.5C58.1,197.8,30.4,206.1,23.9,222.7z"/>
			<path class="st22" d="M130.9,203.3l14.8-2l5.6,20.2l37.8-16.6L176,192l9-11l29.1,23.9c0,0,8.5,25.1,8.3,27.9s-10.3,23.9-25.6,31
				s-36-2.1-38.8-2.7s-19.1-21.4-19.4-22.1S130.9,203.3,130.9,203.3z"/>
			<path class="st23" d="M146.1,62.2c-1.9-10-2.7-32.5-4.6-35.7c-2.4-4.2-8.1-10-17.1-13.5c0,0-38.2-3.3-47,2.1S65.4,67.8,65.5,70
				S95,109.5,95,109.5l9.3-7.3l-18.9-31l42-18.4l0.7,5.2L98.8,71.5l5.8,10.4l37.5-13C145,68,146.6,65.1,146.1,62.2z"/>
			<polygon class="st24" points="99.5,106 95.9,106.8 65.8,70.5 95,109.5 			"/>
			<path class="st24" d="M146.1,64.1c-1.2,1.6-2.7,2.8-4.5,3.6c-2.8,1-35.2,11-35.2,11l-3.8-0.5l2.1,3.7l37.5-13
				C144.3,68.2,145.8,66.3,146.1,64.1z"/>
			<path class="st24" d="M85.4,71.2l6-44.4c0,0,17.3-1.8,22.1,0s12.1,5,12.1,5l1.8,21L85.4,71.2z"/>
			<path class="st24" d="M80.3,18.3c0,0,9.1,11.2,9.3,22.2s3.8,6.4,3.8,6.4l-1.9-20.1C91.4,26.8,86.8,20.3,80.3,18.3z"/>
			<path class="st24" d="M126,36.4c0,0-2-11.8,3.7-17.5c-4.6,2.3-8,6.5-9.4,11.4C118.2,38.6,126,36.4,126,36.4z"/>
			<path class="st13" d="M118,28.1c0.3-0.1-0.2,8-0.2,8l-2.7,4.2c0,0-6.2,4.5-7.4,5s-8,0.6-8,0.6s-2,1-3,0.5s-2-3.8-2-3.8
				s-3.8-2-3.6-9.8s10-11.2,10-11.2L118,28.1z"/>
			<path class="st13" d="M93.7,13.6c0,0-2.3-0.9-3.6,0.8s0.9,5,0.9,5L93.7,13.6z"/>
			<path class="st13" d="M124.4,28.5c0,0,1.7,0.5,1.7,1.9s-3.3,5-5.6,4.7S124.4,28.5,124.4,28.5z"/>
			<path class="st25" d="M90,30.4c0,0-1.3-14.1,3.3-20.8s9.6-7.8,9.6-7.8c3.3-1.9,7.2-2.3,10.8-1c6.2,2.4,11,7.3,13.2,13.6
				c1.9,5.9-0.8,14.4-4.1,18.6c-2.3,2.8-4.9,5.3-7.8,7.4c0,0,1.9-5.5-0.3-5.8c0,0-8.7,6.6-14.6,6.3s-6.9-1.5-6.9-1.5
				s7.1-1.7,10.1-4.2c0,0-8.3,2.5-12.1,2.4l2.8-3.5L92.1,35C90.9,33.7,90.1,32.1,90,30.4z"/>
			<path class="st26" d="M58.1,197.8c0,0-1.7,0.5-4.4,1.5c1.2,2.7,2.9,7.2,2.5,9.9c-0.6,4-5.8,7-5.8,7l14.2-3.7L58.1,197.8z"/>
			<path class="st15" d="M169.3,238.5c0,0-2.5-6.9,0-10.9c3-4.7,11.3-7.8,16.5-5.8c7.6,2.9,7.1,5.4,7.1,5.4L169.3,238.5z"/>
			<path class="st27" d="M196.7,227.9c0,0-5.5-6-13.8-4.6s-10.1,3-10.1,3l2.1-0.1l-3.8,2.9c0,0-4.5,7.4-4.4,12.6
				c0,3.1,0.9,6,2.6,8.6c0,0,1,5.1,3.4,7.3c2.4,2.2,8.3,4.5,12.7,4.1c2.9-0.4,5.7-1.3,8.3-2.8c2.6-0.3,4.9-1.6,6.6-3.6
				c1.7-2,2.6-4.4,2.6-7c0,0,2.7-3.3,2.8-5.3s-1.4-6.9-1.4-6.9S202.5,228.2,196.7,227.9z"/>
			<path class="st28" d="M151.3,221.5l2.3,9.4l6.3,7.5c0,0,1.7-10.5,9.9-17.3s22.5-5.1,24.6-5s10.1,9.5,10.1,9.5l-4.4-11.6l-11-9
				L151.3,221.5z"/>
			<path class="st28" d="M219.8,239c0,0-15.5,19.9-29.8,23.8c-12.5,3.5-27.7-0.5-31.3-1.5c4.7,1.6,23.7,9.2,38,2.5
				C207.6,258.7,215.9,246.5,219.8,239z"/>
			<path class="st20" d="M111.5,112.5l-7.3-3.3c-0.4-0.1-0.8,0-1,0.3l-0.1,0.1c-0.3,0.4-0.2,0.9,0.2,1.2c0.1,0,0.1,0.1,0.2,0.1
				l7.3,3.3c0.4,0.2,0.9,0,1.1-0.4S112,112.7,111.5,112.5L111.5,112.5L111.5,112.5z"/>
			<path class="st29" d="M44.1,125c0.4,0.6,1.2,0.8,1.8,0.4l0,0l4.7-2.9l-1.4-2.3l-4.6,2.9C43.9,123.5,43.7,124.4,44.1,125z"/>
			<circle class="st29" cx="54.9" cy="118.3" r="8.3"/>
			<path class="st17" d="M47.3,116.9c0.1-0.8,0.3-1.5,0.7-2.3c0.3-0.7,0.8-1.4,1.3-2c1.1-1.2,2.6-1.9,4.2-2.3l0.6-0.1
				c0.2,0,0.4,0,0.6,0c0.1,0,0.2,0,0.3,0h0.3c0.2,0,0.4,0,0.6,0.1c1.6,0.2,3.1,0.9,4.3,2c0.6,0.5,1.1,1.2,1.4,1.9
				c-0.9-1.3-2.1-2.3-3.5-2.9s-3-0.8-4.5-0.5s-2.9,1-4,2.1C48.4,114,47.7,115.4,47.3,116.9z"/>
			<circle class="st30" cx="54.9" cy="118.3" r="6.7"/>
			<path class="st31" d="M48.5,120.1c1.1,3.5,4.8,5.5,8.3,4.4c2.5-0.8,4.3-2.9,4.7-5.4c-1.1-3.5-4.8-5.5-8.3-4.4
				C50.7,115.5,48.9,117.6,48.5,120.1z"/>
			<g class="st32">
				<path class="st17" d="M59.6,115.3C59.6,115.2,59.5,115.2,59.6,115.3c-0.2-0.1-0.2,0-0.2,0s0,0,0,0.1c1.6,2.5,0.8,5.8-1.7,7.3
					c-0.8,0.5-1.8,0.8-2.8,0.8c-0.3,0-0.6,0-0.8-0.1c-0.1,0-0.1,0-0.1,0.1s0,0.1,0.1,0.1c0,0,0,0,0.1,0c0.3,0,0.6,0.1,0.9,0.1
					c3,0,5.5-2.5,5.5-5.5C60.5,117.2,60.2,116.2,59.6,115.3L59.6,115.3z"/>
				<path class="st17" d="M51.8,114L51.8,114L51.8,114L51.8,114L51.8,114c-2.6,1.7-3.1,5.1-1.3,7.6c0.1,0.2,0.2,0.3,0.4,0.5
					c0,0,0,0,0.1,0l0,0c0,0,0-0.1,0-0.2c-2-2.2-1.8-5.5,0.4-7.5C51.5,114.2,51.7,114.1,51.8,114L51.8,114z"/>
				<path class="st17" d="M54.9,114.8c0.2,0,0.3,0,0.5,0c0.1,0,0.1-0.1,0.1-0.1s0-0.1-0.1-0.1c-0.2,0-0.4,0-0.5,0
					c-2,0-3.6,1.6-3.6,3.6c0,0.2,0,0.3,0,0.5c0,0.1,0.1,0.1,0.1,0.1l0,0c0.1,0,0.1-0.1,0.1-0.1c0-0.2,0-0.3,0-0.5
					C51.5,116.4,53,114.8,54.9,114.8L54.9,114.8z"/>
				<path class="st17" d="M57.6,120.7c0.1,0,0.1-0.1,0-0.2s-0.1-0.1-0.2,0l0,0c-0.7,0.7-1.6,1.1-2.5,1.1c-1,0-1.9-0.4-2.5-1.1
					c0,0-0.1,0-0.2,0v0.1c0.7,0.7,1.7,1.2,2.7,1.2C55.9,121.9,56.9,121.5,57.6,120.7z"/>
				<path class="st17" d="M56.5,115.2c1.2,0.6,1.9,1.8,1.9,3.1c0,0.1,0,0.2,0,0.3c0,0.1,0,0.1,0.1,0.1l0,0l0,0c0.1,0,0.1,0,0.1-0.1
					s0-0.2,0-0.3c0-1.4-0.8-2.6-2-3.3h-0.1c-0.1,0-0.1,0.1-0.1,0.1C56.4,115.2,56.4,115.2,56.5,115.2z"/>
				<path class="st17" d="M54.9,121.1c1,0,1.9-0.5,2.4-1.4v-0.1h-0.1c-0.5,0.8-1.3,1.3-2.2,1.3C55,120.9,54.9,120.9,54.9,121.1
					L54.9,121.1C54.8,121,54.9,121,54.9,121.1L54.9,121.1z"/>
				<path class="st17" d="M56.8,116.4c0,0.1,0.1,0.1,0.2,0c0.1,0,0.1-0.1,0-0.2l0,0c-1.1-1.1-2.9-1.1-4,0c-0.2,0.2-0.3,0.4-0.4,0.6
					v0.1h0.1c0,0,0.1,0,0.1-0.1c0.7-1.2,2.3-1.7,3.6-0.9C56.4,116.1,56.6,116.2,56.8,116.4L56.8,116.4z"/>
			</g>
			<path class="st33" d="M148.1,204.8l-1-3.7c-0.3-0.9-1.2-1.6-2.2-1.4l-13,1.7c-1.1,0.1-1.9,1.2-1.7,2.3c0,0.1,0,0.1,0,0.2l1,4.1
				c0.3,1,1.2,1.6,2.2,1.5l13.1-1.9c1.1-0.2,1.8-1.2,1.6-2.3C148.1,204.9,148.1,204.9,148.1,204.8z"/>
			<path class="st33" d="M171.6,189.9l3,2.4c0.8,0.6,1.9,0.6,2.6-0.1l9.6-8.9c0.8-0.8,0.8-2,0.1-2.8l-0.1-0.1l-3.1-2.7
				c-0.8-0.7-1.9-0.6-2.7,0.1l-9.4,9.3C170.8,187.9,170.8,189.2,171.6,189.9C171.6,189.9,171.6,189.9,171.6,189.9z"/>
			
				<rect x="83" y="161.2" transform="matrix(0.9435 -0.3315 0.3315 0.9435 -48.7035 37.0808)" class="st34" width="2.7" height="0.2"/>
			<path class="st34" d="M84.3,161.3l-0.3-0.8c-0.1-0.4,0.1-0.7,0.4-0.9l0.8-0.3v0.1l-0.7,0.3c-0.3,0.1-0.4,0.4-0.3,0.7L84.3,161.3
				L84.3,161.3z"/>
			
				<rect x="95" y="170.5" transform="matrix(0.9435 -0.3315 0.3315 0.9435 -52.796 42.1775)" class="st35" width="4.5" height="10.7"/>
			
				<rect x="89.3" y="172.6" transform="matrix(0.9435 -0.3315 0.3315 0.9435 -53.8606 40.7276)" class="st16" width="6.3" height="11.3"/>
			<polygon class="st35" points="85.8,169 84.2,164.2 92,161.5 96,165.4 			"/>
			<polygon class="st36" points="96.6,166.4 91.1,160.8 91.5,160.5 96.9,166 			"/>
			
				<rect x="99.2" y="169.8" transform="matrix(0.9435 -0.3315 0.3315 0.9435 -52.5839 42.8937)" class="st36" width="0.5" height="11.6"/>
			
				<rect x="86.4" y="166.6" transform="matrix(0.9435 -0.3315 0.3315 0.9435 -50.837 40.4324)" class="st37" width="13.4" height="5.3"/>
			
				<rect x="86.4" y="167.5" transform="matrix(0.9435 -0.3315 0.3315 0.9435 -50.9127 40.312)" class="st38" width="12.6" height="3.8"/>
			
				<rect x="91.9" y="166.5" transform="matrix(0.9436 -0.3312 0.3312 0.9436 -50.2674 40.87)" class="st12" width="5.8" height="2.8"/>
			<polygon class="st39" points="98.6,168.7 92.2,168 93.1,170.7 			"/>
			<polyline class="st36" points="93.6,172.1 93.2,172.2 91.3,166.8 91.7,166.6 			"/>
			
				<rect x="89.9" y="163.6" transform="matrix(0.9435 -0.3315 0.3315 0.9435 -49.5923 39.1685)" class="st36" width="0.2" height="2.7"/>
			
				<rect x="86.5" y="164.8" transform="matrix(0.9435 -0.3315 0.3315 0.9435 -50.182 38.108)" class="st36" width="0.2" height="2.7"/>
			
				<rect x="86.7" y="169.5" transform="matrix(0.9435 -0.3315 0.3315 0.9435 -51.9087 38.4984)" class="st16" width="0.4" height="3.8"/>
			
				<rect x="87.1" y="169.5" transform="matrix(0.9435 -0.3315 0.3315 0.9435 -51.8219 38.613)" class="st16" width="0.4" height="3.4"/>
			
				<rect x="87.4" y="169.8" transform="matrix(0.9435 -0.3315 0.3315 0.9435 -51.531 39.2065)" class="st40" width="3.5" height="1.7"/>
			<line class="st41" x1="94.6" y1="182.1" x2="91.8" y2="173.9"/>
			
				<rect x="89.3" y="174.1" transform="matrix(0.9435 -0.3315 0.3315 0.9435 -53.975 40.5062)" class="st42" width="4.9" height="8.7"/>
			<polygon class="st43" points="91.8,183 89,174.8 92.2,182.9 			"/>
			<polygon class="st43" points="92.8,182.7 89.9,174.5 93.1,182.6 			"/>
			<polygon class="st43" points="93.7,182.4 90.8,174.2 94,182.3 			"/>
			<polygon class="st43" points="94.6,182.1 91.7,173.9 95,181.9 			"/>
			<polygon class="st43" points="90.9,183.4 88,175.2 91.3,183.2 			"/>
			
				<rect x="87.1" y="169.6" transform="matrix(0.9435 -0.3315 0.3315 0.9435 -51.8633 38.5746)" class="st44" width="0.1" height="3.4"/>
			
				<rect x="86.7" y="169.5" transform="matrix(0.9435 -0.3315 0.3315 0.9435 -51.9211 38.4449)" class="st44" width="0.1" height="3.8"/>
			<polygon class="st40" points="87.2,170.4 91.1,170.8 87.8,172 			"/>
			<circle class="st39" cx="89.3" cy="171.3" r="0.1"/>
			<path class="st45" d="M82.1,160.4c0.4,3.9,1.3,7.7,2.8,11.3c2.5,6.3,3.7,7.6,6,14c0.3,0.9,1.2,0.6,0.8-0.3L83,160.6
				C82.6,159.8,82.1,160.4,82.1,160.4z"/>
			<path class="st46" d="M85.2,161L85.2,161c-0.1-0.4,0.1-0.9,0.5-1.1l3.5-1.2c0.4-0.2,0.9,0.1,1.1,0.5l0,0l0,0
				c0.2,0.4-0.1,0.9-0.5,1.1l0,0l-3.5,1.3C85.8,161.7,85.3,161.4,85.2,161z"/>
			<path class="st46" d="M84.9,159.6L84.9,159.6c-0.1-0.2,0-0.5,0.3-0.6l1.2-0.4c0.2-0.1,0.5,0,0.6,0.3l0,0c0.1,0.2,0,0.5-0.3,0.6
				l-1.2,0.4C85.3,159.9,85,159.8,84.9,159.6z"/>
			
				<rect x="90.1" y="163.2" transform="matrix(0.9435 -0.3315 0.3315 0.9435 -49.3515 39.5614)" class="st12" width="2.4" height="2.5"/>
			<polygon class="st39" points="90.5,166 89.7,163.7 92.8,165.2 			"/>
			
				<rect x="95.2" y="172.4" transform="matrix(0.9435 -0.3315 0.3315 0.9435 -52.2784 41.8047)" class="st12" width="2.4" height="3.5"/>
			<polygon class="st39" points="95.8,176.2 94.7,172.9 98.1,175.4 			"/>
			
				<rect x="96.6" y="176.4" transform="matrix(0.9435 -0.3315 0.3315 0.9435 -53.5271 42.4926)" class="st12" width="2.4" height="3.5"/>
			<polygon class="st39" points="97.2,180.2 96.1,176.9 99.5,179.4 			"/>
			
				<rect x="89.2" y="163.5" transform="matrix(0.9436 -0.3312 0.3312 0.9436 -49.5198 38.8884)" class="st42" width="0.3" height="2.5"/>
			
				<rect x="86.6" y="164.4" transform="matrix(0.9435 -0.3315 0.3315 0.9435 -49.9523 38.4705)" class="st42" width="2.4" height="2.5"/>
			<polygon class="st43" points="88.9,166.6 88.1,164.3 89.2,166.5 			"/>
			<polygon class="st43" points="88.3,166.8 87.5,164.5 88.7,166.7 			"/>
			<polygon class="st43" points="87.8,167 87,164.6 88.1,166.9 			"/>
			<polygon class="st43" points="87.2,167.2 86.4,164.8 87.6,167.1 			"/>
			<path class="st15" d="M67.8,155.8l5.3,2.2c0,0,6-1.3,8-0.5c3,1.5,5.8,3.2,8.6,5c0.8,0.9,1.3,1.9,1.6,3c-0.4,1.2-1.4,2.2-2.6,2.5
				c-1.4,0.1-7.8,0.3-7.8,0.3c0.7,0.6,1.3,1.2,1.9,1.8c0.3,0.5,0.3,1.1,0.1,1.6c-0.2,0.2-5.1-1.9-6.5-2.4c-1.4-0.7-2.8-1.6-3.9-2.7
				c-0.4-0.4-1.7-1.8-1.7-1.8l-5.9-2.4L67.8,155.8z"/>
			<path class="st21" d="M11.1,197.8c0,0-1.5-15.3,2-20s22.2-37.8,23.8-39.1s34.8,17,34.8,17s-3.7,8.7-4.1,8.9s-25-8.8-25-8.8
				l-4.3,13.8l6.4-2.5l5.7,13c0,0-6.8,4.3-18.3,9.9C25.4,193.4,18.3,196,11.1,197.8z"/>
			<path class="st47" d="M43.6,207.7c0,0,0.8,3.1-0.6,5.4s-4.1,2.7-5.8,5.1s-5.3,7.4-10.2,7.5s-8.6-5-11.4-6.1s-10.2,1-12.5-3.6
				s3.1-12.3-0.4-16.2s-3-8.7-1-10.9c3.3-3.7,7.6-4,12.6-1.2s7.9,0.7,10.2,0s6.2-1,7.6-0.4c1.5,0.6,2.5,3.2,2.5,3.2L43.6,207.7z"/>
			<path class="st26" d="M44.6,167.1l-6.4,2.5l-3.9,9.9c0,0,6.2-0.9,7.6,0c1.2,1.1,2.2,2.4,3,3.8c3.5-1.9,5.4-3.1,5.4-3.1
				L44.6,167.1z"/>
			<path class="st15" d="M47.8,197.8c-0.2-0.4-1.3-0.6-2.4-0.7c-4.1-7.6-14.5-7.9-14.5-7.9s-0.8,3.3,3.6,8.7s4.4,16.1,4.4,16.1
				c1.8-1,3.3-2.3,4.7-3.8c2-2.2,3.9-5.4,3.1-9.6C47.3,199.5,48,198.2,47.8,197.8z"/>
		</g>
	</g>
</g>
<g id="Warstwa_2_2_">
	<g>
		<circle class="st19" cx="212.2" cy="181.8" r="8.9"/>
		<path class="st29" d="M218.4,189.4c0.6-0.4,0.8-1.2,0.4-1.8l0,0l-2.9-4.6l-2.3,1.4l2.9,4.6C216.9,189.7,217.7,189.9,218.4,189.4
			C218.4,189.5,218.4,189.4,218.4,189.4z"/>
		<circle class="st29" cx="211.6" cy="178" r="8.3"/>
		<path class="st17" d="M204,176.7c0.1-0.8,0.3-1.5,0.7-2.3c0.3-0.7,0.8-1.4,1.3-2c1.1-1.2,2.6-1.9,4.2-2.3l0.6-0.1
			c0.2,0,0.4,0,0.6,0h0.6c0.2,0,0.4,0,0.6,0.1c1.6,0.2,3.1,0.9,4.3,2c0.6,0.5,1,1.2,1.4,1.9c-0.9-1.3-2.1-2.3-3.5-2.9
			c-2.9-1.2-6.2-0.6-8.5,1.6C205.1,173.8,204.3,175.2,204,176.7z"/>
		<circle class="st30" cx="211.6" cy="178" r="6.7"/>
		<path class="st31" d="M205.2,179.9c1.1,3.5,4.8,5.5,8.3,4.4c2.5-0.8,4.3-2.9,4.7-5.4c-1.1-3.5-4.8-5.5-8.3-4.4
			C207.4,175.3,205.6,177.4,205.2,179.9z"/>
		<g class="st32">
			<path class="st17" d="M216.3,175.1h-0.1v0.1c1.6,2.5,0.8,5.7-1.7,7.3c-0.8,0.5-1.8,0.8-2.8,0.8c-0.3,0-0.6,0-0.8-0.1
				c-0.1,0-0.1,0-0.1,0.1l0,0c0,0.1,0,0.1,0.1,0.1c0.3,0,0.6,0.1,0.9,0.1c3.1,0,5.5-2.5,5.5-5.6C217.1,177,216.8,176,216.3,175.1
				L216.3,175.1z"/>
			<path class="st17" d="M208.5,173.7v-0.1h-0.1c-2.5,1.8-3,5.2-1.2,7.7c0.1,0.2,0.2,0.3,0.4,0.5h0.1l0,0v-0.1
				c-0.9-1-1.4-2.2-1.4-3.6C206.3,176.3,207.1,174.7,208.5,173.7z"/>
			<path class="st17" d="M211.6,174.6c0.2,0,0.3,0,0.5,0c0.1,0,0.1-0.1,0.1-0.1s0-0.1-0.1-0.1c-0.2,0-0.4,0-0.5,0
				c-2,0-3.6,1.6-3.6,3.6c0,0.2,0,0.4,0,0.5l0.1,0.1l0,0c0.1,0,0.1-0.1,0.1-0.1l0,0c0-0.2,0-0.3,0-0.5
				C208.1,176.1,209.7,174.6,211.6,174.6L211.6,174.6z"/>
			<path class="st17" d="M214.3,180.5v-0.1h-0.1l0,0c-1.3,1.4-3.4,1.5-4.8,0.2c-0.1-0.1-0.1-0.1-0.2-0.2c-0.1,0-0.1,0-0.2,0v0.1
				c1.4,1.5,3.7,1.6,5.1,0.2C214.2,180.6,214.2,180.6,214.3,180.5L214.3,180.5z"/>
			<path class="st17" d="M213.2,175c1.1,0.6,1.9,1.8,1.9,3.1c0,0.1,0,0.2,0,0.3s0,0.1,0.1,0.1l0,0c0.1,0,0.1,0,0.1-0.1l0,0
				c0-0.1,0-0.2,0-0.3c0-1.4-0.8-2.6-2-3.2L213.2,175C213,174.8,213,174.9,213.2,175C213.1,175,213.1,175,213.2,175z"/>
			<path class="st17" d="M211.6,180.9c1,0,1.9-0.5,2.4-1.4v-0.1l0,0h-0.1c-0.5,0.8-1.3,1.3-2.2,1.3
				C211.6,180.7,211.6,180.7,211.6,180.9L211.6,180.9C211.5,180.8,211.5,180.8,211.6,180.9L211.6,180.9z"/>
			<path class="st17" d="M213.4,176.2c0,0.1,0.1,0.1,0.1,0c0.1,0,0.1-0.1,0-0.1l0,0c-0.5-0.5-1.2-0.8-2-0.8c-1,0-1.9,0.5-2.4,1.4
				v0.1l0,0h0.1c0.7-1.2,2.3-1.7,3.6-1C213,175.9,213.2,176.1,213.4,176.2L213.4,176.2z"/>
		</g>
		<circle class="st19" cx="189.1" cy="43.4" r="8.9"/>
		<path class="st29" d="M197.7,31.8c-0.5-0.5-1.4-0.5-1.9,0l-3.9,3.9l1.9,1.9l3.9-3.9C198.2,33.2,198.2,32.3,197.7,31.8L197.7,31.8z
			"/>
		<circle class="st29" cx="188.4" cy="41.1" r="8.3"/>
		<path class="st17" d="M180.8,39.7c0.2-1.6,0.9-3.1,2-4.2c1.1-1.2,2.6-1.9,4.2-2.3l0.6-0.1c0.2,0,0.4,0,0.6,0h0.6h0.6
			c1.6,0.2,3.1,0.9,4.3,2c0.6,0.5,1,1.2,1.4,1.9c-0.9-1.3-2.1-2.3-3.5-2.9c-2.9-1.2-6.2-0.6-8.5,1.6
			C181.9,36.8,181.2,38.2,180.8,39.7z"/>
		<circle class="st30" cx="188.4" cy="41.1" r="6.7"/>
		<path class="st31" d="M182,42.9c1.1,3.5,4.8,5.5,8.3,4.4c2.5-0.8,4.3-2.9,4.7-5.4c-1.1-3.5-4.8-5.5-8.3-4.4
			C184.2,38.3,182.4,40.4,182,42.9z"/>
		<g class="st32">
			<path class="st17" d="M193.1,38.1H193v0.1l0,0c1.6,2.5,0.8,5.7-1.7,7.3c-0.8,0.5-1.8,0.8-2.8,0.8c-0.3,0-0.6,0-0.8-0.1
				c-0.1,0-0.1,0-0.1,0.1l0,0c0,0.1,0,0.1,0.1,0.1c0.3,0,0.6,0.1,0.9,0.1c3.1,0,5.5-2.5,5.5-5.6C194,40,193.7,39,193.1,38.1
				L193.1,38.1z"/>
			<path class="st17" d="M185.3,36.8c0,0,0-0.1,0-0.2h-0.1c-2.5,1.8-3,5.2-1.2,7.7c0.1,0.2,0.2,0.3,0.4,0.5h0.1c0,0,0,0,0.1,0
				c0,0,0-0.1,0-0.2c-2-2.2-1.8-5.5,0.4-7.5C185,37,185.1,36.9,185.3,36.8L185.3,36.8z"/>
			<path class="st17" d="M188.4,37.7c0.2,0,0.3,0,0.5,0c0.1,0,0.1,0,0.1-0.1s0-0.1-0.1-0.1c-0.2,0-0.4,0-0.5,0c-2,0-3.6,1.6-3.6,3.6
				c0,0.2,0,0.4,0,0.5l0.1,0.1l0,0c0.1,0,0.1-0.1,0.1-0.1l0,0c0-0.2,0-0.3,0-0.5C185,39.2,186.5,37.7,188.4,37.7L188.4,37.7z"/>
			<path class="st17" d="M191.1,43.6c0,0,0-0.1,0-0.2H191l0,0c-1.3,1.4-3.5,1.4-4.8,0.2c-0.1,0-0.1-0.1-0.2-0.2h-0.1l0,0
				c0,0,0,0.1,0,0.2c1.4,1.5,3.7,1.6,5.1,0.2C191,43.7,191.1,43.6,191.1,43.6L191.1,43.6z"/>
			<path class="st17" d="M190,38c1.1,0.6,1.9,1.7,1.9,3c0,0.1,0,0.2,0,0.3s0,0.1,0.1,0.1l0,0c0.1,0,0.1,0,0.1-0.1l0,0
				c0-0.1,0-0.2,0-0.3c0-1.4-0.8-2.6-2-3.2c-0.1,0-0.1,0-0.1,0.1C189.9,37.9,189.9,38,190,38L190,38z"/>
			<path class="st17" d="M188.4,43.9c1,0,1.9-0.5,2.4-1.4c0,0,0-0.1,0-0.2h-0.1c-0.5,0.8-1.3,1.3-2.2,1.3c-0.1,0-0.1,0-0.1,0.1l0,0
				C188.3,43.9,188.4,43.9,188.4,43.9L188.4,43.9z"/>
			<path class="st17" d="M190.3,39.2c0,0.1,0.1,0.1,0.1,0c0.1,0,0.1-0.1,0-0.2l0,0c-0.5-0.5-1.2-0.8-2-0.8c-1,0-1.9,0.5-2.4,1.4
				c0,0,0,0.1,0,0.2h0.1h0.1c0.7-1.2,2.3-1.7,3.6-1C189.9,38.9,190.1,39.1,190.3,39.2L190.3,39.2z"/>
		</g>
	</g>
</g>
<g id="Warstwa_3">
</g>
</svg>
