<?xml version="1.0" encoding="utf-8"?>
<!-- Generator: Adobe Illustrator 24.1.2, SVG Export Plug-In . SVG Version: 6.00 Build 0)  -->
<svg version="1.1" id="Warstwa_3" xmlns="http://www.w3.org/2000/svg" xmlns:xlink="http://www.w3.org/1999/xlink" x="0px" y="0px"
	 viewBox="0 0 319.5 276.4" style="enable-background:new 0 0 319.5 276.4;" xml:space="preserve">
<style type="text/css">
	.st0{fill:url(#SVGID_1_);}
	.st1{fill:#4D5963;}
	.st2{fill:#E8E8E8;}
	.st3{fill:#EDEDED;}
	.st4{fill:url(#SVGID_2_);}
	.st5{fill:#313A40;}
	.st6{fill:url(#SVGID_3_);}
	.st7{opacity:0.56;}
	.st8{fill:#6C8D9E;}
	.st9{opacity:0.2;}
	.st10{fill:#95ABBF;}
	.st11{fill:url(#SVGID_4_);}
	.st12{fill:#191E28;}
	.st13{fill:url(#SVGID_5_);}
	.st14{opacity:0.4;}
	.st15{fill:#FFFFFF;}
	.st16{fill:#E6E7E8;}
	.st17{fill:url(#SVGID_6_);}
	.st18{fill:url(#SVGID_7_);}
	.st19{fill:#576570;}
	.st20{opacity:0.7;}
	.st21{opacity:0.3;}
	.st22{opacity:0.55;}
	.st23{fill:#7BA0B3;}
	.st24{fill:#434E57;}
	.st25{fill:#8FA5B8;}
	.st26{opacity:0.5;}
	.st27{fill:#879BAD;}
	.st28{fill:#03601F;}
	.st29{fill:#084F15;}
	.st30{fill:#E6A85E;}
	.st31{fill:#E8882C;}
	.st32{fill:#687007;}
	.st33{fill:#074010;}
	.st34{fill:#61731A;}
	.st35{fill:#A5CB69;}
</style>
<linearGradient id="SVGID_1_" gradientUnits="userSpaceOnUse" x1="186.3347" y1="118.843" x2="293.2111" y2="237.5653" gradientTransform="matrix(1 0 0 -1 0 275.8898)">
	<stop  offset="0" style="stop-color:#E1E1E1"/>
	<stop  offset="0.4922" style="stop-color:#FFFFFF"/>
</linearGradient>
<polygon class="st0" points="160,58.3 303.4,36.1 319.7,136.9 176.3,159 "/>
<g>
	
		<rect x="219" y="96.9" transform="matrix(0.9883 -0.1522 0.1522 0.9883 -13.7508 36.2487)" class="st1" width="21.8" height="22.1"/>
	
		<rect x="218.6" y="105.1" transform="matrix(0.9883 -0.1522 0.1522 0.9883 -13.4378 36.1623)" class="st2" width="21.8" height="1.5"/>
	
		<rect x="248.3" y="84.6" transform="matrix(0.9883 -0.1522 0.1522 0.9883 -11.8807 42.1977)" class="st3" width="42.8" height="28.2"/>
	
		<linearGradient id="SVGID_2_" gradientUnits="userSpaceOnUse" x1="245.2946" y1="681.0223" x2="245.2946" y2="677.1626" gradientTransform="matrix(-0.9883 0.1522 0.1522 0.9883 407.5505 -617.4862)">
		<stop  offset="0" style="stop-color:#6BCAEF"/>
		<stop  offset="1" style="stop-color:#357CEF"/>
	</linearGradient>
	<polygon class="st4" points="247.2,93.4 289.5,86.9 290,90.1 247.7,96.6 	"/>
	
		<rect x="247" y="90.1" transform="matrix(0.9883 -0.1522 0.1522 0.9883 -10.6174 41.9018)" class="st5" width="42.8" height="0.4"/>
	
		<linearGradient id="SVGID_3_" gradientUnits="userSpaceOnUse" x1="248.9501" y1="700.8971" x2="248.9501" y2="686.5996" gradientTransform="matrix(-0.9883 0.1522 0.1522 0.9883 407.5505 -617.4862)">
		<stop  offset="0" style="stop-color:#6BCAEF"/>
		<stop  offset="1" style="stop-color:#357CEF"/>
	</linearGradient>
	<polygon class="st6" points="248.6,102.2 283.6,96.8 285.7,110.5 250.7,115.9 	"/>
	<g class="st7">
		
			<rect x="248.4" y="99.5" transform="matrix(0.9883 -0.1522 0.1522 0.9883 -12.1435 41.6754)" class="st8" width="35.5" height="1.3"/>
	</g>
	<g class="st9">
		<rect x="247.1" y="90.1" transform="matrix(0.9883 -0.1522 0.1522 0.9883 -10.684 41.9224)" width="42.8" height="1.3"/>
	</g>
	
		<rect x="284.6" y="96.1" transform="matrix(0.9883 -0.1522 0.1522 0.9883 -12.3264 45.079)" class="st10" width="7.4" height="13.9"/>
	
		<rect x="241.2" y="102.2" transform="matrix(0.9883 -0.1522 0.1522 0.9883 -13.7105 39.177)" class="st10" width="15.7" height="13.9"/>
	<rect x="227.9" y="83" transform="matrix(0.9883 -0.1522 0.1522 0.9883 -9.8102 40.6539)" class="st1" width="65.5" height="2.8"/>
	
		<rect x="226.3" y="73.7" transform="matrix(0.9883 -0.1522 0.1522 0.9883 -8.5781 38.149)" class="st1" width="37.2" height="2.8"/>
	
		<rect x="181.3" y="75.1" transform="matrix(0.9883 -0.1522 0.1522 0.9883 -9.2557 32.0996)" class="st1" width="47.5" height="2.8"/>
	
		<linearGradient id="SVGID_4_" gradientUnits="userSpaceOnUse" x1="268.4778" y1="669.8013" x2="268.4778" y2="661.9083" gradientTransform="matrix(-0.9883 0.1522 0.1522 0.9883 407.5505 -617.4862)">
		<stop  offset="0" style="stop-color:#6BCAEF"/>
		<stop  offset="1" style="stop-color:#357CEF"/>
	</linearGradient>
	<polygon class="st11" points="226.7,79.3 259,74.4 260.3,83 228.1,88 	"/>
	<g class="st9">
		<path class="st12" d="M275.9,103.9l8.6-1.3l1.2,8l-16.5,2.5l0,0C268.5,108.7,271.6,104.5,275.9,103.9z"/>
	</g>
	
		<linearGradient id="SVGID_5_" gradientUnits="userSpaceOnUse" x1="275.7191" y1="687.0485" x2="275.7191" y2="676.3407" gradientTransform="matrix(-0.9883 0.1522 0.1522 0.9883 407.5505 -617.4862)">
		<stop  offset="0" style="stop-color:#6BCAEF"/>
		<stop  offset="1" style="stop-color:#357CEF"/>
	</linearGradient>
	<polygon class="st13" points="228.7,92.1 246.6,89.3 248.6,102.2 230.7,104.9 	"/>
	<g>
		
			<rect x="253.9" y="75.2" transform="matrix(0.9883 -0.1522 0.1522 0.9883 -9.1539 39.6024)" class="st5" width="0.4" height="8.8"/>
		
			<rect x="246.8" y="76.2" transform="matrix(0.9883 -0.1522 0.1522 0.9883 -9.391 38.5319)" class="st5" width="0.4" height="8.8"/>
		
			<rect x="239.8" y="77.3" transform="matrix(0.9883 -0.1522 0.1522 0.9883 -9.6398 37.4798)" class="st5" width="0.4" height="8.8"/>
		
			<rect x="232.8" y="78.4" transform="matrix(0.9883 -0.1522 0.1522 0.9883 -9.8884 36.4276)" class="st5" width="0.4" height="8.8"/>
	</g>
	<g>
		<g class="st14">
			
				<rect x="253.5" y="75.2" transform="matrix(0.9883 -0.1522 0.1522 0.9883 -9.1591 39.54)" class="st8" width="0.4" height="8.8"/>
		</g>
		<g class="st14">
			
				<rect x="246.5" y="76.3" transform="matrix(0.9883 -0.1522 0.1522 0.9883 -9.408 38.4878)" class="st8" width="0.4" height="8.8"/>
		</g>
		<g class="st14">
			
				<rect x="239.5" y="77.4" transform="matrix(0.9883 -0.1522 0.1522 0.9883 -9.6565 37.4357)" class="st8" width="0.4" height="8.8"/>
		</g>
		<g class="st14">
			
				<rect x="232.4" y="78.5" transform="matrix(0.9883 -0.1522 0.1522 0.9883 -9.9088 36.3687)" class="st8" width="0.4" height="8.8"/>
		</g>
	</g>
	<g>
		
			<rect x="277.2" y="97.8" transform="matrix(0.9883 -0.1522 0.1522 0.9883 -12.7112 43.4401)" class="st5" width="0.4" height="13.9"/>
		<polygon class="st5" points="278.2,111.7 278.6,111.6 278.6,111.6 		"/>
		
			<rect x="256" y="101" transform="matrix(0.9883 -0.1522 0.1522 0.9883 -12.2573 42.2816)" class="st5" width="28.1" height="0.4"/>
		
			<rect x="256.3" y="103" transform="matrix(0.9883 -0.1522 0.1522 0.9883 -12.5584 42.3503)" class="st5" width="28.1" height="0.4"/>
		
			<rect x="255.7" y="98.9" transform="matrix(0.9883 -0.1522 0.1522 0.9883 -11.941 42.2101)" class="st5" width="28.1" height="0.4"/>
		
			<rect x="267" y="99.4" transform="matrix(0.9883 -0.1522 0.1522 0.9883 -13.073 41.9068)" class="st5" width="0.4" height="13.9"/>
		<polygon class="st5" points="268,113.2 268.4,113.2 268.4,113.2 		"/>
		
			<rect x="256.7" y="101" transform="matrix(0.9883 -0.1522 0.1522 0.9883 -13.4381 40.3586)" class="st5" width="0.4" height="13.9"/>
		<polygon class="st5" points="257.8,114.8 258.2,114.8 258.2,114.8 		"/>
	</g>
	
		<rect x="228.7" y="89.4" transform="matrix(0.9883 -0.1522 0.1522 0.9883 -11.0871 37.2462)" class="st15" width="18.1" height="3.3"/>
	<g>
		<rect x="243.7" y="91.8" transform="matrix(0.9883 -0.1522 0.1522 0.9883 -11.969 38.255)" class="st5" width="0.4" height="11"/>
		
			<rect x="228.9" y="92.7" transform="matrix(0.9883 -0.1522 0.1522 0.9883 -11.3682 37.2994)" class="st5" width="18.1" height="0.4"/>
		
			<rect x="229.3" y="94.8" transform="matrix(0.9883 -0.1522 0.1522 0.9883 -11.6815 37.3843)" class="st5" width="18.1" height="0.4"/>
		
			<rect x="238.6" y="92.6" transform="matrix(0.9883 -0.1522 0.1522 0.9883 -12.1489 37.4881)" class="st5" width="0.4" height="11"/>
		
			<rect x="233.4" y="93.4" transform="matrix(0.9883 -0.1522 0.1522 0.9883 -12.3324 36.7063)" class="st5" width="0.4" height="11"/>
	</g>
	
		<rect x="193.2" y="100.5" transform="matrix(0.9883 -0.1522 0.1522 0.9883 -14.5769 32.683)" class="st15" width="26" height="22.1"/>
	<polygon class="st15" points="195.1,124.5 220.8,120.5 220.8,120.5 	"/>
	<rect x="186" y="77.8" transform="matrix(0.9883 -0.1522 0.1522 0.9883 -11.127 32.5413)" class="st15" width="42" height="22.3"/>
	
		<rect x="189.6" y="81.1" transform="matrix(0.9883 -0.1522 0.1522 0.9883 -11.3752 32.5991)" class="st16" width="35.3" height="19"/>
	
		<linearGradient id="SVGID_6_" gradientUnits="userSpaceOnUse" x1="305.7732" y1="673.7027" x2="305.7732" y2="662.0286" gradientTransform="matrix(-0.9883 0.1522 0.1522 0.9883 407.5505 -617.4862)">
		<stop  offset="0" style="stop-color:#6BCAEF"/>
		<stop  offset="1" style="stop-color:#357CEF"/>
	</linearGradient>
	<polygon class="st17" points="191.4,86.3 221,81.7 223.5,97.7 193.9,102.3 	"/>
	<g class="st9">
		<path class="st12" d="M213.1,87.9l8.7-1.3l1.1,6.9L208,95.7l-0.1-0.7C207.4,91.6,209.7,88.4,213.1,87.9z"/>
	</g>
	
		<linearGradient id="SVGID_7_" gradientUnits="userSpaceOnUse" x1="286.0502" y1="700.7047" x2="286.0502" y2="688.1389" gradientTransform="matrix(-0.9883 0.1522 0.1522 0.9883 407.5505 -617.4862)">
		<stop  offset="0" style="stop-color:#6BCAEF"/>
		<stop  offset="1" style="stop-color:#357CEF"/>
	</linearGradient>
	<polygon class="st18" points="218.9,108.3 240.4,105 242.3,117.2 220.8,120.5 	"/>
	
		<rect x="228.5" y="108.8" transform="matrix(0.9883 -0.1522 0.1522 0.9883 -14.6403 36.4464)" class="st19" width="4.5" height="10.1"/>
	
		<rect x="191.2" y="102.6" transform="matrix(0.9883 -0.1522 0.1522 0.9883 -15.0563 30.6062)" class="st1" width="2.4" height="22.1"/>
	<polygon class="st1" points="192.9,124.8 195.3,124.4 195.3,124.4 	"/>
	<g>
		
			<rect x="283.5" y="87.8" transform="matrix(0.9883 -0.1522 0.1522 0.9883 -10.303 44.2206)" class="st5" width="0.4" height="3.2"/>
		
			<rect x="277.5" y="88.7" transform="matrix(0.9883 -0.1522 0.1522 0.9883 -10.5089 43.317)" class="st5" width="0.4" height="3.2"/>
		
			<rect x="271.4" y="89.6" transform="matrix(0.9883 -0.1522 0.1522 0.9883 -10.7181 42.3985)" class="st5" width="0.4" height="3.2"/>
		
			<rect x="265.4" y="90.6" transform="matrix(0.9883 -0.1522 0.1522 0.9883 -10.9389 41.4983)" class="st5" width="0.4" height="3.2"/>
		
			<rect x="259.3" y="91.5" transform="matrix(0.9883 -0.1522 0.1522 0.9883 -11.148 40.5798)" class="st5" width="0.4" height="3.2"/>
		
			<rect x="253.3" y="92.4" transform="matrix(0.9883 -0.1522 0.1522 0.9883 -11.3539 39.6762)" class="st5" width="0.4" height="3.2"/>
	</g>
	<g class="st14">
		
			<rect x="216.5" y="82.5" transform="matrix(0.9883 -0.1522 0.1522 0.9883 -10.9307 34.0118)" class="st8" width="0.4" height="11.8"/>
		
			<rect x="209.9" y="83.5" transform="matrix(0.9883 -0.1522 0.1522 0.9883 -11.159 33.0183)" class="st8" width="0.4" height="11.8"/>
		
			<rect x="203.2" y="84.5" transform="matrix(0.9883 -0.1522 0.1522 0.9883 -11.3905 32.0098)" class="st8" width="0.4" height="11.8"/>
		
			<rect x="196.6" y="85.5" transform="matrix(0.9883 -0.1522 0.1522 0.9883 -11.6188 31.0163)" class="st8" width="0.4" height="11.8"/>
	</g>
	<g>
		
			<rect x="216.9" y="82.4" transform="matrix(0.9883 -0.1522 0.1522 0.9883 -10.9104 34.0705)" class="st5" width="0.4" height="11.8"/>
		
			<rect x="210.2" y="83.4" transform="matrix(0.9883 -0.1522 0.1522 0.9883 -11.1422 33.0621)" class="st5" width="0.4" height="11.8"/>
		
			<rect x="203.6" y="84.5" transform="matrix(0.9883 -0.1522 0.1522 0.9883 -11.3853 32.072)" class="st5" width="0.4" height="11.8"/>
		
			<rect x="197" y="85.5" transform="matrix(0.9883 -0.1522 0.1522 0.9883 -11.6136 31.0785)" class="st5" width="0.4" height="11.8"/>
	</g>
	<g>
		
			<rect x="237.6" y="105.5" transform="matrix(0.9883 -0.1522 0.1522 0.9883 -14.2298 37.4955)" class="st5" width="0.4" height="12.4"/>
		
			<rect x="232.8" y="106.2" transform="matrix(0.9883 -0.1522 0.1522 0.9883 -14.3928 36.7723)" class="st5" width="0.4" height="12.4"/>
		
			<rect x="228" y="106.9" transform="matrix(0.9883 -0.1522 0.1522 0.9883 -14.5558 36.0491)" class="st5" width="0.4" height="12.4"/>
		
			<rect x="223.2" y="107.7" transform="matrix(0.9883 -0.1522 0.1522 0.9883 -14.7336 35.3294)" class="st5" width="0.4" height="12.4"/>
	</g>
	
		<rect x="225.9" y="104.6" transform="matrix(0.9883 -0.1522 0.1522 0.9883 -13.3181 36.7132)" class="st15" width="14.5" height="1.5"/>
	<rect x="191.3" y="84" transform="matrix(0.9883 -0.1522 0.1522 0.9883 -10.4116 32.3788)" class="st5" width="30" height="0.4"/>
	<rect x="191.9" y="88.1" transform="matrix(0.9883 -0.1522 0.1522 0.9883 -11.029 32.5192)" class="st5" width="30" height="0.4"/>
	<rect x="191.6" y="86.1" transform="matrix(0.9883 -0.1522 0.1522 0.9883 -10.7283 32.449)" class="st5" width="30" height="0.4"/>
	
		<rect x="226.9" y="78.7" transform="matrix(0.9883 -0.1522 0.1522 0.9883 -9.1756 37.9333)" class="st5" width="32.6" height="0.4"/>
	
		<rect x="227.1" y="80.4" transform="matrix(0.9883 -0.1522 0.1522 0.9883 -9.4332 37.9844)" class="st5" width="32.6" height="0.4"/>
	
		<rect x="219.1" y="108.5" transform="matrix(0.9883 -0.1522 0.1522 0.9883 -13.8643 36.2731)" class="st5" width="21.8" height="0.4"/>
	<g class="st9">
		
			<rect x="226.8" y="76.8" transform="matrix(0.9883 -0.1522 0.1522 0.9883 -9.0776 37.911)" class="st12" width="32.6" height="2.9"/>
	</g>
	<g class="st9">
		
			<rect x="184.4" y="77.9" transform="matrix(0.9883 -0.1522 0.1522 0.9883 -9.5938 32.1793)" class="st12" width="42" height="1.7"/>
	</g>
	<g class="st9">
		
			<rect x="228.3" y="86.2" transform="matrix(0.9883 -0.1522 0.1522 0.9883 -10.2347 40.3965)" class="st12" width="60.9" height="1.7"/>
	</g>
	<g class="st20">
		
			<rect x="229" y="92.7" transform="matrix(0.9883 -0.1522 0.1522 0.9883 -11.4426 37.3207)" class="st8" width="18.1" height="1.4"/>
	</g>
	<g class="st21">
		<rect x="245.7" y="88.1" transform="matrix(0.9883 -0.1522 0.1522 0.9883 -11.6245 38.642)" width="1.8" height="14.3"/>
	</g>
	<g class="st22">
		
			<rect x="239.5" y="103.5" transform="matrix(0.9883 -0.1522 0.1522 0.9883 -14.0097 37.8751)" class="st23" width="1.8" height="13.9"/>
	</g>
	<g class="st20">
		
			<rect x="189.4" y="99.9" transform="matrix(0.9883 -0.1522 0.1522 0.9883 -12.8929 33.0755)" class="st8" width="40.4" height="1.7"/>
	</g>
	<g class="st9">
		<rect x="226.3" y="106.1" transform="matrix(0.9883 -0.1522 0.1522 0.9883 -13.7325 36.806)" width="14.5" height="4"/>
	</g>
	<g>
		
			<rect x="196.6" y="106.5" transform="matrix(0.9883 -0.1522 0.1522 0.9883 -15.0266 32.7945)" class="st1" width="20.2" height="16.1"/>
		
			<rect x="195.6" y="108.2" transform="matrix(0.9883 -0.1522 0.1522 0.9883 -14.0957 32.5701)" class="st24" width="20.2" height="0.3"/>
		
			<rect x="195.9" y="110" transform="matrix(0.9883 -0.1522 0.1522 0.9883 -14.3658 32.6361)" class="st24" width="20.2" height="0.3"/>
		
			<rect x="196.2" y="111.8" transform="matrix(0.9883 -0.1522 0.1522 0.9883 -14.6358 32.7024)" class="st24" width="20.2" height="0.3"/>
		
			<rect x="196.5" y="113.7" transform="matrix(0.9883 -0.1522 0.1522 0.9883 -14.9207 32.7722)" class="st24" width="20.2" height="0.3"/>
		
			<rect x="196.8" y="115.5" transform="matrix(0.9883 -0.1522 0.1522 0.9883 -15.1907 32.8385)" class="st24" width="20.2" height="0.3"/>
		
			<rect x="197" y="117.3" transform="matrix(0.9883 -0.1522 0.1522 0.9883 -15.4642 32.89)" class="st24" width="20.2" height="0.3"/>
		
			<rect x="197.3" y="119.1" transform="matrix(0.9883 -0.1522 0.1522 0.9883 -15.7342 32.9563)" class="st24" width="20.2" height="0.3"/>
		
			<rect x="197.6" y="121.1" transform="matrix(0.9883 -0.1522 0.1522 0.9883 -16.0356 33.0243)" class="st24" width="20.2" height="0.3"/>
	</g>
	<g class="st9">
		<rect x="191.5" y="84" transform="matrix(0.9883 -0.1522 0.1522 0.9883 -10.6304 32.4265)" width="30" height="3.3"/>
	</g>
	
		<rect x="225.3" y="101.1" transform="matrix(0.9883 -0.1522 0.1522 0.9883 -12.6522 37.22)" class="st25" width="23" height="0.3"/>
	
		<rect x="225.7" y="102.6" transform="matrix(0.9883 -0.1522 0.1522 0.9883 -12.8614 37.2824)" class="st2" width="22.8" height="0.1"/>
	
		<rect x="225.8" y="103.2" transform="matrix(0.9883 -0.1522 0.1522 0.9883 -12.9514 37.3045)" class="st2" width="22.8" height="0.1"/>
	<g>
		
			<rect x="247.3" y="99.8" transform="matrix(0.9883 -0.1522 0.1522 0.9883 -12.4977 38.8309)" class="st2" width="0.2" height="2.5"/>
		
			<rect x="245.5" y="100.1" transform="matrix(0.9883 -0.1522 0.1522 0.9883 -12.5644 38.561)" class="st2" width="0.2" height="2.5"/>
		
			<rect x="243.7" y="100.4" transform="matrix(0.9883 -0.1522 0.1522 0.9883 -12.6311 38.2911)" class="st2" width="0.2" height="2.5"/>
		
			<rect x="241.9" y="100.6" transform="matrix(0.9883 -0.1522 0.1522 0.9883 -12.6829 38.0177)" class="st2" width="0.2" height="2.5"/>
		
			<rect x="240.1" y="100.9" transform="matrix(0.9883 -0.1522 0.1522 0.9883 -12.7496 37.7478)" class="st2" width="0.2" height="2.5"/>
		
			<rect x="238.3" y="101.2" transform="matrix(0.9883 -0.1522 0.1522 0.9883 -12.8163 37.4779)" class="st2" width="0.2" height="2.5"/>
		
			<rect x="236.5" y="101.5" transform="matrix(0.9883 -0.1522 0.1522 0.9883 -12.8829 37.208)" class="st2" width="0.2" height="2.5"/>
		
			<rect x="234.7" y="101.7" transform="matrix(0.9883 -0.1522 0.1522 0.9883 -12.9348 36.9346)" class="st2" width="0.2" height="2.5"/>
		
			<rect x="232.9" y="102" transform="matrix(0.9883 -0.1522 0.1522 0.9883 -13.0017 36.6648)" class="st2" width="0.2" height="2.5"/>
		
			<rect x="231.1" y="102.3" transform="matrix(0.9883 -0.1522 0.1522 0.9883 -13.0684 36.3949)" class="st2" width="0.2" height="2.5"/>
		
			<rect x="229.3" y="102.6" transform="matrix(0.9883 -0.1522 0.1522 0.9883 -13.135 36.125)" class="st2" width="0.2" height="2.5"/>
		
			<rect x="227.5" y="102.8" transform="matrix(0.9883 -0.1522 0.1522 0.9883 -13.1868 35.8517)" class="st2" width="0.2" height="2.5"/>
		
			<rect x="225.8" y="103.1" transform="matrix(0.9883 -0.1522 0.1522 0.9883 -13.2501 35.5966)" class="st2" width="0.2" height="2.5"/>
	</g>
	<g class="st9">
		<polygon class="st12" points="246.4,88.1 234.5,104.3 248.6,102.2 		"/>
	</g>
	<g class="st26">
		<path class="st8" d="M192.9,124.8l12.3-1.9L192.9,124.8z"/>
	</g>
	<g class="st9">
		<polygon class="st12" points="240.4,105 242.3,117.2 230.1,119.1 		"/>
	</g>
	
		<rect x="187.3" y="95.7" transform="matrix(0.9883 -0.1522 0.1522 0.9883 -12.4675 32.8433)" class="st15" width="42" height="4.3"/>
	
		<rect x="285.5" y="107.7" transform="matrix(0.9883 -0.1522 0.1522 0.9883 -13.1982 45.2847)" class="st27" width="7.4" height="2.3"/>
	
		<rect x="242.1" y="114.3" transform="matrix(0.9883 -0.1522 0.1522 0.9883 -14.701 38.8395)" class="st27" width="8.5" height="2.3"/>
	<polygon class="st27" points="242.3,117.2 250.7,115.9 250.7,115.9 	"/>
	<g class="st9">
		<rect x="283.2" y="96.8" transform="matrix(0.9883 -0.1522 0.1522 0.9883 -12.4834 44.4257)" width="1.5" height="13.9"/>
	</g>
	<path class="st15" d="M229.3,114.9L229.3,114.9c0.1,0,0.1-0.1,0.1-0.2l-0.1-0.7c0-0.1-0.1-0.1-0.2-0.1l0,0c-0.1,0-0.1,0.1-0.1,0.2
		l0.1,0.7C229.1,114.9,229.2,115,229.3,114.9z"/>
	<rect x="223" y="112" transform="matrix(0.9883 -0.1522 0.1522 0.9883 -14.4488 35.6442)" class="st5" width="5.2" height="0.4"/>
	
		<rect x="232.6" y="110.5" transform="matrix(0.9883 -0.1522 0.1522 0.9883 -14.1082 37.0872)" class="st5" width="5.2" height="0.4"/>
	
		<rect x="223.6" y="116.2" transform="matrix(0.9883 -0.1522 0.1522 0.9883 -15.0821 35.7848)" class="st5" width="5.2" height="0.4"/>
	
		<rect x="233.2" y="114.7" transform="matrix(0.9883 -0.1522 0.1522 0.9883 -14.7415 37.2278)" class="st5" width="5.2" height="0.4"/>
	<g>
		<g>
			<path class="st28" d="M227.3,119.5l-4.8,0.7c0-0.1,0-0.3,0-0.4v-0.1c0-0.2,0.1-0.5,0.1-0.7v-0.1c0.1-0.2,0.2-0.4,0.4-0.6
				c0,0,0-0.1,0.1-0.1c0.2-0.2,0.4-0.4,0.6-0.5h0.1c0.2-0.1,0.5-0.2,0.7-0.2l0,0l0,0c0.3,0,0.5,0,0.8,0h0.1c0.3,0.1,0.5,0.1,0.7,0.3
				c0,0,0.1,0,0.1,0.1c0.2,0.1,0.4,0.3,0.5,0.5c0,0,0,0,0.1,0.1c0.1,0.2,0.3,0.4,0.3,0.6v0.1C227.3,119.2,227.3,119.4,227.3,119.5z"
				/>
		</g>
		<g>
			<path class="st29" d="M224.6,117.5l0.4,2.4h-0.1L224.6,117.5C224.5,117.5,224.5,117.5,224.6,117.5L224.6,117.5z"/>
		</g>
		<g>
			<path class="st29" d="M224.7,119.9L224.7,119.9l-1.1-2.1h0.1L224.7,119.9z"/>
		</g>
		<g>
			<path class="st29" d="M224.4,119.9h-0.1l-1.3-1.6c0,0,0-0.1,0.1-0.1L224.4,119.9z"/>
		</g>
		<g>
			<path class="st29" d="M224.1,120H224l-1.3-1v-0.1L224.1,120z"/>
		</g>
		<g>
			<path class="st29" d="M223.4,120.1h-0.2l-0.8-0.3v-0.1L223.4,120.1z"/>
		</g>
		<g>
			<path class="st29" d="M225.5,117.5l-0.3,2.3h-0.1L225.5,117.5C225.4,117.5,225.4,117.5,225.5,117.5z"/>
		</g>
		<g>
			<path class="st29" d="M226.2,117.8l-0.8,2h-0.1L226.2,117.8L226.2,117.8z"/>
		</g>
		<g>
			<path class="st29" d="M226.9,118.4l-1,1.3h-0.1L226.9,118.4C226.8,118.3,226.8,118.4,226.9,118.4z"/>
		</g>
		<g>
			<path class="st29" d="M227.2,119.1l-0.7,0.5h-0.2L227.2,119.1C227.2,119,227.2,119,227.2,119.1z"/>
		</g>
	</g>
	<g>
		<g>
			<path class="st28" d="M222.5,120.3l-2.7,0.4c0-0.1,0-0.2,0-0.2s0,0,0-0.1s0-0.3,0.1-0.4l0,0c0-0.1,0.1-0.2,0.2-0.3l0,0
				c0.1-0.1,0.2-0.2,0.3-0.3l0,0c0.1-0.1,0.3-0.1,0.4-0.1l0,0l0,0c0.1,0,0.3,0,0.4,0l0,0c0.1,0,0.3,0.1,0.4,0.2l0,0
				c0.1,0.1,0.2,0.2,0.3,0.3l0,0c0.1,0.1,0.1,0.2,0.2,0.3c0,0,0,0,0,0.1C222.5,120.1,222.5,120.2,222.5,120.3z"/>
		</g>
		<g>
			<path class="st29" d="M221,119.1l0.2,1.3h-0.1L221,119.1C220.9,119.1,220.9,119.1,221,119.1C220.9,119.1,221,119.1,221,119.1z"/>
		</g>
		<g>
			<path class="st29" d="M221,120.5L221,120.5l-0.6-1.2l0,0L221,120.5z"/>
		</g>
		<g>
			<path class="st29" d="M220.9,120.5L220.9,120.5l-0.8-0.9l0,0L220.9,120.5z"/>
		</g>
		<g>
			<path class="st29" d="M220.7,120.5L220.7,120.5l-0.8-0.5l0,0L220.7,120.5z"/>
		</g>
		<g>
			<path class="st29" d="M220.3,120.6L220.3,120.6l-0.5-0.2c0,0,0,0,0-0.1L220.3,120.6z"/>
		</g>
		<g>
			<path class="st29" d="M221.4,119.1l-0.1,1.3h-0.1L221.4,119.1L221.4,119.1z"/>
		</g>
		<g>
			<path class="st29" d="M221.9,119.3l-0.4,1.1h-0.1L221.9,119.3L221.9,119.3z"/>
		</g>
		<g>
			<path class="st29" d="M222.2,119.6l-0.5,0.7h-0.1L222.2,119.6L222.2,119.6z"/>
		</g>
		<g>
			<path class="st29" d="M222.4,120l-0.4,0.3h-0.1L222.4,120L222.4,120z"/>
		</g>
	</g>
	<g>
		
			<rect x="192.9" y="111.4" transform="matrix(0.9883 -0.1522 0.1522 0.9883 -15.726 30.7596)" class="st15" width="0.3" height="13.4"/>
		<polygon class="st30" points="191.3,110.4 191.9,110.3 192,111.4 191.7,111.5 		"/>
		<polygon class="st31" points="192.4,110.2 191.9,110.3 192,111.4 192.4,111.4 		"/>
		<path class="st15" d="M191.5,110.1l0.6-0.1c0.1,0,0.2,0.1,0.3,0.2l0,0l-1,0.2l0,0C191.3,110.2,191.4,110.1,191.5,110.1z"/>
	</g>
	<g>
		<g>
			<path class="st32" d="M189.1,122.9c0.3,0,0.1-0.3,0-0.6c-0.2-0.2-0.3-0.5-0.1-0.6s0.3-0.2,0.1-0.5c-0.3-0.4-0.1-0.8,0.2-0.6
				c0.3,0.1,0-0.7,0.1-0.9c0.2-0.3,0.5-0.2,0.6,0.2c0.1,0.5,0.4,0.1,0.5,0.3c0.2,0.3-0.2,0.8,0.1,0.8s0.3,0.3,0.2,0.5
				s-0.3,0.6,0.2,0.7c0.3,0.1,0,1.1,0,1.3l-1.6,0.3c0,0-0.1-0.2-0.3-0.4C188.8,123.1,188.7,122.9,189.1,122.9z"/>
			<g>
				
					<rect x="189.9" y="120.6" transform="matrix(0.9883 -0.1522 0.1522 0.9883 -16.379 30.3336)" class="st33" width="0.1" height="3.1"/>
			</g>
			<g>
				
					<rect x="189.6" y="121" transform="matrix(0.6994 -0.7147 0.7147 0.6994 -29.6936 171.9992)" class="st33" width="0.1" height="0.6"/>
			</g>
			<g>
				
					<rect x="189.8" y="121.9" transform="matrix(0.4712 -0.882 0.882 0.4712 -7.0007 232.1686)" class="st33" width="0.6" height="0.1"/>
			</g>
			<g>
				
					<rect x="189.7" y="122" transform="matrix(0.7066 -0.7076 0.7076 0.7066 -30.9671 170.1935)" class="st33" width="0.1" height="0.9"/>
			</g>
			<g>
				
					<rect x="189.9" y="123" transform="matrix(0.4624 -0.8867 0.8867 0.4624 -6.8018 234.9378)" class="st33" width="0.9" height="0.1"/>
			</g>
		</g>
		
			<rect x="188.9" y="123.6" transform="matrix(0.9883 -0.1522 0.1522 0.9883 -16.719 30.4049)" class="st15" width="2.7" height="1.6"/>
	</g>
	<g>
		<g>
			<g>
				<g>
					<path class="st34" d="M295.5,103.4c0.1,0.4-0.1,0.7-0.1,0.7s-0.3-0.3-0.3-0.6s0.1-0.7,0.1-0.7S295.5,103,295.5,103.4z"/>
				</g>
				<g>
					<path class="st34" d="M295.5,104.3c0,0-0.3,0-0.5-0.1s-0.4-0.3-0.4-0.3s0.3,0,0.5,0.1C295.3,104,295.5,104.3,295.5,104.3z"/>
				</g>
				<g>
					<path class="st34" d="M295.5,104.9c0,0-0.4,0.1-0.7-0.1c-0.4-0.2-0.5-0.5-0.5-0.5s0.4-0.1,0.7,0.1
						C295.4,104.5,295.5,104.9,295.5,104.9z"/>
				</g>
				<g>
					<path class="st34" d="M295,105c0.4,0.2,0.7,0.6,0.7,0.6s-0.5,0.1-0.9-0.1s-0.7-0.6-0.7-0.6S294.6,104.7,295,105z"/>
				</g>
				<g>
					<path class="st34" d="M295,105.6c0.5,0.2,0.8,0.7,0.8,0.7s-0.6,0.1-1.1-0.2c-0.5-0.2-0.8-0.7-0.8-0.7S294.5,105.4,295,105.6z"
						/>
				</g>
				<g>
					<path class="st34" d="M295.1,106.5c0.6,0.3,0.9,0.8,0.9,0.8s-0.6,0.1-1.2-0.2c-0.6-0.3-0.9-0.8-0.9-0.8
						S294.5,106.2,295.1,106.5z"/>
				</g>
				<g>
					<path class="st34" d="M295.7,103.8c0.2-0.2,0.5-0.2,0.5-0.2s-0.1,0.3-0.2,0.4s-0.5,0.2-0.5,0.2S295.5,104,295.7,103.8z"/>
				</g>
				<g>
					<path class="st34" d="M295.9,104.2c0.3-0.3,0.7-0.3,0.7-0.3s-0.1,0.4-0.3,0.7c-0.3,0.3-0.7,0.3-0.7,0.3
						S295.6,104.5,295.9,104.2z"/>
				</g>
				<g>
					<path class="st34" d="M296.1,104.8c0.4-0.3,0.8-0.4,0.8-0.4s-0.1,0.5-0.4,0.8c-0.4,0.3-0.8,0.4-0.8,0.4
						S295.7,105.1,296.1,104.8z"/>
				</g>
				<g>
					<path class="st34" d="M296.3,105.4c0.4-0.4,1-0.5,1-0.5s-0.1,0.6-0.5,0.9c-0.4,0.4-1,0.5-1,0.5S295.9,105.8,296.3,105.4z"/>
				</g>
				<g>
					<path class="st34" d="M296.5,106.2c0.5-0.4,1.1-0.5,1.1-0.5s-0.1,0.6-0.6,1s-1.1,0.5-1.1,0.5S296,106.6,296.5,106.2z"/>
				</g>
			</g>
			<g>
				<polygon class="st34" points="295.4,104 295.4,104 296,107.6 296,107.6 				"/>
			</g>
		</g>
		
			<rect x="294.4" y="107" transform="matrix(0.9883 -0.1522 0.1522 0.9883 -12.9882 46.3184)" class="st15" width="3.3" height="2"/>
	</g>
</g>
<g class="st21">
	
		<rect x="240.5" y="104.5" transform="matrix(0.9883 -0.1522 0.1522 0.9883 -13.0181 39.0163)" class="st12" width="15.7" height="0.1"/>
</g>
<g class="st21">
	
		<rect x="240.8" y="106.7" transform="matrix(0.9883 -0.1522 0.1522 0.9883 -13.3504 39.0877)" class="st12" width="15.7" height="0.1"/>
</g>
<g class="st21">
	
		<rect x="241.1" y="108.9" transform="matrix(0.9883 -0.1522 0.1522 0.9883 -13.6826 39.1592)" class="st12" width="15.7" height="0.1"/>
</g>
<g class="st21">
	
		<rect x="241.5" y="111.1" transform="matrix(0.9883 -0.1522 0.1522 0.9883 -14.0114 39.2455)" class="st12" width="15.7" height="0.1"/>
</g>
<g class="st21">
	
		<rect x="241.8" y="113.3" transform="matrix(0.9883 -0.1522 0.1522 0.9883 -14.3436 39.317)" class="st12" width="15.7" height="0.1"/>
</g>
<g class="st21">
	
		<rect x="242.1" y="115.5" transform="matrix(0.9883 -0.1522 0.1522 0.9883 -14.6758 39.3884)" class="st12" width="15.7" height="0.1"/>
</g>
<g class="st21">
	
		<rect x="283.9" y="98.5" transform="matrix(0.9883 -0.1522 0.1522 0.9883 -11.6509 44.9144)" class="st12" width="7.3" height="0.1"/>
</g>
<g class="st21">
	
		<rect x="284.3" y="100.6" transform="matrix(0.9883 -0.1522 0.1522 0.9883 -11.9648 44.9972)" class="st12" width="7.3" height="0.1"/>
</g>
<g class="st21">
	
		<rect x="284.6" y="102.8" transform="matrix(0.9883 -0.1522 0.1522 0.9883 -12.2971 45.0687)" class="st12" width="7.3" height="0.1"/>
</g>
<g class="st21">
	
		<rect x="284.9" y="105" transform="matrix(0.9883 -0.1522 0.1522 0.9883 -12.6293 45.1401)" class="st12" width="7.3" height="0.1"/>
</g>
<g class="st21">
	
		<rect x="285.3" y="107.2" transform="matrix(0.9883 -0.1522 0.1522 0.9883 -12.9581 45.2265)" class="st12" width="7.3" height="0.1"/>
</g>
<g class="st21">
	
		<rect x="285.6" y="109.4" transform="matrix(0.9883 -0.1522 0.1522 0.9883 -13.2903 45.2979)" class="st12" width="7.3" height="0.1"/>
</g>
<g>
	<g>
		<path class="st28" d="M235.8,118.2l4.8-0.7c0-0.1-0.1-0.3-0.1-0.4V117c-0.1-0.2-0.2-0.4-0.3-0.6c0,0,0,0-0.1-0.1
			c-0.2-0.2-0.3-0.4-0.5-0.5c0,0-0.1,0-0.1-0.1c-0.2-0.1-0.5-0.2-0.7-0.3h-0.1c-0.3-0.1-0.5-0.1-0.8,0l0,0l0,0
			c-0.3,0-0.5,0.1-0.7,0.2h-0.1c-0.2,0.1-0.4,0.3-0.6,0.5c0,0,0,0.1-0.1,0.1c-0.2,0.2-0.3,0.4-0.4,0.6v0.1c-0.1,0.2-0.1,0.4-0.1,0.7
			v0.1C235.8,117.9,235.8,118.1,235.8,118.2z"/>
	</g>
	<g>
		<path class="st29" d="M237.8,115.4l0.4,2.4h0.1L237.8,115.4C237.9,115.4,237.8,115.4,237.8,115.4L237.8,115.4z"/>
	</g>
	<g>
		<path class="st29" d="M238.4,117.8L238.4,117.8l0.4-2.4h-0.1L238.4,117.8z"/>
	</g>
	<g>
		<path class="st29" d="M238.7,117.8h0.1l0.8-2c0,0-0.1,0-0.1-0.1L238.7,117.8z"/>
	</g>
	<g>
		<path class="st29" d="M239,117.7h0.1l1-1.3c0,0,0,0-0.1-0.1L239,117.7z"/>
	</g>
	<g>
		<path class="st29" d="M239.7,117.6h0.2l0.7-0.5V117L239.7,117.6z"/>
	</g>
	<g>
		<path class="st29" d="M237,115.7l1,2.2h0.1L237,115.7L237,115.7z"/>
	</g>
	<g>
		<path class="st29" d="M236.3,116.3l1.3,1.6h0.1L236.3,116.3C236.4,116.2,236.3,116.3,236.3,116.3z"/>
	</g>
	<g>
		<path class="st29" d="M235.9,117l1.3,1h0.1L235.9,117C235.9,116.9,235.9,117,235.9,117z"/>
	</g>
	<g>
		<path class="st29" d="M235.8,117.8l0.8,0.3h0.2L235.8,117.8C235.8,117.7,235.8,117.7,235.8,117.8z"/>
	</g>
</g>
<g>
	<g>
		<path class="st28" d="M240.6,117.5l2.7-0.4c0-0.1,0-0.2-0.1-0.2c0,0,0,0,0-0.1s-0.1-0.2-0.2-0.3l0,0c-0.1-0.1-0.2-0.2-0.3-0.3l0,0
			c-0.1-0.1-0.3-0.1-0.4-0.2l0,0c-0.1,0-0.3,0-0.4,0l0,0l0,0c-0.1,0-0.3,0.1-0.4,0.1l0,0c-0.1,0.1-0.2,0.2-0.3,0.3l0,0
			c-0.1,0.1-0.2,0.2-0.2,0.3l0,0c0,0.1-0.1,0.2-0.1,0.4c0,0,0,0,0,0.1C240.6,117.3,240.6,117.4,240.6,117.5z"/>
	</g>
	<g>
		<path class="st29" d="M241.7,115.9l0.2,1.3h0.1L241.7,115.9C241.8,115.9,241.8,115.9,241.7,115.9L241.7,115.9z"/>
	</g>
	<g>
		<path class="st29" d="M242.1,117.2L242.1,117.2l0.2-1.3l0,0L242.1,117.2z"/>
	</g>
	<g>
		<path class="st29" d="M242.2,117.2L242.2,117.2l0.5-1.1l0,0L242.2,117.2z"/>
	</g>
	<g>
		<path class="st29" d="M242.4,117.2L242.4,117.2l0.6-0.7l0,0L242.4,117.2z"/>
	</g>
	<g>
		<path class="st29" d="M242.8,117.1L242.8,117.1l0.5-0.3c0,0,0,0,0-0.1L242.8,117.1z"/>
	</g>
	<g>
		<path class="st29" d="M241.3,116.1l0.5,1.2h0.1L241.3,116.1L241.3,116.1z"/>
	</g>
	<g>
		<path class="st29" d="M240.9,116.4l0.7,0.9h0.1L240.9,116.4L240.9,116.4z"/>
	</g>
	<g>
		<path class="st29" d="M240.7,116.8l0.7,0.5h0.1L240.7,116.8L240.7,116.8z"/>
	</g>
	<g>
		<path class="st29" d="M240.6,117.2l0.4,0.2h0.1L240.6,117.2L240.6,117.2z"/>
	</g>
</g>
<g>
	<g>
		<g>
			
				<rect x="246.8" y="111.1" transform="matrix(0.9883 -0.1522 0.1522 0.9883 -14.3394 38.8879)" class="st34" width="0.1" height="4"/>
		</g>
		<g>
			
				<rect x="246.6" y="111.6" transform="matrix(0.5125 -0.8587 0.8587 0.5125 24.4701 266.3693)" class="st34" width="0.4" height="0.1"/>
		</g>
		<g>
			
				<rect x="246.7" y="112.1" transform="matrix(0.5969 -0.8023 0.8023 0.5969 9.5761 243.4463)" class="st34" width="0.7" height="0.1"/>
		</g>
		<g>
			
				<rect x="246.7" y="112.7" transform="matrix(0.6184 -0.7859 0.7859 0.6184 5.732 237.2862)" class="st34" width="0.9" height="0.1"/>
		</g>
		<g>
			<path class="st34" d="M246.6,111c0.1,0,0.1,0,0.1,0.1s0,0.1-0.1,0.1s-0.1,0-0.1-0.1C246.4,111.1,246.5,111,246.6,111z"/>
		</g>
		<g>
			<circle class="st34" cx="246.9" cy="111.4" r="0.1"/>
		</g>
		<g>
			<path class="st34" d="M247.2,111.8c0.1,0,0.1,0,0.1,0.1s0,0.1-0.1,0.1s-0.1,0-0.1-0.1C247.1,111.8,247.1,111.8,247.2,111.8z"/>
		</g>
		<g>
			<path class="st34" d="M247.4,112.2c0.1,0,0.1,0,0.1,0.1s0,0.1-0.1,0.1s-0.1,0-0.1-0.1S247.3,112.2,247.4,112.2z"/>
		</g>
		<g>
			
				<rect x="246.8" y="113.3" transform="matrix(0.6263 -0.7796 0.7796 0.6263 4.0949 235.1885)" class="st34" width="1.1" height="0.1"/>
		</g>
		<g>
			<path class="st34" d="M247.6,112.8c0.1,0,0.1,0,0.1,0.1s0,0.1-0.1,0.1s-0.1,0-0.1-0.1S247.6,112.8,247.6,112.8z"/>
		</g>
		<g>
			
				<rect x="246.9" y="113.9" transform="matrix(0.6264 -0.7795 0.7795 0.6264 3.62 235.4479)" class="st34" width="1.1" height="0.1"/>
		</g>
		<g>
			<path class="st34" d="M247.7,113.4c0.1,0,0.1,0,0.1,0.1s0,0.1-0.1,0.1s-0.1,0-0.1-0.1C247.6,113.5,247.7,113.4,247.7,113.4z"/>
		</g>
		<g>
			
				<rect x="246.5" y="111.5" transform="matrix(0.6647 -0.7471 0.7471 0.6647 -0.7633 221.66)" class="st34" width="0.1" height="0.4"/>
		</g>
		<g>
			
				<rect x="246.5" y="111.9" transform="matrix(0.5855 -0.8107 0.8107 0.5855 11.2044 246.3812)" class="st34" width="0.1" height="0.7"/>
		</g>
		<g>
			
				<rect x="246.5" y="112.3" transform="matrix(0.5633 -0.8263 0.8263 0.5633 14.4868 253.0058)" class="st34" width="0.1" height="0.9"/>
		</g>
		<g>
			<path class="st34" d="M246.4,111.4c0.1,0,0.1,0,0.1,0.1s0,0.1-0.1,0.1s-0.1,0-0.1-0.1S246.3,111.4,246.4,111.4z"/>
		</g>
		<g>
			<path class="st34" d="M246.2,111.9c0.1,0,0.1,0,0.1,0.1s0,0.1-0.1,0.1s-0.1,0-0.1-0.1C246.1,112,246.1,111.9,246.2,111.9z"/>
		</g>
		<g>
			<path class="st34" d="M246.1,112.4c0.1,0,0.1,0,0.1,0.1s0,0.1-0.1,0.1s-0.1,0-0.1-0.1L246.1,112.4z"/>
		</g>
		<g>
			
				<rect x="246.5" y="112.9" transform="matrix(0.555 -0.8319 0.8319 0.555 15.3561 255.5993)" class="st34" width="0.1" height="1.1"/>
		</g>
		<g>
			<path class="st34" d="M246.1,113c0.1,0,0.1,0,0.1,0.1s0,0.1-0.1,0.1s-0.1,0-0.1-0.1C246,113.1,246,113,246.1,113z"/>
		</g>
		<g>
			
				<rect x="246.6" y="113.5" transform="matrix(0.5552 -0.8317 0.8317 0.5552 14.8271 255.8597)" class="st34" width="0.1" height="1.1"/>
		</g>
		<g>
			<path class="st34" d="M246.2,113.6c0.1,0,0.1,0,0.1,0.1s0,0.1-0.1,0.1s-0.1,0-0.1-0.1C246.1,113.7,246.1,113.6,246.2,113.6z"/>
		</g>
		<g>
			<path class="st34" d="M247.2,115.1h-0.3c-0.2,0-0.5-0.1-0.7-0.3c-0.5-0.4-0.7-0.9-0.7-0.9s0.6,0,1.1,0.4
				C246.9,114.6,247.1,114.9,247.2,115.1z"/>
		</g>
		<g>
			<path class="st34" d="M248.5,113.5c0,0,0,0.6-0.4,1.1c-0.2,0.2-0.4,0.4-0.6,0.5h-0.3c0-0.2,0.1-0.6,0.3-1
				C247.9,113.7,248.5,113.5,248.5,113.5z"/>
		</g>
	</g>
	
		<rect x="245.7" y="114.8" transform="matrix(0.9883 -0.1522 0.1522 0.9883 -14.7133 38.9851)" class="st15" width="3.2" height="1.6"/>
</g>
<g>
	<g>
		<path class="st34" d="M288.4,106.8c-0.1-0.6-0.2-1.1,0.3-1.2c0.4,0,0.5,0.2,0.6,0.6s0.2,0.6,0.5,0.6s0.6,0.3,0.4,1
			c-0.1,0.3-0.2,0.6-0.3,0.7l-1.7,0.3c-0.2-0.2-0.7-0.8-0.4-1.2C288.1,107.1,288.5,107.5,288.4,106.8z"/>
		<g>
			
				<rect x="289" y="107" transform="matrix(0.9883 -0.1522 0.1522 0.9883 -13.0406 45.2497)" class="st33" width="0.1" height="1.6"/>
		</g>
		<g>
			
				<rect x="288.8" y="107.7" transform="matrix(0.6992 -0.7149 0.7149 0.6992 9.6456 239.0247)" class="st33" width="0.1" height="0.7"/>
		</g>
		<g>
			
				<rect x="288.9" y="107.4" transform="matrix(0.5018 -0.865 0.865 0.5018 51.1505 303.689)" class="st33" width="0.6" height="0.1"/>
		</g>
	</g>
	
		<rect x="288" y="108.6" transform="matrix(0.9883 -0.1522 0.1522 0.9883 -13.2661 45.2978)" class="st15" width="2.5" height="1.4"/>
</g>
<rect x="187" y="117" transform="matrix(0.9883 -0.1522 0.1522 0.9883 -15.3196 38.4813)" class="st15" width="113.4" height="4.6"/>
<rect x="198.1" y="121.8" transform="matrix(0.9883 -0.1522 0.1522 0.9883 -16.5161 33.1389)" class="st1" width="20.2" height="5.3"/>
<rect x="197.9" y="122.9" transform="matrix(0.9883 -0.1522 0.1522 0.9883 -16.3054 33.0911)" class="st24" width="20.2" height="0.3"/>
<rect x="198.2" y="124.7" transform="matrix(0.9883 -0.1522 0.1522 0.9883 -16.5755 33.1575)" class="st24" width="20.2" height="0.3"/>
<rect x="198.5" y="126.6" transform="matrix(0.9883 -0.1522 0.1522 0.9883 -16.8611 33.2248)" class="st24" width="20.2" height="0.3"/>
<g class="st9">
	<polygon class="st12" points="189.5,102.9 229.4,96.8 211.5,121.3 207.1,127.2 198.6,128.6 198,124 192.9,124.8 	"/>
</g>
<path class="st35" d="M175.2,137c19.8,1.4,39.6,0,59-4.3c33.8-7.1,41.1-12,75.5-18.1c5-0.9,4.2-5.3-0.7-4.5l-132.3,22.6
	C172.8,133.7,175.2,137,175.2,137z"/>
</svg>
