<?xml version="1.0" encoding="utf-8"?>
<svg version="1.1" id="Warstwa_3" xmlns="http://www.w3.org/2000/svg" xmlns:xlink="http://www.w3.org/1999/xlink" x="0px" y="0px"
	 viewBox="0 0 319.5 276.4" style="enable-background:new 0 0 319.5 276.4;" xml:space="preserve">
<style type="text/css">
	.st0{fill:url(#SVGID_1_);stroke:#FFFFFF;stroke-width:2;stroke-miterlimit:10;}
	.st1{fill:#4D5963;}
	.st2{fill:#E8E8E8;}
	.st3{fill:#EDEDED;}
	.st4{fill:#75CCF4;}
	.st5{fill:#313A40;}
	.st6{opacity:0.56;}
	.st7{fill:#6C8D9E;}
	.st8{opacity:0.2;}
	.st9{fill:#1D1D1B;}
	.st10{fill:#95ABBF;}
	.st11{opacity:0.4;}
	.st12{fill:#FFFFFF;}
	.st13{fill:#E6E7E8;}
	.st14{fill:#576570;}
	.st15{fill:#191E28;}
	.st16{opacity:0.3;}
	.st17{opacity:0.55;}
	.st18{fill:#7BA0B3;}
	.st19{opacity:0.7;}
	.st20{fill:#434E57;}
	.st21{fill:#8FA5B8;}
	.st22{opacity:0.5;}
	.st23{fill:#879BAD;}
	.st24{fill:#03601F;}
	.st25{fill:#084F15;}
	.st26{fill:#E6A85E;}
	.st27{fill:#E8882C;}
	.st28{fill:#687007;}
	.st29{fill:#074010;}
	.st30{fill:#61731A;}
	.st31{fill:#76A427;}
</style>
<linearGradient id="SVGID_1_" gradientUnits="userSpaceOnUse" x1="189.9279" y1="-449.2384" x2="291.8803" y2="-335.9858" gradientTransform="matrix(1 0 0 -1 0 -290.1102)">
	<stop  offset="0" style="stop-color:#E1E1E1"/>
	<stop  offset="1" style="stop-color:#FFFFFF"/>
</linearGradient>
<polygon class="st0" points="164.8,64.9 301.6,43.8 317.1,139.9 180.4,161 "/>
<g>
	
		<rect x="221.1" y="101.7" transform="matrix(0.9883 -0.1522 0.1522 0.9883 -14.3941 36.5406)" class="st1" width="20.8" height="21.1"/>
	
		<rect x="220.7" y="109.6" transform="matrix(0.9883 -0.1522 0.1522 0.9883 -14.0936 36.4592)" class="st2" width="20.8" height="1.4"/>
	<rect x="249" y="90" transform="matrix(0.9883 -0.1522 0.1522 0.9883 -12.6087 42.2163)" class="st3" width="40.8" height="26.9"/>
	<polygon class="st4" points="248,98.4 288.3,92.2 288.8,95.3 248.5,101.5 	"/>
	
		<rect x="247.8" y="95.3" transform="matrix(0.9883 -0.1522 0.1522 0.9883 -11.4036 41.9342)" class="st5" width="40.8" height="0.4"/>
	<polygon class="st4" points="249.3,106.8 282.7,101.7 284.7,114.7 251.3,119.9 	"/>
	<g class="st6">
		
			<rect x="249.1" y="104.2" transform="matrix(0.9883 -0.1522 0.1522 0.9883 -12.8587 41.7169)" class="st7" width="33.9" height="1.2"/>
	</g>
	<g class="st8">
		
			<rect x="247.9" y="95.3" transform="matrix(0.9883 -0.1522 0.1522 0.9883 -11.4679 41.9537)" class="st9" width="40.8" height="1.2"/>
	</g>
	
		<rect x="283.7" y="101" transform="matrix(0.9883 -0.1522 0.1522 0.9883 -13.0336 44.9651)" class="st10" width="7.1" height="13.3"/>
	
		<rect x="242.3" y="106.8" transform="matrix(0.9883 -0.1522 0.1522 0.9883 -14.3555 39.3343)" class="st10" width="15" height="13.3"/>
	
		<rect x="229.6" y="88.5" transform="matrix(0.9883 -0.1522 0.1522 0.9883 -10.6331 40.7434)" class="st1" width="62.5" height="2.7"/>
	<rect x="228" y="79.6" transform="matrix(0.9883 -0.1522 0.1522 0.9883 -9.4579 38.3533)" class="st1" width="35.5" height="2.7"/>
	
		<rect x="185.1" y="81" transform="matrix(0.9883 -0.1522 0.1522 0.9883 -10.1041 32.5831)" class="st1" width="45.3" height="2.7"/>
	<polygon class="st4" points="228.4,85 259.2,80.3 260.5,88.5 229.8,93.3 	"/>
	<g class="st8">
		<path class="st9" d="M275.4,108.4l8.2-1.2l1.1,7.6l-15.7,2.4l0,0C268.3,113,271.3,109,275.4,108.4z"/>
	</g>
	<polygon class="st4" points="230.3,97.2 247.4,94.5 249.3,106.8 232.2,109.4 	"/>
	<g>
		<rect x="254.4" y="81" transform="matrix(0.9883 -0.1522 0.1522 0.9883 -10.0091 39.739)" class="st5" width="0.4" height="8.4"/>
		
			<rect x="247.6" y="82" transform="matrix(0.9883 -0.1522 0.1522 0.9883 -10.2331 38.7193)" class="st5" width="0.4" height="8.4"/>
		
			<rect x="240.9" y="83.1" transform="matrix(0.9883 -0.1522 0.1522 0.9883 -10.4706 37.7152)" class="st5" width="0.4" height="8.4"/>
		
			<rect x="234.2" y="84.1" transform="matrix(0.9883 -0.1522 0.1522 0.9883 -10.7081 36.7111)" class="st5" width="0.4" height="8.4"/>
	</g>
	<g>
		<g class="st11">
			<rect x="254" y="81" transform="matrix(0.9883 -0.1522 0.1522 0.9883 -10.0135 39.681)" class="st7" width="0.4" height="8.4"/>
		</g>
		<g class="st11">
			
				<rect x="247.3" y="82.1" transform="matrix(0.9883 -0.1522 0.1522 0.9883 -10.251 38.6769)" class="st7" width="0.4" height="8.4"/>
		</g>
		<g class="st11">
			
				<rect x="240.6" y="83.1" transform="matrix(0.9883 -0.1522 0.1522 0.9883 -10.4885 37.6728)" class="st7" width="0.4" height="8.4"/>
		</g>
		<g class="st11">
			
				<rect x="233.9" y="84.2" transform="matrix(0.9883 -0.1522 0.1522 0.9883 -10.7271 36.6542)" class="st7" width="0.4" height="8.4"/>
		</g>
	</g>
	<g>
		
			<rect x="276.6" y="102.6" transform="matrix(0.9883 -0.1522 0.1522 0.9883 -13.4016 43.4015)" class="st5" width="0.4" height="13.3"/>
		<polygon class="st5" points="277.6,115.9 277.9,115.8 277.9,115.8 		"/>
		
			<rect x="256.4" y="105.7" transform="matrix(0.9883 -0.1522 0.1522 0.9883 -12.9678 42.2948)" class="st5" width="26.8" height="0.4"/>
		
			<rect x="256.7" y="107.6" transform="matrix(0.9883 -0.1522 0.1522 0.9883 -13.2549 42.3606)" class="st5" width="26.8" height="0.4"/>
		
			<rect x="256.1" y="103.7" transform="matrix(0.9883 -0.1522 0.1522 0.9883 -12.6663 42.228)" class="st5" width="26.8" height="0.4"/>
		
			<rect x="266.9" y="104.1" transform="matrix(0.9883 -0.1522 0.1522 0.9883 -13.7472 41.9383)" class="st5" width="0.4" height="13.3"/>
		<polygon class="st5" points="267.8,117.3 268.2,117.3 268.2,117.3 		"/>
		
			<rect x="257" y="105.7" transform="matrix(0.9883 -0.1522 0.1522 0.9883 -14.094 40.4606)" class="st5" width="0.4" height="13.3"/>
		<polygon class="st5" points="258.1,118.8 258.5,118.8 258.5,118.8 		"/>
	</g>
	
		<rect x="230.3" y="94.6" transform="matrix(0.9883 -0.1522 0.1522 0.9883 -11.8532 37.4925)" class="st12" width="17.3" height="3.1"/>
	<g>
		
			<rect x="244.6" y="96.9" transform="matrix(0.9883 -0.1522 0.1522 0.9883 -12.6922 38.4548)" class="st5" width="0.4" height="10.5"/>
		
			<rect x="230.5" y="97.7" transform="matrix(0.9883 -0.1522 0.1522 0.9883 -12.1195 37.5421)" class="st5" width="17.3" height="0.4"/>
		
			<rect x="230.9" y="99.7" transform="matrix(0.9883 -0.1522 0.1522 0.9883 -12.42 37.6235)" class="st5" width="17.3" height="0.4"/>
		
			<rect x="239.8" y="97.6" transform="matrix(0.9883 -0.1522 0.1522 0.9883 -12.8651 37.7233)" class="st5" width="0.4" height="10.5"/>
		
			<rect x="234.8" y="98.4" transform="matrix(0.9883 -0.1522 0.1522 0.9883 -13.039 36.9772)" class="st5" width="0.4" height="10.5"/>
	</g>
	
		<rect x="196.5" y="105.2" transform="matrix(0.9883 -0.1522 0.1522 0.9883 -15.1801 33.1396)" class="st12" width="24.8" height="21.1"/>
	<polygon class="st12" points="198.3,128.1 222.8,124.3 222.8,124.3 	"/>
	
		<rect x="189.6" y="83.5" transform="matrix(0.9883 -0.1522 0.1522 0.9883 -11.89 33.0046)" class="st12" width="40.1" height="21.3"/>
	
		<rect x="193" y="86.7" transform="matrix(0.9883 -0.1522 0.1522 0.9883 -12.1268 33.0592)" class="st13" width="33.7" height="18.1"/>
	<polygon class="st4" points="194.8,91.6 223,87.3 225.4,102.5 197.1,106.9 	"/>
	<g class="st8">
		<path class="st9" d="M215.5,93.2l8.3-1.2l1,6.6l-14.2,2.1l-0.1-0.7C210,96.7,212.2,93.6,215.5,93.2z"/>
	</g>
	<polygon class="st4" points="221,112.6 241.5,109.5 243.3,121.1 222.8,124.3 	"/>
	
		<rect x="230.1" y="113.1" transform="matrix(0.9883 -0.1522 0.1522 0.9883 -15.2412 36.7296)" class="st14" width="4.3" height="9.6"/>
	
		<rect x="194.6" y="107.2" transform="matrix(0.9883 -0.1522 0.1522 0.9883 -15.6384 31.1594)" class="st1" width="2.3" height="21.1"/>
	<polygon class="st1" points="196.2,128.4 198.5,128 198.5,128 	"/>
	<g>
		
			<rect x="282.6" y="93.1" transform="matrix(0.9883 -0.1522 0.1522 0.9883 -11.1029 44.1455)" class="st5" width="0.4" height="3.1"/>
		
			<rect x="276.9" y="93.9" transform="matrix(0.9883 -0.1522 0.1522 0.9883 -11.3003 43.2844)" class="st5" width="0.4" height="3.1"/>
		
			<rect x="271.1" y="94.8" transform="matrix(0.9883 -0.1522 0.1522 0.9883 -11.4987 42.4088)" class="st5" width="0.4" height="3.1"/>
		
			<rect x="265.3" y="95.7" transform="matrix(0.9883 -0.1522 0.1522 0.9883 -11.7106 41.5488)" class="st5" width="0.4" height="3.1"/>
		
			<rect x="259.5" y="96.6" transform="matrix(0.9883 -0.1522 0.1522 0.9883 -11.909 40.6731)" class="st5" width="0.4" height="3.1"/>
		
			<rect x="253.8" y="97.5" transform="matrix(0.9883 -0.1522 0.1522 0.9883 -12.1064 39.812)" class="st5" width="0.4" height="3.1"/>
	</g>
	<g class="st11">
		
			<rect x="218.7" y="88" transform="matrix(0.9883 -0.1522 0.1522 0.9883 -11.7023 34.4068)" class="st7" width="0.4" height="11.3"/>
		
			<rect x="212.4" y="89" transform="matrix(0.9883 -0.1522 0.1522 0.9883 -11.9209 33.4597)" class="st7" width="0.4" height="11.3"/>
		
			<rect x="206" y="89.9" transform="matrix(0.9883 -0.1522 0.1522 0.9883 -12.1405 32.4981)" class="st7" width="0.4" height="11.3"/>
		
			<rect x="199.7" y="90.9" transform="matrix(0.9883 -0.1522 0.1522 0.9883 -12.3591 31.551)" class="st7" width="0.4" height="11.3"/>
	</g>
	<g>
		
			<rect x="219.1" y="87.9" transform="matrix(0.9883 -0.1522 0.1522 0.9883 -11.6834 34.4638)" class="st5" width="0.4" height="11.3"/>
		
			<rect x="212.7" y="88.9" transform="matrix(0.9883 -0.1522 0.1522 0.9883 -11.903 33.5022)" class="st5" width="0.4" height="11.3"/>
		
			<rect x="206.4" y="89.9" transform="matrix(0.9883 -0.1522 0.1522 0.9883 -12.1361 32.5561)" class="st5" width="0.4" height="11.3"/>
		
			<rect x="200.1" y="90.9" transform="matrix(0.9883 -0.1522 0.1522 0.9883 -12.3547 31.609)" class="st5" width="0.4" height="11.3"/>
	</g>
	<g>
		
			<rect x="238.8" y="110" transform="matrix(0.9883 -0.1522 0.1522 0.9883 -14.8507 37.7292)" class="st5" width="0.4" height="11.8"/>
		
			<rect x="234.2" y="110.6" transform="matrix(0.9883 -0.1522 0.1522 0.9883 -15.0057 37.0401)" class="st5" width="0.4" height="11.8"/>
		
			<rect x="229.7" y="111.3" transform="matrix(0.9883 -0.1522 0.1522 0.9883 -15.1607 36.351)" class="st5" width="0.4" height="11.8"/>
		
			<rect x="225.1" y="112" transform="matrix(0.9883 -0.1522 0.1522 0.9883 -15.3302 35.663)" class="st5" width="0.4" height="11.8"/>
	</g>
	
		<rect x="227.7" y="109.1" transform="matrix(0.9883 -0.1522 0.1522 0.9883 -13.9805 36.9835)" class="st12" width="13.8" height="1.4"/>
	
		<rect x="194.7" y="89.4" transform="matrix(0.9883 -0.1522 0.1522 0.9883 -11.2082 32.8502)" class="st5" width="28.6" height="0.4"/>
	
		<rect x="195.2" y="93.4" transform="matrix(0.9883 -0.1522 0.1522 0.9883 -11.7968 32.9829)" class="st5" width="28.6" height="0.4"/>
	
		<rect x="194.9" y="91.4" transform="matrix(0.9883 -0.1522 0.1522 0.9883 -11.5097 32.9171)" class="st5" width="28.6" height="0.4"/>
	
		<rect x="228.6" y="84.4" transform="matrix(0.9883 -0.1522 0.1522 0.9883 -10.0285 38.1487)" class="st5" width="31.1" height="0.4"/>
	
		<rect x="228.8" y="86" transform="matrix(0.9883 -0.1522 0.1522 0.9883 -10.2731 38.1967)" class="st5" width="31.1" height="0.4"/>
	
		<rect x="221.2" y="112.8" transform="matrix(0.9883 -0.1522 0.1522 0.9883 -14.5019 36.5634)" class="st5" width="20.8" height="0.4"/>
	<g class="st8">
		
			<rect x="228.5" y="82.6" transform="matrix(0.9883 -0.1522 0.1522 0.9883 -9.9353 38.127)" class="st9" width="31.1" height="2.8"/>
	</g>
	<g class="st8">
		
			<rect x="188.1" y="83.6" transform="matrix(0.9883 -0.1522 0.1522 0.9883 -10.4269 32.6589)" class="st15" width="40.1" height="1.6"/>
	</g>
	<g class="st8">
		
			<rect x="229.9" y="91.5" transform="matrix(0.9883 -0.1522 0.1522 0.9883 -11.039 40.497)" class="st15" width="58.1" height="1.6"/>
	</g>
	<g class="st8">
		
			<rect x="230.6" y="97.7" transform="matrix(0.9883 -0.1522 0.1522 0.9883 -12.191 37.5621)" class="st9" width="17.3" height="1.3"/>
	</g>
	<g class="st16">
		<rect x="246.5" y="93.4" transform="matrix(0.9883 -0.1522 0.1522 0.9883 -12.3646 38.8241)" width="1.7" height="13.6"/>
	</g>
	<g class="st17">
		
			<rect x="240.6" y="108" transform="matrix(0.9883 -0.1522 0.1522 0.9883 -14.6404 38.0929)" class="st18" width="1.7" height="13.3"/>
	</g>
	<g class="st19">
		
			<rect x="192.8" y="104.6" transform="matrix(0.9883 -0.1522 0.1522 0.9883 -13.5743 33.5132)" class="st7" width="38.5" height="1.6"/>
	</g>
	<g class="st8">
		
			<rect x="228" y="110.5" transform="matrix(0.9883 -0.1522 0.1522 0.9883 -14.3753 37.0722)" class="st9" width="13.8" height="3.8"/>
	</g>
	<g>
		
			<rect x="199.7" y="110.9" transform="matrix(0.9883 -0.1522 0.1522 0.9883 -15.6102 33.2456)" class="st1" width="19.3" height="15.4"/>
		
			<rect x="198.8" y="112.5" transform="matrix(0.9883 -0.1522 0.1522 0.9883 -14.7211 33.0315)" class="st20" width="19.3" height="0.3"/>
		
			<rect x="199" y="114.2" transform="matrix(0.9883 -0.1522 0.1522 0.9883 -14.9791 33.0951)" class="st20" width="19.3" height="0.3"/>
		
			<rect x="199.3" y="116" transform="matrix(0.9883 -0.1522 0.1522 0.9883 -15.2371 33.1586)" class="st20" width="19.3" height="0.3"/>
		
			<rect x="199.6" y="117.8" transform="matrix(0.9883 -0.1522 0.1522 0.9883 -15.5097 33.2233)" class="st20" width="19.3" height="0.3"/>
		
			<rect x="199.9" y="119.5" transform="matrix(0.9883 -0.1522 0.1522 0.9883 -15.7677 33.2868)" class="st20" width="19.3" height="0.3"/>
		
			<rect x="200.1" y="121.2" transform="matrix(0.9883 -0.1522 0.1522 0.9883 -16.0267 33.3359)" class="st20" width="19.3" height="0.3"/>
		
			<rect x="200.4" y="122.9" transform="matrix(0.9883 -0.1522 0.1522 0.9883 -16.2848 33.3994)" class="st20" width="19.3" height="0.3"/>
		
			<rect x="200.7" y="124.8" transform="matrix(0.9883 -0.1522 0.1522 0.9883 -16.5718 33.4652)" class="st20" width="19.3" height="0.3"/>
	</g>
	<g class="st8">
		
			<rect x="194.8" y="89.4" transform="matrix(0.9883 -0.1522 0.1522 0.9883 -11.4165 32.8954)" class="st9" width="28.6" height="3.1"/>
	</g>
	
		<rect x="227.1" y="105.8" transform="matrix(0.9883 -0.1522 0.1522 0.9883 -13.3446 37.4679)" class="st21" width="21.9" height="0.3"/>
	
		<rect x="227.5" y="107.2" transform="matrix(0.9883 -0.1522 0.1522 0.9883 -13.5446 37.527)" class="st2" width="21.7" height="0.1"/>
	
		<rect x="227.6" y="107.8" transform="matrix(0.9883 -0.1522 0.1522 0.9883 -13.6306 37.5482)" class="st2" width="21.7" height="0.1"/>
	<g>
		
			<rect x="248.1" y="104.5" transform="matrix(0.9883 -0.1522 0.1522 0.9883 -13.1978 39.0047)" class="st2" width="0.2" height="2.4"/>
		
			<rect x="246.4" y="104.8" transform="matrix(0.9883 -0.1522 0.1522 0.9883 -13.2614 38.7467)" class="st2" width="0.2" height="2.4"/>
		
			<rect x="244.6" y="105.1" transform="matrix(0.9883 -0.1522 0.1522 0.9883 -13.3249 38.4887)" class="st2" width="0.2" height="2.4"/>
		
			<rect x="242.9" y="105.3" transform="matrix(0.9883 -0.1522 0.1522 0.9883 -13.3739 38.2296)" class="st2" width="0.2" height="2.4"/>
		
			<rect x="241.2" y="105.6" transform="matrix(0.9883 -0.1522 0.1522 0.9883 -13.4375 37.9716)" class="st2" width="0.2" height="2.4"/>
		
			<rect x="239.5" y="105.8" transform="matrix(0.9883 -0.1522 0.1522 0.9883 -13.5011 37.7136)" class="st2" width="0.2" height="2.4"/>
		
			<rect x="237.8" y="106.1" transform="matrix(0.9883 -0.1522 0.1522 0.9883 -13.5646 37.4555)" class="st2" width="0.2" height="2.4"/>
		
			<rect x="236.1" y="106.3" transform="matrix(0.9883 -0.1522 0.1522 0.9883 -13.6137 37.1965)" class="st2" width="0.2" height="2.4"/>
		
			<rect x="234.3" y="106.6" transform="matrix(0.9883 -0.1522 0.1522 0.9883 -13.6772 36.9384)" class="st2" width="0.2" height="2.4"/>
		
			<rect x="232.6" y="106.9" transform="matrix(0.9883 -0.1522 0.1522 0.9883 -13.7408 36.6804)" class="st2" width="0.2" height="2.4"/>
		
			<rect x="230.9" y="107.2" transform="matrix(0.9883 -0.1522 0.1522 0.9883 -13.8043 36.4224)" class="st2" width="0.2" height="2.4"/>
		
			<rect x="229.2" y="107.4" transform="matrix(0.9883 -0.1522 0.1522 0.9883 -13.8534 36.1633)" class="st2" width="0.2" height="2.4"/>
		
			<rect x="227.6" y="107.7" transform="matrix(0.9883 -0.1522 0.1522 0.9883 -13.9159 35.9198)" class="st2" width="0.2" height="2.4"/>
	</g>
	<g class="st8">
		<polygon class="st9" points="247.2,93.4 235.9,108.8 249.3,106.8 		"/>
	</g>
	<g class="st22">
		<path class="st7" d="M196.2,128.4l11.7-1.8L196.2,128.4z"/>
	</g>
	<g class="st8">
		<polygon class="st9" points="241.5,109.5 243.3,121.1 231.7,122.9 		"/>
	</g>
	
		<rect x="190.8" y="100.6" transform="matrix(0.9883 -0.1522 0.1522 0.9883 -13.1677 33.2923)" class="st12" width="40.1" height="4.1"/>
	
		<rect x="284.5" y="112" transform="matrix(0.9883 -0.1522 0.1522 0.9883 -13.8657 45.1602)" class="st23" width="7.1" height="2.2"/>
	
		<rect x="243.1" y="118.3" transform="matrix(0.9883 -0.1522 0.1522 0.9883 -15.3002 39.0123)" class="st23" width="8.1" height="2.2"/>
	<polygon class="st23" points="243.3,121.1 251.3,119.9 251.3,119.9 	"/>
	<g class="st8">
		<rect x="282.3" y="101.7" transform="matrix(0.9883 -0.1522 0.1522 0.9883 -13.1836 44.3413)" width="1.4" height="13.3"/>
	</g>
	<path class="st12" d="M230.9,118.9L230.9,118.9c0.1,0,0.1-0.1,0.1-0.2l-0.1-0.7c0-0.1-0.1-0.1-0.2-0.1l0,0c-0.1,0-0.1,0.1-0.1,0.2
		l0.1,0.7C230.7,118.9,230.8,119,230.9,118.9z"/>
	
		<rect x="224.9" y="116.2" transform="matrix(0.9883 -0.1522 0.1522 0.9883 -15.0589 35.9635)" class="st5" width="5" height="0.4"/>
	
		<rect x="234.1" y="114.7" transform="matrix(0.9883 -0.1522 0.1522 0.9883 -14.7345 37.3406)" class="st5" width="5" height="0.4"/>
	<rect x="225.5" y="120.2" transform="matrix(0.9883 -0.1522 0.1522 0.9883 -15.662 36.0973)" class="st5" width="5" height="0.4"/>
	
		<rect x="234.6" y="118.7" transform="matrix(0.9883 -0.1522 0.1522 0.9883 -15.3376 37.4744)" class="st5" width="5" height="0.4"/>
	<g>
		<g>
			<path class="st24" d="M229,123.3l-4.6,0.7c0-0.1,0-0.3,0-0.4v-0.1c0-0.2,0.1-0.5,0.1-0.7v-0.1c0.1-0.2,0.2-0.4,0.4-0.6
				c0,0,0-0.1,0.1-0.1c0.2-0.2,0.4-0.4,0.6-0.5h0.1c0.2-0.1,0.5-0.2,0.7-0.2l0,0l0,0c0.3,0,0.5,0,0.8,0h0.1c0.3,0.1,0.5,0.1,0.7,0.3
				c0,0,0.1,0,0.1,0.1c0.2,0.1,0.4,0.3,0.5,0.5c0,0,0,0,0.1,0.1c0.1,0.2,0.3,0.4,0.3,0.6v0.1C229,123,229,123.2,229,123.3z"/>
		</g>
		<g>
			<path class="st25" d="M226.4,121.4l0.4,2.3h-0.1L226.4,121.4C226.3,121.4,226.3,121.4,226.4,121.4L226.4,121.4z"/>
		</g>
		<g>
			<path class="st25" d="M226.5,123.7L226.5,123.7l-1-2h0.1L226.5,123.7z"/>
		</g>
		<g>
			<path class="st25" d="M226.2,123.7L226.2,123.7l-1.3-1.5c0,0,0-0.1,0.1-0.1L226.2,123.7z"/>
		</g>
		<g>
			<path class="st25" d="M226,123.8L226,123.8l-1.3-1v-0.1L226,123.8z"/>
		</g>
		<g>
			<path class="st25" d="M225.3,123.9h-0.2l-0.8-0.3v-0.1L225.3,123.9z"/>
		</g>
		<g>
			<path class="st25" d="M227.3,121.4l-0.3,2.2h-0.1L227.3,121.4C227.2,121.4,227.2,121.4,227.3,121.4z"/>
		</g>
		<g>
			<path class="st25" d="M228,121.7l-0.8,1.9h-0.1L228,121.7L228,121.7z"/>
		</g>
		<g>
			<path class="st25" d="M228.6,122.3l-1,1.2h-0.1L228.6,122.3C228.5,122.2,228.5,122.3,228.6,122.3z"/>
		</g>
		<g>
			<path class="st25" d="M228.9,122.9l-0.7,0.5h-0.2L228.9,122.9C228.9,122.8,228.9,122.8,228.9,122.9z"/>
		</g>
	</g>
	<g>
		<g>
			<path class="st24" d="M224.4,124.1l-2.6,0.4c0-0.1,0-0.2,0-0.2s0,0,0-0.1s0-0.3,0.1-0.4l0,0c0-0.1,0.1-0.2,0.2-0.3l0,0
				c0.1-0.1,0.2-0.2,0.3-0.3l0,0c0.1-0.1,0.3-0.1,0.4-0.1l0,0l0,0c0.1,0,0.3,0,0.4,0l0,0c0.1,0,0.3,0.1,0.4,0.2l0,0
				c0.1,0.1,0.2,0.2,0.3,0.3l0,0c0.1,0.1,0.1,0.2,0.2,0.3c0,0,0,0,0,0.1C224.4,123.9,224.4,124,224.4,124.1z"/>
		</g>
		<g>
			<path class="st25" d="M223,122.9l0.2,1.2h-0.1L223,122.9C222.9,122.9,222.9,122.9,223,122.9C222.9,122.9,223,122.9,223,122.9z"/>
		</g>
		<g>
			<path class="st25" d="M223,124.3L223,124.3l-0.6-1.1l0,0L223,124.3z"/>
		</g>
		<g>
			<path class="st25" d="M222.9,124.3L222.9,124.3l-0.8-0.9l0,0L222.9,124.3z"/>
		</g>
		<g>
			<path class="st25" d="M222.7,124.3L222.7,124.3l-0.8-0.5l0,0L222.7,124.3z"/>
		</g>
		<g>
			<path class="st25" d="M222.3,124.4L222.3,124.4l-0.5-0.2c0,0,0,0,0-0.1L222.3,124.4z"/>
		</g>
		<g>
			<path class="st25" d="M223.4,122.9l-0.1,1.2h-0.1L223.4,122.9L223.4,122.9z"/>
		</g>
		<g>
			<path class="st25" d="M223.9,123.1l-0.4,1h-0.1L223.9,123.1L223.9,123.1z"/>
		</g>
		<g>
			<path class="st25" d="M224.1,123.4l-0.5,0.7h-0.1L224.1,123.4L224.1,123.4z"/>
		</g>
		<g>
			<path class="st25" d="M224.3,123.8l-0.4,0.3h-0.1L224.3,123.8L224.3,123.8z"/>
		</g>
	</g>
	<g>
		
			<rect x="196.2" y="115.6" transform="matrix(0.9883 -0.1522 0.1522 0.9883 -16.2773 31.3032)" class="st12" width="0.3" height="12.8"/>
		<polygon class="st26" points="194.7,114.6 195.2,114.5 195.3,115.6 195,115.7 		"/>
		<polygon class="st27" points="195.7,114.4 195.2,114.5 195.3,115.6 195.7,115.6 		"/>
		<path class="st12" d="M194.9,114.3l0.6-0.1c0.1,0,0.2,0.1,0.3,0.2l0,0l-1,0.2l0,0C194.7,114.4,194.8,114.3,194.9,114.3z"/>
	</g>
	<g>
		<g>
			<path class="st28" d="M192.6,126.6c0.3,0,0.1-0.3,0-0.6c-0.2-0.2-0.3-0.5-0.1-0.6c0.2-0.1,0.3-0.2,0.1-0.5
				c-0.3-0.4-0.1-0.8,0.2-0.6c0.3,0.1,0-0.7,0.1-0.9c0.2-0.3,0.5-0.2,0.6,0.2c0.1,0.5,0.4,0.1,0.5,0.3c0.2,0.3-0.2,0.8,0.1,0.8
				c0.3,0,0.3,0.3,0.2,0.5c-0.1,0.2-0.3,0.6,0.2,0.7c0.3,0.1,0,1,0,1.2l-1.5,0.3c0,0-0.1-0.2-0.3-0.4
				C192.3,126.7,192.2,126.6,192.6,126.6z"/>
			<g>
				
					<rect x="193.3" y="124.4" transform="matrix(0.9883 -0.1522 0.1522 0.9883 -16.8997 30.8981)" class="st29" width="0.1" height="3"/>
			</g>
			<g>
				
					<rect x="193" y="124.7" transform="matrix(0.6994 -0.7147 0.7147 0.6994 -31.3154 175.5822)" class="st29" width="0.1" height="0.6"/>
			</g>
			<g>
				
					<rect x="193.2" y="125.6" transform="matrix(0.4712 -0.882 0.882 0.4712 -8.5258 237.1515)" class="st29" width="0.6" height="0.1"/>
			</g>
			<g>
				
					<rect x="193.1" y="125.7" transform="matrix(0.7066 -0.7076 0.7076 0.7066 -32.5706 173.7051)" class="st29" width="0.1" height="0.9"/>
			</g>
			<g>
				
					<rect x="193.3" y="126.6" transform="matrix(0.4624 -0.8867 0.8867 0.4624 -8.1587 239.8933)" class="st29" width="0.9" height="0.1"/>
			</g>
		</g>
		
			<rect x="192.4" y="127.2" transform="matrix(0.9883 -0.1522 0.1522 0.9883 -17.2231 30.9667)" class="st12" width="2.6" height="1.5"/>
	</g>
	<g>
		<g>
			<g>
				<g>
					<path class="st30" d="M294.1,108c0.1,0.4-0.1,0.7-0.1,0.7s-0.3-0.3-0.3-0.6c0-0.3,0.1-0.7,0.1-0.7S294.1,107.6,294.1,108z"/>
				</g>
				<g>
					<path class="st30" d="M294.1,108.8c0,0-0.3,0-0.5-0.1s-0.4-0.3-0.4-0.3s0.3,0,0.5,0.1C293.9,108.5,294.1,108.8,294.1,108.8z"/>
				</g>
				<g>
					<path class="st30" d="M294.1,109.4c0,0-0.4,0.1-0.7-0.1c-0.4-0.2-0.5-0.5-0.5-0.5s0.4-0.1,0.7,0.1
						C294,109,294.1,109.4,294.1,109.4z"/>
				</g>
				<g>
					<path class="st30" d="M293.6,109.5c0.4,0.2,0.7,0.6,0.7,0.6s-0.5,0.1-0.9-0.1s-0.7-0.6-0.7-0.6S293.2,109.2,293.6,109.5z"/>
				</g>
				<g>
					<path class="st30" d="M293.6,110.1c0.5,0.2,0.8,0.7,0.8,0.7s-0.6,0.1-1-0.2c-0.5-0.2-0.8-0.7-0.8-0.7S293.1,109.9,293.6,110.1z
						"/>
				</g>
				<g>
					<path class="st30" d="M293.7,110.9c0.6,0.3,0.9,0.8,0.9,0.8s-0.6,0.1-1.1-0.2c-0.6-0.3-0.9-0.8-0.9-0.8
						S293.1,110.6,293.7,110.9z"/>
				</g>
				<g>
					<path class="st30" d="M294.3,108.3c0.2-0.2,0.5-0.2,0.5-0.2s-0.1,0.3-0.2,0.4s-0.5,0.2-0.5,0.2S294.1,108.5,294.3,108.3z"/>
				</g>
				<g>
					<path class="st30" d="M294.4,108.7c0.3-0.3,0.7-0.3,0.7-0.3s-0.1,0.4-0.3,0.7c-0.3,0.3-0.7,0.3-0.7,0.3S294.2,109,294.4,108.7z
						"/>
				</g>
				<g>
					<path class="st30" d="M294.6,109.3c0.4-0.3,0.8-0.4,0.8-0.4s-0.1,0.5-0.4,0.8c-0.4,0.3-0.8,0.4-0.8,0.4
						S294.3,109.6,294.6,109.3z"/>
				</g>
				<g>
					<path class="st30" d="M294.8,109.9c0.4-0.4,1-0.5,1-0.5s-0.1,0.6-0.5,0.9c-0.4,0.4-1,0.5-1,0.5S294.4,110.2,294.8,109.9z"/>
				</g>
				<g>
					<path class="st30" d="M295,110.6c0.5-0.4,1-0.5,1-0.5s-0.1,0.6-0.6,1c-0.5,0.4-1,0.5-1,0.5S294.5,111,295,110.6z"/>
				</g>
			</g>
			<g>
				<polygon class="st30" points="294,108.5 294,108.5 294.5,112 294.5,112 				"/>
			</g>
		</g>
		
			<rect x="293" y="111.4" transform="matrix(0.9883 -0.1522 0.1522 0.9883 -13.6662 46.1453)" class="st12" width="3.1" height="1.9"/>
	</g>
</g>
<g class="st16">
	
		<rect x="241.6" y="109" transform="matrix(0.9883 -0.1522 0.1522 0.9883 -13.6954 39.1815)" class="st15" width="15" height="0.1"/>
</g>
<g class="st16">
	
		<rect x="241.9" y="111.1" transform="matrix(0.9883 -0.1522 0.1522 0.9883 -14.0115 39.2495)" class="st15" width="15" height="0.1"/>
</g>
<g class="st16">
	
		<rect x="242.2" y="113.2" transform="matrix(0.9883 -0.1522 0.1522 0.9883 -14.3275 39.3175)" class="st15" width="15" height="0.1"/>
</g>
<g class="st16">
	
		<rect x="242.5" y="115.3" transform="matrix(0.9883 -0.1522 0.1522 0.9883 -14.6425 39.4001)" class="st15" width="15" height="0.1"/>
</g>
<g class="st16">
	
		<rect x="242.8" y="117.4" transform="matrix(0.9883 -0.1522 0.1522 0.9883 -14.9586 39.4681)" class="st15" width="15" height="0.1"/>
</g>
<g class="st16">
	
		<rect x="243.1" y="119.5" transform="matrix(0.9883 -0.1522 0.1522 0.9883 -15.2747 39.5361)" class="st15" width="15" height="0.1"/>
</g>
<g class="st16">
	<rect x="283" y="103.3" transform="matrix(0.9883 -0.1522 0.1522 0.9883 -12.3886 44.8062)" class="st15" width="7" height="0.1"/>
</g>
<g class="st16">
	
		<rect x="283.4" y="105.3" transform="matrix(0.9883 -0.1522 0.1522 0.9883 -12.689 44.8876)" class="st15" width="7" height="0.1"/>
</g>
<g class="st16">
	
		<rect x="283.7" y="107.4" transform="matrix(0.9883 -0.1522 0.1522 0.9883 -13.0051 44.9556)" class="st15" width="7" height="0.1"/>
</g>
<g class="st16">
	
		<rect x="283.9" y="109.5" transform="matrix(0.9883 -0.1522 0.1522 0.9883 -13.3211 45.0236)" class="st15" width="7" height="0.1"/>
</g>
<g class="st16">
	
		<rect x="284.3" y="111.6" transform="matrix(0.9883 -0.1522 0.1522 0.9883 -13.6361 45.1062)" class="st15" width="7" height="0.1"/>
</g>
<g class="st16">
	
		<rect x="284.6" y="113.7" transform="matrix(0.9883 -0.1522 0.1522 0.9883 -13.9522 45.1742)" class="st15" width="7" height="0.1"/>
</g>
<g>
	<g>
		<path class="st24" d="M237.1,122.1l4.6-0.7c0-0.1-0.1-0.3-0.1-0.4v-0.1c-0.1-0.2-0.2-0.4-0.3-0.6c0,0,0,0-0.1-0.1
			c-0.2-0.2-0.3-0.4-0.5-0.5c0,0-0.1,0-0.1-0.1c-0.2-0.1-0.5-0.2-0.7-0.3h-0.1c-0.3-0.1-0.5-0.1-0.8,0l0,0l0,0
			c-0.3,0-0.5,0.1-0.7,0.2h-0.1c-0.2,0.1-0.4,0.3-0.6,0.5c0,0,0,0.1-0.1,0.1c-0.2,0.2-0.3,0.4-0.4,0.6v0.1c-0.1,0.2-0.1,0.4-0.1,0.7
			v0.1C237.1,121.8,237.1,122,237.1,122.1z"/>
	</g>
	<g>
		<path class="st25" d="M239,119.4l0.4,2.3h0.1L239,119.4C239.1,119.4,239,119.4,239,119.4L239,119.4z"/>
	</g>
	<g>
		<path class="st25" d="M239.6,121.7L239.6,121.7l0.4-2.3h-0.1L239.6,121.7z"/>
	</g>
	<g>
		<path class="st25" d="M239.9,121.7L239.9,121.7l0.9-1.9c0,0-0.1,0-0.1-0.1L239.9,121.7z"/>
	</g>
	<g>
		<path class="st25" d="M240.2,121.6L240.2,121.6l1-1.2c0,0,0,0-0.1-0.1L240.2,121.6z"/>
	</g>
	<g>
		<path class="st25" d="M240.8,121.5h0.2l0.7-0.5v-0.1L240.8,121.5z"/>
	</g>
	<g>
		<path class="st25" d="M238.3,119.7l1,2.1h0.1L238.3,119.7L238.3,119.7z"/>
	</g>
	<g>
		<path class="st25" d="M237.6,120.3l1.2,1.5h0.1L237.6,120.3C237.7,120.2,237.6,120.3,237.6,120.3z"/>
	</g>
	<g>
		<path class="st25" d="M237.2,120.9l1.2,1h0.1L237.2,120.9C237.2,120.8,237.2,120.9,237.2,120.9z"/>
	</g>
	<g>
		<path class="st25" d="M237.1,121.7l0.8,0.3h0.2L237.1,121.7C237.1,121.6,237.1,121.6,237.1,121.7z"/>
	</g>
</g>
<g>
	<g>
		<path class="st24" d="M241.7,121.4l2.6-0.4c0-0.1,0-0.2-0.1-0.2c0,0,0,0,0-0.1s-0.1-0.2-0.2-0.3l0,0c-0.1-0.1-0.2-0.2-0.3-0.3l0,0
			c-0.1-0.1-0.3-0.1-0.4-0.2l0,0c-0.1,0-0.3,0-0.4,0l0,0l0,0c-0.1,0-0.3,0.1-0.4,0.1l0,0c-0.1,0.1-0.2,0.2-0.3,0.3l0,0
			c-0.1,0.1-0.2,0.2-0.2,0.3l0,0c0,0.1-0.1,0.2-0.1,0.4c0,0,0,0,0,0.1C241.7,121.2,241.7,121.3,241.7,121.4z"/>
	</g>
	<g>
		<path class="st25" d="M242.7,119.9l0.2,1.2h0.1L242.7,119.9C242.8,119.9,242.8,119.9,242.7,119.9L242.7,119.9z"/>
	</g>
	<g>
		<path class="st25" d="M243.1,121.1L243.1,121.1l0.2-1.2l0,0L243.1,121.1z"/>
	</g>
	<g>
		<path class="st25" d="M243.2,121.1L243.2,121.1l0.5-1l0,0L243.2,121.1z"/>
	</g>
	<g>
		<path class="st25" d="M243.4,121.1L243.4,121.1l0.6-0.7l0,0L243.4,121.1z"/>
	</g>
	<g>
		<path class="st25" d="M243.8,121L243.8,121l0.5-0.3c0,0,0,0,0-0.1L243.8,121z"/>
	</g>
	<g>
		<path class="st25" d="M242.4,120.1l0.5,1.1h0.1L242.4,120.1L242.4,120.1z"/>
	</g>
	<g>
		<path class="st25" d="M242,120.4l0.7,0.9h0.1L242,120.4L242,120.4z"/>
	</g>
	<g>
		<path class="st25" d="M241.8,120.7l0.7,0.5h0.1L241.8,120.7L241.8,120.7z"/>
	</g>
	<g>
		<path class="st25" d="M241.7,121.1l0.4,0.2h0.1L241.7,121.1L241.7,121.1z"/>
	</g>
</g>
<g>
	<g>
		<g>
			
				<rect x="247.6" y="115.3" transform="matrix(0.9883 -0.1522 0.1522 0.9883 -14.9534 39.0588)" class="st30" width="0.1" height="3.8"/>
		</g>
		<g>
			
				<rect x="247.4" y="115.8" transform="matrix(0.5125 -0.8587 0.8587 0.5125 21.2326 269.1006)" class="st30" width="0.4" height="0.1"/>
		</g>
		<g>
			
				<rect x="247.5" y="116.2" transform="matrix(0.5969 -0.8023 0.8023 0.5969 6.5897 245.6936)" class="st30" width="0.7" height="0.1"/>
		</g>
		<g>
			
				<rect x="247.5" y="116.9" transform="matrix(0.6184 -0.7859 0.7859 0.6184 2.7487 239.4614)" class="st30" width="0.9" height="0.1"/>
		</g>
		<g>
			<path class="st30" d="M247.4,115.2C247.5,115.2,247.5,115.2,247.4,115.2c0.1,0.2,0.1,0.2,0,0.2S247.3,115.4,247.4,115.2
				C247.2,115.3,247.3,115.2,247.4,115.2z"/>
		</g>
		<g>
			<circle class="st30" cx="247.7" cy="115.6" r="0.1"/>
		</g>
		<g>
			<path class="st30" d="M248,116C248.1,116,248.1,116,248,116c0.1,0.2,0.1,0.2,0,0.2C247.9,116.2,247.9,116.2,248,116
				C247.9,116,247.9,116,248,116z"/>
		</g>
		<g>
			<path class="st30" d="M248.2,116.3C248.3,116.3,248.3,116.3,248.2,116.3c0.1,0.2,0.1,0.2,0,0.2S248.1,116.5,248.2,116.3
				C248.1,116.3,248.1,116.3,248.2,116.3z"/>
		</g>
		<g>
			
				<rect x="247.6" y="117.4" transform="matrix(0.6263 -0.7796 0.7796 0.6263 1.1632 237.3505)" class="st30" width="1" height="0.1"/>
		</g>
		<g>
			<path class="st30" d="M248.4,116.9C248.5,116.9,248.5,116.9,248.4,116.9c0.1,0.2,0.1,0.2,0,0.2S248.3,117.1,248.4,116.9
				C248.3,116.9,248.4,116.9,248.4,116.9z"/>
		</g>
		<g>
			
				<rect x="247.7" y="118" transform="matrix(0.6264 -0.7795 0.7795 0.6264 0.7507 237.5876)" class="st30" width="1" height="0.1"/>
		</g>
		<g>
			<path class="st30" d="M248.5,117.5C248.6,117.5,248.6,117.5,248.5,117.5c0.1,0.2,0.1,0.2,0,0.2S248.4,117.7,248.5,117.5
				C248.4,117.6,248.5,117.5,248.5,117.5z"/>
		</g>
		<g>
			
				<rect x="247.3" y="115.7" transform="matrix(0.6647 -0.7471 0.7471 0.6647 -3.6401 223.6658)" class="st30" width="0.1" height="0.4"/>
		</g>
		<g>
			
				<rect x="247.3" y="116.1" transform="matrix(0.5855 -0.8107 0.8107 0.5855 8.1934 248.8058)" class="st30" width="0.1" height="0.7"/>
		</g>
		<g>
			
				<rect x="247.3" y="116.4" transform="matrix(0.5633 -0.8263 0.8263 0.5633 11.4496 255.4069)" class="st30" width="0.1" height="0.9"/>
		</g>
		<g>
			<path class="st30" d="M247.2,115.6C247.3,115.6,247.3,115.6,247.2,115.6c0.1,0.2,0.1,0.2,0,0.2S247.1,115.8,247.2,115.6
				C247.1,115.6,247.1,115.6,247.2,115.6z"/>
		</g>
		<g>
			<path class="st30" d="M247,116.1C247.1,116.1,247.1,116.1,247,116.1c0.1,0.2,0.1,0.2,0,0.2S246.9,116.3,247,116.1
				C246.9,116.2,246.9,116.1,247,116.1z"/>
		</g>
		<g>
			<path class="st30" d="M246.9,116.5C247,116.5,247,116.5,246.9,116.5c0.1,0.2,0.1,0.2,0,0.2S246.8,116.7,246.9,116.5L246.9,116.5z
				"/>
		</g>
		<g>
			<rect x="247.3" y="117" transform="matrix(0.555 -0.8319 0.8319 0.555 12.3002 258.1009)" class="st30" width="0.1" height="1"/>
		</g>
		<g>
			<path class="st30" d="M246.9,117.1C247,117.1,247,117.1,246.9,117.1c0.1,0.2,0.1,0.2,0,0.2S246.8,117.3,246.9,117.1
				C246.8,117.2,246.8,117.1,246.9,117.1z"/>
		</g>
		<g>
			
				<rect x="247.4" y="117.6" transform="matrix(0.5552 -0.8317 0.8317 0.5552 11.8509 258.3373)" class="st30" width="0.1" height="1"/>
		</g>
		<g>
			<path class="st30" d="M247,117.7C247.1,117.7,247.1,117.7,247,117.7c0.1,0.2,0.1,0.2,0,0.2S246.9,117.9,247,117.7
				C246.9,117.8,246.9,117.7,247,117.7z"/>
		</g>
		<g>
			<path class="st30" d="M248,119.1h-0.3c-0.2,0-0.5-0.1-0.7-0.3c-0.5-0.4-0.7-0.9-0.7-0.9s0.6,0,1,0.4
				C247.7,118.6,247.9,118.9,248,119.1z"/>
		</g>
		<g>
			<path class="st30" d="M249.2,117.6c0,0,0,0.6-0.4,1c-0.2,0.2-0.4,0.4-0.6,0.5H248c0-0.2,0.1-0.6,0.3-1
				C248.7,117.8,249.2,117.6,249.2,117.6z"/>
		</g>
	</g>
	
		<rect x="246.5" y="118.8" transform="matrix(0.9883 -0.1522 0.1522 0.9883 -15.3114 39.1519)" class="st12" width="3.1" height="1.5"/>
</g>
<g>
	<g>
		<path class="st30" d="M287.3,111.2c-0.1-0.6-0.2-1,0.3-1.1c0.4,0,0.5,0.2,0.6,0.6c0.1,0.4,0.2,0.6,0.5,0.6s0.6,0.3,0.4,1
			c-0.1,0.3-0.2,0.6-0.3,0.7l-1.6,0.3c-0.2-0.2-0.7-0.8-0.4-1.1C287,111.5,287.4,111.9,287.3,111.2z"/>
		<g>
			
				<rect x="287.8" y="111.4" transform="matrix(0.9883 -0.1522 0.1522 0.9883 -13.7149 45.1268)" class="st29" width="0.1" height="1.5"/>
		</g>
		<g>
			
				<rect x="287.7" y="112.1" transform="matrix(0.6992 -0.7149 0.7149 0.6992 6.1793 239.4892)" class="st29" width="0.1" height="0.7"/>
		</g>
		<g>
			
				<rect x="287.8" y="111.8" transform="matrix(0.5018 -0.865 0.865 0.5018 46.7878 304.8852)" class="st29" width="0.6" height="0.1"/>
		</g>
	</g>
	
		<rect x="286.9" y="112.9" transform="matrix(0.9883 -0.1522 0.1522 0.9883 -13.9305 45.1725)" class="st12" width="2.4" height="1.3"/>
</g>
<rect x="190.6" y="120.9" transform="matrix(0.9883 -0.1522 0.1522 0.9883 -15.8886 38.6703)" class="st12" width="108.2" height="4.4"/>
<rect x="201.1" y="125.5" transform="matrix(0.9883 -0.1522 0.1522 0.9883 -17.0309 33.5734)" class="st1" width="19.3" height="5.1"/>
<rect x="201" y="126.5" transform="matrix(0.9883 -0.1522 0.1522 0.9883 -16.8298 33.5288)" class="st20" width="19.3" height="0.3"/>
<rect x="201.2" y="128.3" transform="matrix(0.9883 -0.1522 0.1522 0.9883 -17.0878 33.5924)" class="st20" width="19.3" height="0.3"/>
<rect x="201.5" y="130.1" transform="matrix(0.9883 -0.1522 0.1522 0.9883 -17.3603 33.6571)" class="st20" width="19.3" height="0.3"/>
<g class="st8">
	<polygon class="st15" points="192.9,107.5 231,101.7 213.9,125 209.7,130.7 201.6,132 201.1,127.6 196.2,128.4 	"/>
</g>
<path class="st31" d="M186.7,137.9c17.2,1.2,34.4,0,51.2-3.7c29.4-6.1,35.7-10.4,65.6-15.6c4.4-0.8,3.6-4.6-0.6-3.9l-114.9,19.6
	C184.6,135,186.7,137.9,186.7,137.9z"/>
</svg>
