<?xml version="1.0" encoding="utf-8"?>
<svg version="1.1" id="Warstwa_1" xmlns="http://www.w3.org/2000/svg" xmlns:xlink="http://www.w3.org/1999/xlink" x="0px" y="0px"
	 viewBox="0 0 67.8 57.1" style="enable-background:new 0 0 67.8 57.1;" xml:space="preserve">
<style type="text/css">
	.st0{fill:#FFD445;}
	.st1{fill:#923A3F;}
	.st2{fill:#BA8285;}
	.st3{fill:#A05358;}
	.st4{fill:none;stroke:#BA8285;stroke-linecap:round;stroke-linejoin:round;stroke-miterlimit:10;}
</style>
<g>
	<polygon class="st0" points="67.7,1 17.2,1 13.3,4.9 40,24.4 63.9,47.8 	"/>
	<g>
		<polygon class="st1" points="67.7,1 67.7,44 63.9,47.8 63.9,4.9 		"/>
		<polygon class="st2" points="63.9,4.9 67.7,1 17.2,1 13.3,4.9 		"/>
		<polygon class="st3" points="13.3,4.9 63.9,4.9 63.9,47.8 13.3,47.8 13.3,15.8 		"/>
	</g>
</g>
<polyline class="st4" points="13.8,15.5 63.9,15.5 67.3,11.9 "/>
<polyline class="st4" points="13.8,26.9 63.9,26.9 67.3,23.2 "/>
<polyline class="st4" points="13.8,38.3 63.9,38.3 67.3,34.6 "/>
<line class="st4" x1="28.3" y1="4.9" x2="28.3" y2="15.5"/>
<line class="st4" x1="50.1" y1="4.9" x2="50.1" y2="15.5"/>
<line class="st4" x1="28.3" y1="27.2" x2="28.3" y2="37.8"/>
<line class="st4" x1="50.1" y1="27.2" x2="50.1" y2="37.8"/>
<line class="st4" x1="38.8" y1="16.2" x2="38.8" y2="26.8"/>
<line class="st4" x1="38.8" y1="38.5" x2="38.8" y2="47.4"/>
</svg>
