<svg xmlns="http://www.w3.org/2000/svg" viewBox="0 0 67.82 101.71"><defs><style>.cls-1{fill:#f5cb95;}.cls-2{fill:#e9ae63;}.cls-3{fill:#ffdaab;}.cls-4{fill:#787878;}.cls-5{fill:#636363;}.cls-6{fill:#8c8c8c;}.cls-7{fill:#f2f2f3;}.cls-8{fill:#a6a6ae;}.cls-9{fill:#d2d2d6;}.cls-10{opacity:0.2;}.cls-11{fill:#292929;}.cls-12{fill:#f0c6b4;}.cls-13{fill:#eaad94;}.cls-14{fill:#ff7400;}.cls-15{fill:#fb0;}.cls-16{fill:#009ac8;}.cls-17{fill:#52bbe6;}.cls-18{fill:#663f30;}</style></defs><title>dociepl</title><g id="Warstwa_2" ><g id="Layer_1" ><polygon class="cls-1" points="64.28 65.62 5.29 99.67 3.98 95.88 3.98 38.16 5.29 37.11 64.28 3.06 64.28 65.62"/><polygon class="cls-2" points="5.29 99.67 0 96.61 0 34.05 5.29 37.11 5.29 99.67"/><polygon class="cls-3" points="5.29 37.11 64.28 3.06 58.98 0 0 34.05 5.29 37.11"/><polygon class="cls-4" points="8.82 87.36 67.79 53.29 67.77 67.64 8.8 101.7 8.82 87.36"/><polygon class="cls-5" points="5.29 99.67 5.32 85.33 8.82 87.36 8.8 101.7 5.29 99.67"/><polygon class="cls-6" points="5.32 85.33 64.28 51.26 67.79 53.29 67.79 53.29 8.82 87.36 5.32 85.33 5.32 85.33"/><polygon class="cls-7" points="38.86 46.33 67.82 29.59 67.79 51.75 67.79 51.75 38.84 68.49 38.86 46.33"/><polygon class="cls-8" points="35.33 66.46 35.35 44.3 38.86 46.33 38.84 68.49 35.33 66.46"/><polygon class="cls-9" points="35.35 44.3 64.31 27.56 67.82 29.59 67.82 29.59 38.86 46.33 35.35 44.3 35.35 44.3"/><polygon class="cls-7" points="8.82 63.67 37.78 46.93 37.76 69.08 37.76 69.08 8.8 85.83 8.82 63.67"/><polygon class="cls-8" points="5.29 83.8 5.32 61.64 8.82 63.67 8.8 85.83 5.29 83.8"/><polygon class="cls-9" points="5.32 61.64 34.27 44.9 37.78 46.93 37.78 46.93 8.82 63.67 5.32 61.64 5.32 61.64"/><polygon class="cls-7" points="53.25 15.36 67.82 6.95 67.79 29.11 67.79 29.11 53.22 37.52 53.25 15.36"/><polygon class="cls-8" points="49.72 35.48 49.74 13.33 53.25 15.36 53.22 37.52 49.72 35.48"/><polygon class="cls-9" points="49.74 13.33 64.31 4.92 67.82 6.95 67.82 6.95 53.25 15.36 49.74 13.33 49.74 13.33"/><polygon class="cls-7" points="23.3 32.65 52.26 15.9 52.24 38.06 52.24 38.06 23.28 54.8 23.3 32.65"/><polygon class="cls-8" points="19.77 52.77 19.8 30.62 23.3 32.65 23.28 54.8 19.77 52.77"/><polygon class="cls-9" points="19.8 30.62 48.75 13.87 52.26 15.9 52.26 15.9 23.3 32.65 19.8 30.62 19.8 30.62"/><path class="cls-10" d="M35.73,96.87a15.53,15.53,0,0,0,14.08,0c3.9-2.25,3.9-5.89,0-8.13a15.53,15.53,0,0,0-14.08,0C31.83,91,31.83,94.62,35.73,96.87Z"/><path class="cls-11" d="M50,33.48s.46-2.35.15-2.9c-.53-.94-2.36-2.41-2.75-2.07s.46,1.56.51,1.95a5.74,5.74,0,0,1-.24,1.41s-.26-1.36-.83-1.39c-.29,0-.21.43-.17,1s-.16.91.15,1.58a8.37,8.37,0,0,0,1.6,2l1.26-.52Z"/><path class="cls-12" d="M51.8,42.33a20.34,20.34,0,0,1,1.72-1.95c-1.29-.93-3-3.65-5.09-5.28.06-.71.75-2.29,1.69-1.54,1.22,1.19,5.23,2.56,6.66,5.12.21.46,1.33,2.07.59,3s-3.55,1.43-3.55,1.43Z"/><path class="cls-13" d="M44.48,40,44.84,41l.73,1.06L45.43,44,42,45.28l-1.44-1a2.06,2.06,0,0,0-.41-2.19,7.67,7.67,0,0,1,0-2.64l3.45-1Z"/><path class="cls-14" d="M48.58,44.18s-2-1.46-1.41-2.48,3.45-.46,7.22-2.42c1.67.83,1.76,3.52,1.63,4.11-4.89,1.39-5.38,3.48-5.38,3.48Z"/><path class="cls-15" d="M44.84,41s1.52,1,2.33.68c7.36,2.85.59,11.32,1.55,17.57.49,1-3.88,3.67-3.88,3.67l-6.22-1.87a53.69,53.69,0,0,0-.4-5.61A16.89,16.89,0,0,0,37,51.07c-.8-2.14,1.14-4.15,1.14-4.15a9.26,9.26,0,0,0,2.42-2.64c.11-.06,1.24.39,3.64-1.22A1.49,1.49,0,0,0,44.84,41Z"/><path class="cls-11" d="M48.24,90.53a35,35,0,0,1-3.74.36c-.72,0-.79.94-.34,1.41,1.45,1.49,2.91,1.23,3.46,1.54,1.68,1,1.94,1.51,3.31,1.1,1.11-.33-.26-3.88-.26-3.88S50.67,91.8,48.24,90.53Z"/><path class="cls-16" d="M50.75,65.49S49,76,49.53,77.53C51.25,81.92,51,91.16,51,91.16a2.21,2.21,0,0,1-2.35,1.37c-2.22-.27-2.45-1.68-2.45-1.68a64.5,64.5,0,0,0-1.31-11c-.93-2.68-2.19-7.73-1.19-15.95C44.16,64,50.75,65.49,50.75,65.49Z"/><path class="cls-11" d="M38.05,90.05c-1,.69-2.8-.06-3.47.23s-1.38,2.18-.44,2.66a23.52,23.52,0,0,0,3.08,1.24,11.84,11.84,0,0,0,2.91.88c.33,0,1.6-.39,1.64-.83a15.25,15.25,0,0,0-.67-3.92S40.8,90,38.05,90.05Z"/><path class="cls-17" d="M38.38,59.9s.68,1.2,3.26,1.06c2.28-.12,7.84-2.18,7.84-2.18s1.59,4.45,1.27,6.71-3.8,2.56-6.25,4c-1.63,5.58-3.75,8.37-3.26,10.11.82,3,.54,11.56.54,11.56s-.73.87-2.9.87a2.26,2.26,0,0,1-2.45-1.73c.41-3.81-.18-8.8-.36-12.06C35.6,69.73,38.38,59.9,38.38,59.9Z"/><path class="cls-11" d="M25.74,45.57a8.45,8.45,0,0,0-1.35-2.26c-.84-.47-1.53-1.28-1.78-1.07-.56.48.52,1.49.37,1.5s-1.32-.26-1.32-.26-1.06-1.19-1.46-1.17-.21,2,0,2.66a2.94,2.94,0,0,0,1.62,1.72l1.85.5Z"/><path class="cls-12" d="M32.66,50.87s-1.76,1.31-2.17,1.75c-.78-2.35-3-3.92-4.75-7-.48-.34-2.61,1-1.94,1.74,1.12,1.39,1.56,6.45,4,8.11.6.59,2.85,1.5,3.93,1.07a27.09,27.09,0,0,0,4-2.18Z"/><path class="cls-14" d="M41.5,47.47c1.92,3.44-1.7,4.71-1.7,4.71s-1.88,1.36-5.07,3.24c-1.8-.47-2.89-3.59-2.89-4.19C35.65,48.81,36.76,48,36.76,48S40,44.7,41.5,47.47Z"/><path class="cls-12" d="M36.82,38a6.87,6.87,0,0,0-.68,1.66c0,.1.83.46.83.46.15,1.15.37,2.23.73,2.27,3.51.39,3.71-2.25,3.71-2.25a1.11,1.11,0,0,0,1.23-.81c.27-.79,1.37-3.9.72-4.42-.82-.66-3.06-1.91-4.48-1.63s-1.93,2.07-2,2.17C36.87,37.3,36.53,37.64,36.82,38Z"/><path class="cls-18" d="M44.86,38.79s.81-4.13-1.43-6.08-6.56.24-7,2c-.36,1.46,1.5.49,1.54.93.18,1.56,1.66,1.52,2,3,.15.67.78.66.79.2s.24-1,.82-.93c1.8.2,0,2.82,1.71,2.53C45.23,40.15,44.86,38.79,44.86,38.79Z"/><path class="cls-17" d="M49.48,58.78c-.59-1.48-1.12-1.89-1.09-6.27a14.19,14.19,0,0,1-3.8,1.83c.38,4.73-3.81,6.08-4.89,6.42C40.23,65.33,49.37,63.27,49.48,58.78Z"/><path class="cls-17" d="M46.45,53.8S45.14,44.73,40,45.14a4.68,4.68,0,0,0-1.19,1.21c4.32-1.55,5.81,8,5.81,8l1,.46Z"/><path class="cls-17" d="M47.17,41.7c3.86,2.42,1.22,10.81,1.22,10.81l-1,1.52-.79-.37S50,43.4,45.21,41.24A5.79,5.79,0,0,0,47.17,41.7Z"/></g></g></svg>