<?xml version="1.0" encoding="utf-8"?>
<svg version="1.1" id="Warstwa_1" xmlns="http://www.w3.org/2000/svg" xmlns:xlink="http://www.w3.org/1999/xlink" x="0px" y="0px"
	 viewBox="0 0 67.8 57.1" style="enable-background:new 0 0 67.8 57.1;" xml:space="preserve">
<style type="text/css">
	.st0{fill:#FFD445;}
	.st1{fill:#808080;}
	.st2{fill:#CBCBCB;}
	.st3{fill:#989898;}
	.st4{fill:#93DBB0;}
	.st5{fill:#BDE9CF;}
	.st6{fill:#D3F0DF;}
	.st7{fill:#736357;}
	.st8{fill:#3A2F2A;}
	.st9{fill:#FFB192;}
	.st10{fill:#666666;}
	.st11{fill:#FFFFFF;}
	.st12{fill:#4D4D4D;}
</style>
<g id="Warstwa_1_1_">
	<title>dociepl</title>
</g>
<g id="Warstwa_2_2_">
	<g>
		<g>
			<polygon class="st0" points="67.7,1 17.2,1 13.3,4.9 40,24.4 63.9,47.8 			"/>
			<g>
				<polygon class="st1" points="67.7,1 67.7,44 63.9,47.8 63.9,4.9 				"/>
				<polygon class="st2" points="63.9,4.9 67.7,1 17.2,1 13.3,4.9 				"/>
				<rect x="13.3" y="4.9" class="st3" width="50.6" height="42.9"/>
			</g>
		</g>
		<g>
			<polygon class="st0" points="59.4,9.3 8.9,9.3 5,13.1 31.6,32.7 55.6,56.1 			"/>
			<g>
				<polygon class="st4" points="59.4,9.3 59.4,52.2 55.6,56.1 55.6,13.1 				"/>
				<polygon class="st5" points="55.6,13.1 59.4,9.3 8.9,9.3 5,13.1 				"/>
				<rect x="5" y="13.1" class="st6" width="50.6" height="42.9"/>
				<path class="st6" d="M53,28.2H7.6c-0.7,0-1.3-0.6-1.3-1.3l0,0c0-0.7,0.6-1.3,1.3-1.3H53c0.7,0,1.3,0.6,1.3,1.3l0,0
					C54.3,27.6,53.7,28.2,53,28.2z"/>
				<path class="st6" d="M53,32.1H7.6c-0.7,0-1.3-0.6-1.3-1.3l0,0c0-0.7,0.6-1.3,1.3-1.3H53c0.7,0,1.3,0.6,1.3,1.3l0,0
					C54.3,31.5,53.7,32.1,53,32.1z"/>
				<path class="st6" d="M53,35.9H7.6c-0.7,0-1.3-0.6-1.3-1.3l0,0c0-0.7,0.6-1.3,1.3-1.3H53c0.7,0,1.3,0.6,1.3,1.3l0,0
					C54.3,35.4,53.7,35.9,53,35.9z"/>
				<path class="st6" d="M53,39.8H7.6c-0.7,0-1.3-0.6-1.3-1.3l0,0c0-0.7,0.6-1.3,1.3-1.3H53c0.7,0,1.3,0.6,1.3,1.3l0,0
					C54.3,39.2,53.7,39.8,53,39.8z"/>
				<path class="st6" d="M53,43.7H7.6c-0.7,0-1.3-0.6-1.3-1.3l0,0c0-0.7,0.6-1.3,1.3-1.3H53c0.7,0,1.3,0.6,1.3,1.3l0,0
					C54.3,43.1,53.7,43.7,53,43.7z"/>
				<path class="st6" d="M53,47.5H7.6c-0.7,0-1.3-0.6-1.3-1.3l0,0c0-0.7,0.6-1.3,1.3-1.3H53c0.7,0,1.3,0.6,1.3,1.3l0,0
					C54.3,46.9,53.7,47.5,53,47.5z"/>
				<path class="st6" d="M53,51.4H7.6c-0.7,0-1.3-0.6-1.3-1.3l0,0c0-0.7,0.6-1.3,1.3-1.3H53c0.7,0,1.3,0.6,1.3,1.3l0,0
					C54.3,50.8,53.7,51.4,53,51.4z"/>
				<path class="st6" d="M53,55.2H7.6c-0.7,0-1.3-0.6-1.3-1.3l0,0c0-0.7,0.6-1.3,1.3-1.3H53c0.7,0,1.3,0.6,1.3,1.3l0,0
					C54.3,54.7,53.7,55.2,53,55.2z"/>
				<path class="st6" d="M53,16.6H7.6c-0.7,0-1.3-0.6-1.3-1.3l0,0c0-0.7,0.6-1.3,1.3-1.3H53c0.7,0,1.3,0.6,1.3,1.3l0,0
					C54.3,16.1,53.7,16.6,53,16.6z"/>
				<path class="st6" d="M53,20.5H7.6c-0.7,0-1.3-0.6-1.3-1.3l0,0c0-0.7,0.6-1.3,1.3-1.3H53c0.7,0,1.3,0.6,1.3,1.3l0,0
					C54.3,19.9,53.7,20.5,53,20.5z"/>
				<path class="st6" d="M53,24.4H7.6c-0.7,0-1.3-0.6-1.3-1.3l0,0c0-0.7,0.6-1.3,1.3-1.3H53c0.7,0,1.3,0.6,1.3,1.3l0,0
					C54.3,23.8,53.7,24.4,53,24.4z"/>
			</g>
		</g>
		<g>
			<path class="st7" d="M30.3,30.1c-2.5,0-4.5,2-4.5,4.5s2,4.5,4.5,4.5s4.5-2,4.5-4.5S32.8,30.1,30.3,30.1z M31.3,33.1l1.1-1.1
				c0.1-0.1,0.4-0.1,0.5,0c0.1,0.1,0.1,0.4,0,0.5l-1.1,1.1c-0.1,0.1-0.4,0.1-0.5,0C31.1,33.5,31.1,33.3,31.3,33.1z M27,35
				c-0.2,0-0.4-0.2-0.4-0.4s0.2-0.4,0.4-0.4h1.6c0.2,0,0.4,0.2,0.4,0.4S28.8,35,28.6,35H27z M29.3,36.1l-1.1,1.1
				c-0.1,0.1-0.4,0.1-0.5,0s-0.1-0.4,0-0.5l1.1-1.1c0.1-0.1,0.4-0.1,0.5,0C29.5,35.7,29.5,36,29.3,36.1z M29.3,33.6
				c-0.1,0.1-0.4,0.1-0.5,0l-1.1-1.1c-0.1-0.1-0.1-0.4,0-0.5c0.1-0.1,0.4-0.1,0.5,0l1.1,1.1C29.5,33.3,29.5,33.5,29.3,33.6z
				 M30.7,37.9c0,0.2-0.2,0.4-0.4,0.4c-0.2,0-0.4-0.2-0.4-0.4v-1.6c0-0.2,0.2-0.4,0.4-0.4c0.2,0,0.4,0.2,0.4,0.4V37.9z M30.7,32.9
				c0,0.2-0.2,0.4-0.4,0.4c-0.2,0-0.4-0.2-0.4-0.4v-1.6c0-0.2,0.2-0.4,0.4-0.4c0.2,0,0.4,0.2,0.4,0.4V32.9z M32.9,37.2
				c-0.1,0.1-0.4,0.1-0.5,0l-1.1-1.1c-0.1-0.1-0.1-0.4,0-0.5s0.4-0.1,0.5,0l1.1,1.1C33.1,36.9,33.1,37.1,32.9,37.2z M33.6,35H32
				c-0.2,0-0.4-0.2-0.4-0.4s0.2-0.4,0.4-0.4h1.6c0.2,0,0.4,0.2,0.4,0.4S33.8,35,33.6,35z"/>
			<circle class="st8" cx="30.3" cy="34.6" r="0.9"/>
		</g>
		<g>
			<g>
				<path class="st7" d="M48.2,14.7c-2.5,0-4.5,2-4.5,4.5s2,4.5,4.5,4.5s4.5-2,4.5-4.5S50.7,14.7,48.2,14.7z M49.2,17.7l1.1-1.1
					c0.1-0.1,0.4-0.1,0.5,0s0.1,0.4,0,0.5l-1.1,1.1c-0.1,0.1-0.4,0.1-0.5,0C49,18.1,49,17.8,49.2,17.7z M44.9,19.5
					c-0.2,0-0.4-0.2-0.4-0.4s0.2-0.4,0.4-0.4h1.6c0.2,0,0.4,0.2,0.4,0.4s-0.2,0.4-0.4,0.4H44.9z M47.2,20.7l-1.1,1.1
					c-0.1,0.1-0.4,0.1-0.5,0s-0.1-0.4,0-0.5l1.1-1.1c0.1-0.1,0.4-0.1,0.5,0C47.4,20.3,47.4,20.5,47.2,20.7z M47.2,18.2
					c-0.1,0.1-0.4,0.1-0.5,0l-1.1-1.1c-0.1-0.1-0.1-0.4,0-0.5s0.4-0.1,0.5,0l1.1,1.1C47.4,17.8,47.4,18.1,47.2,18.2z M48.6,22.5
					c0,0.2-0.2,0.4-0.4,0.4s-0.4-0.2-0.4-0.4v-1.6c0-0.2,0.2-0.4,0.4-0.4s0.4,0.2,0.4,0.4V22.5z M48.6,17.4c0,0.2-0.2,0.4-0.4,0.4
					s-0.4-0.2-0.4-0.4v-1.6c0-0.2,0.2-0.4,0.4-0.4s0.4,0.2,0.4,0.4V17.4z M50.8,21.8c-0.1,0.1-0.4,0.1-0.5,0l-1.1-1.1
					c-0.1-0.1-0.1-0.4,0-0.5s0.4-0.1,0.5,0l1.1,1.1C51,21.4,51,21.6,50.8,21.8z M51.5,19.5h-1.6c-0.2,0-0.4-0.2-0.4-0.4
					s0.2-0.4,0.4-0.4h1.6c0.2,0,0.4,0.2,0.4,0.4C51.9,19.4,51.7,19.5,51.5,19.5z"/>
				<circle class="st8" cx="48.2" cy="19.2" r="0.9"/>
			</g>
			<g>
				<path class="st7" d="M48.2,45.6c-2.5,0-4.5,2-4.5,4.5s2,4.5,4.5,4.5s4.5-2,4.5-4.5S50.7,45.6,48.2,45.6z M49.2,48.6l1.1-1.1
					c0.1-0.1,0.4-0.1,0.5,0s0.1,0.4,0,0.5l-1.1,1.1c-0.1,0.1-0.4,0.1-0.5,0C49,48.9,49,48.7,49.2,48.6z M44.9,50.4
					c-0.2,0-0.4-0.2-0.4-0.4c0-0.2,0.2-0.4,0.4-0.4h1.6c0.2,0,0.4,0.2,0.4,0.4c0,0.2-0.2,0.4-0.4,0.4H44.9z M47.2,51.6l-1.1,1.1
					c-0.1,0.1-0.4,0.1-0.5,0s-0.1-0.4,0-0.5l1.1-1.1c0.1-0.1,0.4-0.1,0.5,0C47.4,51.2,47.4,51.4,47.2,51.6z M47.2,49.1
					c-0.1,0.1-0.4,0.1-0.5,0L45.6,48c-0.1-0.1-0.1-0.4,0-0.5s0.4-0.1,0.5,0l1.1,1.1C47.4,48.7,47.4,48.9,47.2,49.1z M48.6,53.4
					c0,0.2-0.2,0.4-0.4,0.4s-0.4-0.2-0.4-0.4v-1.6c0-0.2,0.2-0.4,0.4-0.4s0.4,0.2,0.4,0.4V53.4z M48.6,48.3c0,0.2-0.2,0.4-0.4,0.4
					s-0.4-0.2-0.4-0.4v-1.6c0-0.2,0.2-0.4,0.4-0.4s0.4,0.2,0.4,0.4V48.3z M50.8,52.7c-0.1,0.1-0.4,0.1-0.5,0l-1.1-1.1
					c-0.1-0.1-0.1-0.4,0-0.5s0.4-0.1,0.5,0l1.1,1.1C51,52.3,51,52.5,50.8,52.7z M51.5,50.4h-1.6c-0.2,0-0.4-0.2-0.4-0.4
					c0-0.2,0.2-0.4,0.4-0.4h1.6c0.2,0,0.4,0.2,0.4,0.4C51.9,50.3,51.7,50.4,51.5,50.4z"/>
				<circle class="st8" cx="48.2" cy="50.1" r="0.9"/>
			</g>
			<g>
				<path class="st7" d="M12.4,45.6c-2.5,0-4.5,2-4.5,4.5s2,4.5,4.5,4.5s4.5-2,4.5-4.5S14.9,45.6,12.4,45.6z M13.4,48.6l1.1-1.1
					c0.1-0.1,0.4-0.1,0.5,0s0.1,0.4,0,0.5l-1.1,1.1c-0.1,0.1-0.4,0.1-0.5,0C13.2,48.9,13.2,48.7,13.4,48.6z M9.1,50.4
					c-0.2,0-0.4-0.2-0.4-0.4c0-0.2,0.2-0.4,0.4-0.4h1.6c0.2,0,0.4,0.2,0.4,0.4c0,0.2-0.2,0.4-0.4,0.4H9.1z M11.4,51.6l-1.1,1.1
					c-0.1,0.1-0.4,0.1-0.5,0s-0.1-0.4,0-0.5l1.1-1.1c0.1-0.1,0.4-0.1,0.5,0C11.6,51.2,11.6,51.4,11.4,51.6z M11.4,49.1
					c-0.1,0.1-0.4,0.1-0.5,0L9.8,48c-0.1-0.1-0.1-0.4,0-0.5s0.4-0.1,0.5,0l1.1,1.1C11.6,48.7,11.6,48.9,11.4,49.1z M12.8,53.4
					c0,0.2-0.2,0.4-0.4,0.4S12,53.6,12,53.4v-1.6c0-0.2,0.2-0.4,0.4-0.4s0.4,0.2,0.4,0.4V53.4z M12.8,48.3c0,0.2-0.2,0.4-0.4,0.4
					S12,48.5,12,48.3v-1.6c0-0.2,0.2-0.4,0.4-0.4s0.4,0.2,0.4,0.4V48.3z M15,52.7c-0.1,0.1-0.4,0.1-0.5,0l-1.1-1.1
					c-0.1-0.1-0.1-0.4,0-0.5s0.4-0.1,0.5,0l1.1,1.1C15.2,52.3,15.2,52.5,15,52.7z M15.7,50.4h-1.6c-0.2,0-0.4-0.2-0.4-0.4
					c0-0.2,0.2-0.4,0.4-0.4h1.6c0.2,0,0.4,0.2,0.4,0.4C16.1,50.3,15.9,50.4,15.7,50.4z"/>
				<circle class="st8" cx="12.4" cy="50.1" r="0.9"/>
			</g>
			<g>
				<path class="st7" d="M12.4,14.7c-2.5,0-4.5,2-4.5,4.5s2,4.5,4.5,4.5s4.5-2,4.5-4.5S14.9,14.7,12.4,14.7z M13.4,17.7l1.1-1.1
					c0.1-0.1,0.4-0.1,0.5,0s0.1,0.4,0,0.5l-1.1,1.1c-0.1,0.1-0.4,0.1-0.5,0C13.2,18.1,13.2,17.8,13.4,17.7z M9.1,19.5
					c-0.2,0-0.4-0.2-0.4-0.4s0.2-0.4,0.4-0.4h1.6c0.2,0,0.4,0.2,0.4,0.4s-0.2,0.4-0.4,0.4H9.1z M11.4,20.7l-1.1,1.1
					c-0.1,0.1-0.4,0.1-0.5,0s-0.1-0.4,0-0.5l1.1-1.1c0.1-0.1,0.4-0.1,0.5,0C11.6,20.3,11.6,20.5,11.4,20.7z M11.4,18.2
					c-0.1,0.1-0.4,0.1-0.5,0l-1.1-1.1c-0.1-0.1-0.1-0.4,0-0.5s0.4-0.1,0.5,0l1.1,1.1C11.6,17.8,11.6,18.1,11.4,18.2z M12.8,22.5
					c0,0.2-0.2,0.4-0.4,0.4S12,22.7,12,22.5v-1.6c0-0.2,0.2-0.4,0.4-0.4s0.4,0.2,0.4,0.4V22.5z M12.8,17.4c0,0.2-0.2,0.4-0.4,0.4
					S12,17.6,12,17.4v-1.6c0-0.2,0.2-0.4,0.4-0.4s0.4,0.2,0.4,0.4V17.4z M15,21.8c-0.1,0.1-0.4,0.1-0.5,0l-1.1-1.1
					c-0.1-0.1-0.1-0.4,0-0.5s0.4-0.1,0.5,0l1.1,1.1C15.2,21.4,15.2,21.6,15,21.8z M15.7,19.5h-1.6c-0.2,0-0.4-0.2-0.4-0.4
					s0.2-0.4,0.4-0.4h1.6c0.2,0,0.4,0.2,0.4,0.4C16.1,19.4,15.9,19.5,15.7,19.5z"/>
				<circle class="st8" cx="12.4" cy="19.2" r="0.9"/>
			</g>
		</g>
		<path class="st9" d="M55.6,14.5v-0.4h-0.9v-0.9h-0.4v0.9h-1.1v-0.9h-0.4v0.9h-1.1v-0.9h-0.4v0.9H50v-0.9h-0.4v0.9h-1.1v-0.9H48
			v0.9h-1.1v-0.9h-0.4v0.9h-1.1v-0.9H45v0.9h-1.1v-0.9h-0.4v0.9h-1.1v-0.9H42v0.9h-1.1v-0.9h-0.4v0.9h-1.1v-0.9H39v0.9h-1.1v-0.9
			h-0.4v0.9H36v-0.9h-0.4v0.9h-1.1v-0.9H34v0.9h-1.1v-0.9h-0.4v0.9h-1.1v-0.9H31v0.9h-1.1v-0.9h-0.4v0.9h-1.1v-0.9H28v0.9h-1.1v-0.9
			h-0.4v0.9h-1.1v-0.9H25v0.9h-1.1v-0.9h-0.4v0.9h-1.1v-0.9H22v0.9h-1.1v-0.9h-0.4v0.9h-1.1v-0.9H19v0.9h-1.1v-0.9h-0.4v0.9h-1.1
			v-0.9H16v0.9h-1.1v-0.9h-0.4v0.9h-1.1v-0.9H13v0.9h-2v-0.9h-0.4v0.9H9.5v-0.9H9v0.9H7.9v-0.9H7.5v0.9H6.3v-0.9H5.9v0.9H5v0.4h0.9
			v1.1H5V16h0.9v1.1H5v0.4h0.9v1.1H5V19h0.9v1.1H5v0.4h0.9v1.1H5V22h0.9v1.1H5v0.4h0.9v1.1H5V25h0.9v1.1H5v0.4h0.9v1.1H5V28h0.9v1.1
			H5v0.4h0.9v1.1H5V31h0.9v1.1H5v0.4h0.9v1.1H5V34h0.9v1.1H5v0.4h0.9v2H5v0.4h0.9V39H5v0.5h0.9v1.1H5V41h0.9v1.1H5v0.4h0.9v1.1H5V44
			h0.9v1.1H5v0.4h0.9v1.1H5V47h0.9v1.1H5v0.4h0.9v1.1H5V50h0.9v1.5H5v0.4h0.9V53H5v0.5h0.9v1.1H5V55h0.9v1h0.4v-1h1.1v1h0.4v-1H9v1
			h0.4v-1h1.1v1H11v-1h1.1v1h0.4v-1h1.1v1H14v-1h1.1v1h0.4v-1h1.1v1H17v-1h1.1v1h0.4v-1h1.1v1H20v-1h1.1v1h0.4v-1h1.1v1H23v-1h1.1v1
			h0.4v-1h1.1v1H26v-1h1.1v1h0.4v-1h1.1v1H29v-1h1.1v1h0.4v-1h1.1v1H32v-1h2v1h0.4v-1h1.1v1H36v-1h1.1v1h0.4v-1h1.1v1H39v-1h1.1v1
			h0.4v-1h1.1v1H42v-1h1.1v1h0.4v-1h1.1v1H45v-1h1.1v1h0.4v-1H48v1h0.4v-1h1.1v1H50v-1h1.1v1h0.4v-1h1.1v1H53v-1h1.1v1h0.4v-1h0.9
			v-0.4h-0.9v-1.1h0.9v-0.4h-0.9V52h0.9v-0.5h-0.9v-1.1h0.9V50h-0.9v-1.1h0.9v-0.4h-0.9v-1.1h0.9V47h-0.9v-1.1h0.9v-0.4h-0.9v-1.1
			h0.9V44h-0.9v-1.1h0.9v-0.4h-0.9v-1.1h0.9V41h-0.9v-1.5h0.9v-0.4h-0.9V38h0.9v-0.5h-0.9v-1.1h0.9V36h-0.9v-1.1h0.9v-0.4h-0.9v-1.1
			h0.9V33h-0.9v-1.1h0.9v-0.4h-0.9v-1.1h0.9V30h-0.9v-1.1h0.9v-0.4h-0.9v-1.1h0.9V27h-0.9v-1.1h0.9v-0.4h-0.9v-1.1h0.9V24h-0.9v-1.1
			h0.9v-0.4h-0.9v-1.1h0.9V21h-0.9v-1.1h0.9v-0.4h-0.9v-1.1h0.9V18h-0.9v-1.1h0.9v-0.4h-0.9v-2H55.6z M52.7,14.5v1.1h-1.1v-1.1H52.7
			z M32.4,34.4h-1.1v-1.1h1.1V34.4z M32.9,33.2H34v1.1h-1.1V33.2z M30.9,34.4h-1.1v-1.1h1.1V34.4z M29.3,34.4h-1.1v-1.1h1.1V34.4z
			 M27.7,34.4h-1.1v-1.1h1.1V34.4z M26.2,34.4h-1.1v-1.1h1.1V34.4z M26.2,34.8v1.1h-1.1v-1.1H26.2z M26.6,34.8h1.1v1.1h-1.1V34.8z
			 M28.2,34.8h1.1v1.1h-1.1V34.8z M29.7,34.8h1.1v1.1h-1.1V34.8z M31.3,34.8h1.1v1.1h-1.1C31.3,35.9,31.3,34.8,31.3,34.8z
			 M32.9,34.8H34v1.1h-1.1V34.8z M34.4,34.8h1.1v1.1h-1.1V34.8z M34.4,34.4v-1.1h1.1v1.1H34.4z M34.4,32.8v-1.1h1.1v1.1H34.4z
			 M34,32.8h-1.1v-1.1H34V32.8z M32.4,32.8h-1.1v-1.1h1.1V32.8z M30.9,32.8h-1.1v-1.1h1.1V32.8z M29.3,32.8h-1.1v-1.1h1.1V32.8z
			 M27.7,32.8h-1.1v-1.1h1.1V32.8z M26.2,32.8h-1.1v-1.1h1.1V32.8z M24.6,32.8h-1.1v-1.1h1.1V32.8z M24.6,33.2v1.1h-1.1v-1.1H24.6z
			 M24.6,34.8v1.1h-1.1v-1.1H24.6z M24.6,36.4v1.1h-1.1v-1.1H24.6z M25.1,36.4h1.1v1.1h-1.1V36.4z M26.6,36.4h1.1v1.1h-1.1V36.4z
			 M28.2,36.4h1.1v1.1h-1.1V36.4z M29.7,36.4h1.1v1.1h-1.1V36.4z M31.3,36.4h1.1v1.1h-1.1C31.3,37.5,31.3,36.4,31.3,36.4z
			 M32.9,36.4H34v1.1h-1.1V36.4z M34.4,36.4h1.1v1.1h-1.1V36.4z M36,36.4h1.1v1.1H36V36.4z M36,35.9v-1.1h1.1v1.1H36z M36,34.4v-1.1
			h1.1v1.1H36z M36,32.8v-1.1h1.1v1.1H36z M36,31.2v-1.1h1.1v1.1H36z M35.5,31.2h-1.1v-1.1h1.1V31.2z M34,31.2h-1.1v-1.1H34V31.2z
			 M32.4,31.2h-1.1v-1.1h1.1V31.2z M30.9,31.2h-1.1v-1.1h1.1V31.2z M29.3,31.2h-1.1v-1.1h1.1V31.2z M27.7,31.2h-1.1v-1.1h1.1V31.2z
			 M26.2,31.2h-1.1v-1.1h1.1V31.2z M24.6,31.2h-1.1v-1.1h1.1V31.2z M23.1,31.2H22v-1.1h1.1V31.2z M23.1,31.7v1.1H22v-1.1H23.1z
			 M23.1,33.2v1.1H22v-1.1H23.1z M23.1,34.8v1.1H22v-1.1H23.1z M23.1,36.4v1.1H22v-1.1H23.1z M23.1,37.9V39H22v-1.1H23.1z
			 M23.5,37.9h1.1V39h-1.1V37.9z M25.1,37.9h1.1V39h-1.1V37.9z M26.6,37.9h1.1V39h-1.1V37.9z M28.2,37.9h1.1V39h-1.1V37.9z
			 M29.7,37.9h1.1V39h-1.1V37.9z M31.3,37.9h1.1V39h-1.1C31.3,39,31.3,37.9,31.3,37.9z M32.9,37.9H34V39h-1.1V37.9z M34.4,37.9h1.1
			V39h-1.1V37.9z M36,37.9h1.1V39H36V37.9z M37.5,37.9h1.1V39h-1.1V37.9z M37.5,37.5v-1.1h1.1v1.1H37.5z M37.5,35.9v-1.1h1.1v1.1
			H37.5z M37.5,34.4v-1.1h1.1v1.1H37.5z M37.5,32.8v-1.1h1.1v1.1H37.5z M37.5,31.2v-1.1h1.1v1.1H37.5z M37.5,29.7v-1.1h1.1v1.1H37.5
			z M37.1,29.7H36v-1.1h1.1V29.7z M35.5,29.7h-1.1v-1.1h1.1V29.7z M34,29.7h-1.1v-1.1H34V29.7z M32.4,29.7h-1.1v-1.1h1.1V29.7z
			 M30.9,29.7h-1.1v-1.1h1.1V29.7z M29.3,29.7h-1.1v-1.1h1.1V29.7z M27.7,29.7h-1.1v-1.1h1.1V29.7z M26.2,29.7h-1.1v-1.1h1.1V29.7z
			 M24.6,29.7h-1.1v-1.1h1.1V29.7z M23.1,29.7H22v-1.1h1.1V29.7z M21.5,29.7h-1.1v-1.1h1.1V29.7z M21.5,30.1v1.1h-1.1v-1.1H21.5z
			 M21.5,31.7v1.1h-1.1v-1.1H21.5z M21.5,33.2v1.1h-1.1v-1.1H21.5z M21.5,34.8v1.1h-1.1v-1.1H21.5z M21.5,36.4v1.1h-1.1v-1.1H21.5z
			 M21.5,37.9V39h-1.1v-1.1H21.5z M21.5,39.5v1.1h-1.1v-1.1H21.5z M21.9,39.5H23v1.1h-1.1V39.5z M23.5,39.5h1.1v1.1h-1.1V39.5z
			 M25.1,39.5h1.1v1.1h-1.1V39.5z M26.6,39.5h1.1v1.1h-1.1V39.5z M28.2,39.5h1.1v1.1h-1.1V39.5z M29.7,39.5h1.1v1.1h-1.1V39.5z
			 M31.3,39.5h1.1v1.1h-1.1C31.3,40.6,31.3,39.5,31.3,39.5z M32.9,39.5H34v1.1h-1.1V39.5z M34.4,39.5h1.1v1.1h-1.1V39.5z M36,39.5
			h1.1v1.1H36V39.5z M37.5,39.5h1.1v1.1h-1.1V39.5z M39.1,39.5h1.1v1.1h-1.1V39.5z M39.1,39v-1.1h1.1V39H39.1z M39.1,37.5v-1.1h1.1
			v1.1H39.1z M39.1,35.9v-1.1h1.1v1.1H39.1z M39.1,34.4v-1.1h1.1v1.1H39.1z M39.1,32.8v-1.1h1.1v1.1H39.1z M39.1,31.2v-1.1h1.1v1.1
			H39.1z M39.1,29.7v-1.1h1.1v1.1H39.1z M39.1,28.1V27h1.1v1.1H39.1z M38.7,28.1h-1.1V27h1.1V28.1z M37.1,28.1H36V27h1.1V28.1z
			 M35.5,28.1h-1.1V27h1.1V28.1z M34,28.1h-1.1V27H34V28.1z M32.4,28.1h-1.1V27h1.1V28.1z M30.9,28.1h-1.1V27h1.1V28.1z M29.3,28.1
			h-1.1V27h1.1V28.1z M27.7,28.1h-1.1V27h1.1V28.1z M26.2,28.1h-1.1V27h1.1V28.1z M24.6,28.1h-1.1V27h1.1V28.1z M23.1,28.1H22V27
			h1.1V28.1z M21.5,28.1h-1.1V27h1.1V28.1z M19.9,28.1h-1.1V27h1.1V28.1z M19.9,28.6v1.1h-1.1v-1.1H19.9z M19.9,30.1v1.1h-1.1v-1.1
			H19.9z M19.9,31.7v1.1h-1.1v-1.1H19.9z M19.9,33.2v1.1h-1.1v-1.1H19.9z M19.9,34.8v1.1h-1.1v-1.1H19.9z M19.9,36.4v1.1h-1.1v-1.1
			H19.9z M19.9,37.9V39h-1.1v-1.1H19.9z M19.9,39.5v1.1h-1.1v-1.1H19.9z M19.9,41v1.1h-1.1V41H19.9z M20.4,41h1.1v1.1h-1.1V41z
			 M21.9,41H23v1.1h-1.1V41z M23.5,41h1.1v1.1h-1.1V41z M25.1,41h1.1v1.1h-1.1V41z M26.6,41h1.1v1.1h-1.1V41z M28.2,41h1.1v1.1h-1.1
			V41z M29.7,41h1.1v1.1h-1.1V41z M31.3,41h1.1v1.1h-1.1C31.3,42.1,31.3,41,31.3,41z M32.9,41H34v1.1h-1.1V41z M34.4,41h1.1v1.1
			h-1.1V41z M36,41h1.1v1.1H36V41z M37.5,41h1.1v1.1h-1.1V41z M39.1,41h1.1v1.1h-1.1V41z M40.7,41h1.1v1.1h-1.1V41z M40.7,40.6v-1.1
			h1.1v1.1H40.7z M40.7,39v-1.1h1.1V39H40.7z M40.7,37.5v-1.1h1.1v1.1H40.7z M40.7,35.9v-1.1h1.1v1.1H40.7z M40.7,34.4v-1.1h1.1v1.1
			H40.7z M40.7,32.8v-1.1h1.1v1.1H40.7z M40.7,31.2v-1.1h1.1v1.1H40.7z M40.7,29.7v-1.1h1.1v1.1H40.7z M40.7,28.1V27h1.1v1.1H40.7z
			 M40.7,26.6v-1.1h1.1v1.1H40.7z M40.2,26.6h-1.1v-1.1h1.1V26.6z M38.7,26.6h-1.1v-1.1h1.1V26.6z M37.1,26.6H36v-1.1h1.1V26.6z
			 M35.5,26.6h-1.1v-1.1h1.1V26.6z M34,26.6h-1.1v-1.1H34V26.6z M32.4,26.6h-1.1v-1.1h1.1V26.6z M30.9,26.6h-1.1v-1.1h1.1V26.6z
			 M29.3,26.6h-1.1v-1.1h1.1V26.6z M27.7,26.6h-1.1v-1.1h1.1V26.6z M26.2,26.6h-1.1v-1.1h1.1V26.6z M24.6,26.6h-1.1v-1.1h1.1V26.6z
			 M23.1,26.6H22v-1.1h1.1V26.6z M21.5,26.6h-1.1v-1.1h1.1V26.6z M19.9,26.6h-1.1v-1.1h1.1V26.6z M18.4,26.6h-1.1v-1.1h1.1V26.6z
			 M18.4,27v1.1h-1.1V27H18.4z M18.4,28.6v1.1h-1.1v-1.1H18.4z M18.4,30.1v1.1h-1.1v-1.1H18.4z M18.4,31.7v1.1h-1.1v-1.1H18.4z
			 M18.4,33.2v1.1h-1.1v-1.1H18.4z M18.4,34.8v1.1h-1.1v-1.1H18.4z M18.4,36.4v1.1h-1.1v-1.1H18.4z M18.4,37.9V39h-1.1v-1.1H18.4z
			 M18.4,39.5v1.1h-1.1v-1.1H18.4z M18.4,41v1.1h-1.1V41H18.4z M18.4,42.6v1.1h-1.1v-1.1H18.4z M18.8,42.6h1.1v1.1h-1.1V42.6z
			 M20.4,42.6h1.1v1.1h-1.1V42.6z M21.9,42.6H23v1.1h-1.1V42.6z M23.5,42.6h1.1v1.1h-1.1V42.6z M25.1,42.6h1.1v1.1h-1.1V42.6z
			 M26.6,42.6h1.1v1.1h-1.1V42.6z M28.2,42.6h1.1v1.1h-1.1V42.6z M29.7,42.6h1.1v1.1h-1.1V42.6z M31.3,42.6h1.1v1.1h-1.1
			C31.3,43.7,31.3,42.6,31.3,42.6z M32.9,42.6H34v1.1h-1.1V42.6z M34.4,42.6h1.1v1.1h-1.1V42.6z M36,42.6h1.1v1.1H36V42.6z
			 M37.5,42.6h1.1v1.1h-1.1V42.6z M39.1,42.6h1.1v1.1h-1.1V42.6z M40.7,42.6h1.1v1.1h-1.1V42.6z M42.2,42.6h1.1v1.1h-1.1V42.6z
			 M42.2,42.2v-1.1h1.1v1.1H42.2z M42.2,40.6v-1.1h1.1v1.1H42.2z M42.2,39v-1.1h1.1V39H42.2z M42.2,37.5v-1.1h1.1v1.1H42.2z
			 M42.2,35.9v-1.1h1.1v1.1H42.2z M42.2,34.4v-1.1h1.1v1.1H42.2z M42.2,32.8v-1.1h1.1v1.1H42.2z M42.2,31.2v-1.1h1.1v1.1H42.2z
			 M42.2,29.7v-1.1h1.1v1.1H42.2z M42.2,28.1V27h1.1v1.1H42.2z M42.2,26.6v-1.1h1.1v1.1H42.2z M42.2,25v-1.1h1.1V25H42.2z M41.8,25
			h-1.1v-1.1h1.1V25z M40.2,25h-1.1v-1.1h1.1V25z M38.7,25h-1.1v-1.1h1.1V25z M37.1,25H36v-1.1h1.1V25z M35.5,25h-1.1v-1.1h1.1V25z
			 M34,25h-1.1v-1.1H34V25z M32.4,25h-1.1v-1.1h1.1V25z M30.9,25h-1.1v-1.1h1.1V25z M29.3,25h-1.1v-1.1h1.1V25z M27.7,25h-1.1v-1.1
			h1.1V25z M26.2,25h-1.1v-1.1h1.1V25z M24.6,25h-1.1v-1.1h1.1V25z M23.1,25H22v-1.1h1.1V25z M21.5,25h-1.1v-1.1h1.1V25z M19.9,25
			h-1.1v-1.1h1.1V25z M18.4,25h-1.1v-1.1h1.1V25z M16.8,25h-1.1v-1.1h1.1V25z M16.8,25.4v1.1h-1.1v-1.1H16.8z M16.8,27v1.1h-1.1V27
			H16.8z M16.8,28.6v1.1h-1.1v-1.1H16.8z M16.8,30.1v1.1h-1.1v-1.1H16.8z M16.8,31.7v1.1h-1.1v-1.1H16.8z M16.8,33.2v1.1h-1.1v-1.1
			H16.8z M16.8,34.8v1.1h-1.1v-1.1H16.8z M16.8,36.4v1.1h-1.1v-1.1H16.8z M16.8,37.9V39h-1.1v-1.1H16.8z M16.8,39.5v1.1h-1.1v-1.1
			H16.8z M16.8,41v1.1h-1.1V41H16.8z M16.8,42.6v1.1h-1.1v-1.1H16.8z M16.8,44.2v1.1h-1.1v-1.1H16.8z M17.3,44.2h1.1v1.1h-1.1V44.2z
			 M18.8,44.2h1.1v1.1h-1.1V44.2z M20.4,44.2h1.1v1.1h-1.1V44.2z M21.9,44.2H23v1.1h-1.1V44.2z M23.5,44.2h1.1v1.1h-1.1V44.2z
			 M25.1,44.2h1.1v1.1h-1.1V44.2z M26.6,44.2h1.1v1.1h-1.1V44.2z M28.2,44.2h1.1v1.1h-1.1V44.2z M29.7,44.2h1.1v1.1h-1.1V44.2z
			 M31.3,44.2h1.1v1.1h-1.1C31.3,45.3,31.3,44.2,31.3,44.2z M32.9,44.2H34v1.1h-1.1V44.2z M34.4,44.2h1.1v1.1h-1.1V44.2z M36,44.2
			h1.1v1.1H36V44.2z M37.5,44.2h1.1v1.1h-1.1V44.2z M39.1,44.2h1.1v1.1h-1.1V44.2z M40.7,44.2h1.1v1.1h-1.1V44.2z M42.2,44.2h1.1
			v1.1h-1.1V44.2z M43.8,44.2h1.1v1.1h-1.1V44.2z M43.8,43.7v-1.1h1.1v1.1H43.8z M43.8,42.2v-1.1h1.1v1.1H43.8z M43.8,40.6v-1.1h1.1
			v1.1H43.8z M43.8,39v-1.1h1.1V39H43.8z M43.8,37.5v-1.1h1.1v1.1H43.8z M43.8,35.9v-1.1h1.1v1.1H43.8z M43.8,34.4v-1.1h1.1v1.1
			H43.8z M43.8,32.8v-1.1h1.1v1.1H43.8z M43.8,31.2v-1.1h1.1v1.1H43.8z M43.8,29.7v-1.1h1.1v1.1H43.8z M43.8,28.1V27h1.1v1.1H43.8z
			 M43.8,26.6v-1.1h1.1v1.1H43.8z M43.8,25v-1.1h1.1V25H43.8z M43.8,23.4v-1.1h1.1v1.1H43.8z M43.3,23.4h-1.1v-1.1h1.1V23.4z
			 M41.8,23.4h-1.1v-1.1h1.1V23.4z M40.2,23.4h-1.1v-1.1h1.1V23.4z M38.7,23.4h-1.1v-1.1h1.1V23.4z M37.1,23.4H36v-1.1h1.1V23.4z
			 M35.5,23.4h-1.1v-1.1h1.1V23.4z M34,23.4h-1.1v-1.1H34V23.4z M32.4,23.4h-1.1v-1.1h1.1V23.4z M30.9,23.4h-1.1v-1.1h1.1V23.4z
			 M29.3,23.4h-1.1v-1.1h1.1V23.4z M27.7,23.4h-1.1v-1.1h1.1V23.4z M26.2,23.4h-1.1v-1.1h1.1V23.4z M24.6,23.4h-1.1v-1.1h1.1V23.4z
			 M23.1,23.4H22v-1.1h1.1V23.4z M21.5,23.4h-1.1v-1.1h1.1V23.4z M19.9,23.4h-1.1v-1.1h1.1V23.4z M18.4,23.4h-1.1v-1.1h1.1V23.4z
			 M16.8,23.4h-1.1v-1.1h1.1V23.4z M15.3,23.4h-1.1v-1.1h1.1V23.4z M15.3,23.9V25h-1.1v-1.1H15.3z M15.3,25.4v1.1h-1.1v-1.1H15.3z
			 M15.3,27v1.1h-1.1V27H15.3z M15.3,28.6v1.1h-1.1v-1.1H15.3z M15.3,30.1v1.1h-1.1v-1.1H15.3z M15.3,31.7v1.1h-1.1v-1.1H15.3z
			 M15.3,33.2v1.1h-1.1v-1.1H15.3z M15.3,34.8v1.1h-1.1v-1.1H15.3z M15.3,36.4v1.1h-1.1v-1.1H15.3z M15.3,37.9V39h-1.1v-1.1H15.3z
			 M15.3,39.5v1.1h-1.1v-1.1H15.3z M15.3,41v1.1h-1.1V41H15.3z M15.3,42.6v1.1h-1.1v-1.1H15.3z M15.3,44.2v1.1h-1.1v-1.1H15.3z
			 M15.3,45.7v1.1h-1.1v-1.1H15.3z M15.7,45.7h1.1v1.1h-1.1C15.7,46.8,15.7,45.7,15.7,45.7z M17.3,45.7h1.1v1.1h-1.1V45.7z
			 M18.8,45.7h1.1v1.1h-1.1V45.7z M20.4,45.7h1.1v1.1h-1.1V45.7z M21.9,45.7H23v1.1h-1.1V45.7z M23.5,45.7h1.1v1.1h-1.1V45.7z
			 M25.1,45.7h1.1v1.1h-1.1V45.7z M26.6,45.7h1.1v1.1h-1.1V45.7z M28.2,45.7h1.1v1.1h-1.1V45.7z M29.7,45.7h1.1v1.1h-1.1V45.7z
			 M31.3,45.7h1.1v1.1h-1.1C31.3,46.8,31.3,45.7,31.3,45.7z M32.9,45.7H34v1.1h-1.1V45.7z M34.4,45.7h1.1v1.1h-1.1V45.7z M36,45.7
			h1.1v1.1H36V45.7z M37.5,45.7h1.1v1.1h-1.1V45.7z M39.1,45.7h1.1v1.1h-1.1V45.7z M40.7,45.7h1.1v1.1h-1.1V45.7z M42.2,45.7h1.1
			v1.1h-1.1V45.7z M43.8,45.7h1.1v1.1h-1.1V45.7z M45.3,45.7h1.1v1.1h-1.1V45.7z M45.3,45.3v-1.1h1.1v1.1H45.3z M45.3,43.7v-1.1h1.1
			v1.1H45.3z M45.3,42.2v-1.1h1.1v1.1H45.3z M45.3,40.6v-1.1h1.1v1.1H45.3z M45.3,39v-1.1h1.1V39H45.3z M45.3,37.5v-1.1h1.1v1.1
			H45.3z M45.3,35.9v-1.1h1.1v1.1H45.3z M45.3,34.4v-1.1h1.1v1.1H45.3z M45.3,32.8v-1.1h1.1v1.1H45.3z M45.3,31.2v-1.1h1.1v1.1H45.3
			z M45.3,29.7v-1.1h1.1v1.1H45.3z M45.3,28.1V27h1.1v1.1H45.3z M45.3,26.6v-1.1h1.1v1.1H45.3z M45.3,25v-1.1h1.1V25H45.3z
			 M45.3,23.4v-1.1h1.1v1.1H45.3z M45.3,21.9v-1.1h1.1v1.1H45.3z M44.9,21.9h-1.1v-1.1h1.1V21.9z M43.3,21.9h-1.1v-1.1h1.1V21.9z
			 M41.8,21.9h-1.1v-1.1h1.1V21.9z M40.2,21.9h-1.1v-1.1h1.1V21.9z M38.7,21.9h-1.1v-1.1h1.1V21.9z M37.1,21.9H36v-1.1h1.1V21.9z
			 M35.5,21.9h-1.1v-1.1h1.1V21.9z M34,21.9h-1.1v-1.1H34V21.9z M32.4,21.9h-1.1v-1.1h1.1V21.9z M30.9,21.9h-1.1v-1.1h1.1V21.9z
			 M29.3,21.9h-1.1v-1.1h1.1V21.9z M27.7,21.9h-1.1v-1.1h1.1V21.9z M26.2,21.9h-1.1v-1.1h1.1V21.9z M24.6,21.9h-1.1v-1.1h1.1V21.9z
			 M23.1,21.9H22v-1.1h1.1V21.9z M21.5,21.9h-1.1v-1.1h1.1V21.9z M19.9,21.9h-1.1v-1.1h1.1V21.9z M18.4,21.9h-1.1v-1.1h1.1V21.9z
			 M16.8,21.9h-1.1v-1.1h1.1V21.9z M15.3,21.9h-1.1v-1.1h1.1V21.9z M13.7,21.9h-1.1v-1.1h1.1V21.9z M13.7,22.3v1.1h-1.1v-1.1H13.7z
			 M13.7,23.9V25h-1.1v-1.1H13.7z M13.7,25.4v1.1h-1.1v-1.1H13.7z M13.7,27v1.1h-1.1V27H13.7z M13.7,28.6v1.1h-1.1v-1.1H13.7z
			 M13.7,30.1v1.1h-1.1v-1.1H13.7z M13.7,31.7v1.1h-1.1v-1.1H13.7z M13.7,33.2v1.1h-1.1v-1.1H13.7z M13.7,34.8v1.1h-1.1v-1.1H13.7z
			 M13.7,36.4v1.1h-1.1v-1.1H13.7z M13.7,37.9V39h-1.1v-1.1H13.7z M13.7,39.5v1.1h-1.1v-1.1H13.7z M13.7,41v1.1h-1.1V41H13.7z
			 M13.7,42.6v1.1h-1.1v-1.1H13.7z M13.7,44.2v1.1h-1.1v-1.1H13.7z M13.7,45.7v1.1h-1.1v-1.1H13.7z M13.7,47.3v1.1h-1.1v-1.1H13.7z
			 M14.1,47.3h1.1v1.1h-1.1V47.3z M15.7,47.3h1.1v1.1h-1.1C15.7,48.4,15.7,47.3,15.7,47.3z M17.3,47.3h1.1v1.1h-1.1V47.3z
			 M18.8,47.3h1.1v1.1h-1.1V47.3z M20.4,47.3h1.1v1.1h-1.1V47.3z M21.9,47.3H23v1.1h-1.1V47.3z M23.5,47.3h1.1v1.1h-1.1V47.3z
			 M25.1,47.3h1.1v1.1h-1.1V47.3z M26.6,47.3h1.1v1.1h-1.1V47.3z M28.2,47.3h1.1v1.1h-1.1V47.3z M29.7,47.3h1.1v1.1h-1.1V47.3z
			 M31.3,47.3h1.1v1.1h-1.1C31.3,48.4,31.3,47.3,31.3,47.3z M32.9,47.3H34v1.1h-1.1V47.3z M34.4,47.3h1.1v1.1h-1.1V47.3z M36,47.3
			h1.1v1.1H36V47.3z M37.5,47.3h1.1v1.1h-1.1V47.3z M39.1,47.3h1.1v1.1h-1.1V47.3z M40.7,47.3h1.1v1.1h-1.1V47.3z M42.2,47.3h1.1
			v1.1h-1.1V47.3z M43.8,47.3h1.1v1.1h-1.1V47.3z M45.3,47.3h1.1v1.1h-1.1V47.3z M46.9,47.3H48v1.1h-1.1V47.3z M46.9,46.8v-1.1H48
			v1.1H46.9z M46.9,45.3v-1.1H48v1.1H46.9z M46.9,43.7v-1.1H48v1.1H46.9z M46.9,42.2v-1.1H48v1.1H46.9z M46.9,40.6v-1.1H48v1.1H46.9
			z M46.9,39v-1.1H48V39H46.9z M46.9,37.5v-1.1H48v1.1H46.9z M46.9,35.9v-1.1H48v1.1H46.9z M46.9,34.4v-1.1H48v1.1H46.9z M46.9,32.8
			v-1.1H48v1.1H46.9z M46.9,31.2v-1.1H48v1.1H46.9z M46.9,29.7v-1.1H48v1.1H46.9z M46.9,28.1V27H48v1.1H46.9z M46.9,26.6v-1.1H48
			v1.1H46.9z M46.9,25v-1.1H48V25H46.9z M46.9,23.4v-1.1H48v1.1H46.9z M46.9,21.9v-1.1H48v1.1H46.9z M46.9,20.3v-1.1H48v1.1H46.9z
			 M46.4,20.3h-1.1v-1.1h1.1V20.3z M44.9,20.3h-1.1v-1.1h1.1V20.3z M43.3,20.3h-1.1v-1.1h1.1V20.3z M41.8,20.3h-1.1v-1.1h1.1V20.3z
			 M40.2,20.3h-1.1v-1.1h1.1V20.3z M38.7,20.3h-1.1v-1.1h1.1V20.3z M37.1,20.3H36v-1.1h1.1V20.3z M35.5,20.3h-1.1v-1.1h1.1V20.3z
			 M34,20.3h-1.1v-1.1H34V20.3z M32.4,20.3h-1.1v-1.1h1.1V20.3z M30.9,20.3h-1.1v-1.1h1.1V20.3z M29.3,20.3h-1.1v-1.1h1.1V20.3z
			 M27.7,20.3h-1.1v-1.1h1.1V20.3z M26.2,20.3h-1.1v-1.1h1.1V20.3z M24.6,20.3h-1.1v-1.1h1.1V20.3z M23.1,20.3H22v-1.1h1.1V20.3z
			 M21.5,20.3h-1.1v-1.1h1.1V20.3z M19.9,20.3h-1.1v-1.1h1.1V20.3z M18.4,20.3h-1.1v-1.1h1.1V20.3z M16.8,20.3h-1.1v-1.1h1.1V20.3z
			 M15.3,20.3h-1.1v-1.1h1.1V20.3z M13.7,20.3h-1.1v-1.1h1.1V20.3z M12.1,20.3H11v-1.1h1.1V20.3z M12.1,20.8v1.1H11v-1.1H12.1z
			 M12.1,22.3v1.1H11v-1.1H12.1z M12.1,23.9V25H11v-1.1H12.1z M12.1,25.4v1.1H11v-1.1H12.1z M12.1,27v1.1H11V27H12.1z M12.1,28.6
			v1.1H11v-1.1H12.1z M12.1,30.1v1.1H11v-1.1H12.1z M12.1,31.7v1.1H11v-1.1H12.1z M12.1,33.2v1.1H11v-1.1H12.1z M12.1,34.8v1.1H11
			v-1.1H12.1z M12.1,36.4v1.1H11v-1.1H12.1z M12.1,37.9V39H11v-1.1H12.1z M12.1,39.5v1.1H11v-1.1H12.1z M12.1,41v1.1H11V41H12.1z
			 M12.1,42.6v1.1H11v-1.1H12.1z M12.1,44.2v1.1H11v-1.1H12.1z M12.1,45.7v1.1H11v-1.1H12.1z M12.1,47.3v1.1H11v-1.1H12.1z
			 M12.1,48.8v1.1H11v-1.1H12.1z M12.6,48.8h1.1v1.1h-1.1V48.8z M14.1,48.8h1.1v1.1h-1.1V48.8z M15.7,48.8h1.1v1.1h-1.1
			C15.7,49.9,15.7,48.8,15.7,48.8z M17.3,48.8h1.1v1.1h-1.1V48.8z M18.8,48.8h1.1v1.1h-1.1V48.8z M20.4,48.8h1.1v1.1h-1.1V48.8z
			 M21.9,48.8H23v1.1h-1.1V48.8z M23.5,48.8h1.1v1.1h-1.1V48.8z M25.1,48.8h1.1v1.1h-1.1V48.8z M26.6,48.8h1.1v1.1h-1.1V48.8z
			 M28.2,48.8h1.1v1.1h-1.1V48.8z M29.7,48.8h1.1v1.1h-1.1V48.8z M31.3,48.8h1.1v1.1h-1.1C31.3,49.9,31.3,48.8,31.3,48.8z
			 M32.9,48.8H34v1.1h-1.1V48.8z M34.4,48.8h1.1v1.1h-1.1V48.8z M36,48.8h1.1v1.1H36V48.8z M37.5,48.8h1.1v1.1h-1.1V48.8z
			 M39.1,48.8h1.1v1.1h-1.1V48.8z M40.7,48.8h1.1v1.1h-1.1V48.8z M42.2,48.8h1.1v1.1h-1.1V48.8z M43.8,48.8h1.1v1.1h-1.1V48.8z
			 M45.3,48.8h1.1v1.1h-1.1V48.8z M46.9,48.8H48v1.1h-1.1V48.8z M48.5,48.8h1.1v1.1h-1.1V48.8z M48.5,48.4v-1.1h1.1v1.1H48.5z
			 M48.5,46.8v-1.1h1.1v1.1H48.5z M48.5,45.3v-1.1h1.1v1.1H48.5z M48.5,43.7v-1.1h1.1v1.1H48.5z M48.5,42.2v-1.1h1.1v1.1H48.5z
			 M48.5,40.6v-1.1h1.1v1.1H48.5z M48.5,39v-1.1h1.1V39H48.5z M48.5,37.5v-1.1h1.1v1.1H48.5z M48.5,35.9v-1.1h1.1v1.1H48.5z
			 M48.5,34.4v-1.1h1.1v1.1H48.5z M48.5,32.8v-1.1h1.1v1.1H48.5z M48.5,31.2v-1.1h1.1v1.1H48.5z M48.5,29.7v-1.1h1.1v1.1H48.5z
			 M48.5,28.1V27h1.1v1.1H48.5z M48.5,26.6v-1.1h1.1v1.1H48.5z M48.5,25v-1.1h1.1V25H48.5z M48.5,23.4v-1.1h1.1v1.1H48.5z
			 M48.5,21.9v-1.1h1.1v1.1H48.5z M48.5,20.3v-1.1h1.1v1.1H48.5z M48.5,18.8v-1.1h1.1v1.1H48.5z M48,18.8h-1.1v-1.1H48V18.8z
			 M46.4,18.8h-1.1v-1.1h1.1V18.8z M44.9,18.8h-1.1v-1.1h1.1V18.8z M43.3,18.8h-1.1v-1.1h1.1V18.8z M41.8,18.8h-1.1v-1.1h1.1V18.8z
			 M40.2,18.8h-1.1v-1.1h1.1V18.8z M38.7,18.8h-1.1v-1.1h1.1V18.8z M37.1,18.8H36v-1.1h1.1V18.8z M35.5,18.8h-1.1v-1.1h1.1V18.8z
			 M34,18.8h-1.1v-1.1H34V18.8z M32.4,18.8h-1.1v-1.1h1.1V18.8z M30.9,18.8h-1.1v-1.1h1.1V18.8z M29.3,18.8h-1.1v-1.1h1.1V18.8z
			 M27.7,18.8h-1.1v-1.1h1.1V18.8z M26.2,18.8h-1.1v-1.1h1.1V18.8z M24.6,18.8h-1.1v-1.1h1.1V18.8z M23.1,18.8H22v-1.1h1.1V18.8z
			 M21.5,18.8h-1.1v-1.1h1.1V18.8z M19.9,18.8h-1.1v-1.1h1.1V18.8z M18.4,18.8h-1.1v-1.1h1.1V18.8z M16.8,18.8h-1.1v-1.1h1.1V18.8z
			 M15.3,18.8h-1.1v-1.1h1.1V18.8z M13.7,18.8h-1.1v-1.1h1.1V18.8z M12.1,18.8H11v-1.1h1.1V18.8z M10.6,18.8H9.5v-1.1h1.1V18.8z
			 M10.6,19.2v1.1H9.5v-1.1H10.6z M10.6,20.8v1.1H9.5v-1.1H10.6z M10.6,22.3v1.1H9.5v-1.1H10.6z M10.6,23.9V25H9.5v-1.1H10.6z
			 M10.6,25.4v1.1H9.5v-1.1H10.6z M10.6,27v1.1H9.5V27H10.6z M10.6,28.6v1.1H9.5v-1.1H10.6z M10.6,30.1v1.1H9.5v-1.1H10.6z
			 M10.6,31.7v1.1H9.5v-1.1H10.6z M10.6,33.2v1.1H9.5v-1.1H10.6z M10.6,34.8v1.1H9.5v-1.1H10.6z M10.6,36.4v1.1H9.5v-1.1H10.6z
			 M10.6,37.9V39H9.5v-1.1H10.6z M10.6,39.5v1.1H9.5v-1.1H10.6z M10.6,41v1.1H9.5V41H10.6z M10.6,42.6v1.1H9.5v-1.1H10.6z
			 M10.6,44.2v1.1H9.5v-1.1H10.6z M10.6,45.7v1.1H9.5v-1.1H10.6z M10.6,47.3v1.1H9.5v-1.1H10.6z M10.6,48.8v1.1H9.5v-1.1H10.6z
			 M10.6,50.4v1.1H9.5v-1.1H10.6z M11,50.4h1.1v1.1H11V50.4z M12.6,50.4h1.1v1.1h-1.1V50.4z M14.1,50.4h1.1v1.1h-1.1V50.4z
			 M15.7,50.4h1.1v1.1h-1.1C15.7,51.5,15.7,50.4,15.7,50.4z M17.3,50.4h1.1v1.1h-1.1V50.4z M18.8,50.4h1.1v1.1h-1.1V50.4z
			 M20.4,50.4h1.1v1.1h-1.1V50.4z M21.9,50.4H23v1.1h-1.1V50.4z M23.5,50.4h1.1v1.1h-1.1V50.4z M25.1,50.4h1.1v1.1h-1.1V50.4z
			 M26.6,50.4h1.1v1.1h-1.1V50.4z M28.2,50.4h1.1v1.1h-1.1V50.4z M29.7,50.4h1.1v1.1h-1.1V50.4z M31.3,50.4h1.1v1.1h-1.1
			C31.3,51.5,31.3,50.4,31.3,50.4z M32.9,50.4H34v1.1h-1.1V50.4z M34.4,50.4h1.1v1.1h-1.1V50.4z M36,50.4h1.1v1.1H36V50.4z
			 M37.5,50.4h1.1v1.1h-1.1V50.4z M39.1,50.4h1.1v1.1h-1.1V50.4z M40.7,50.4h1.1v1.1h-1.1V50.4z M42.2,50.4h1.1v1.1h-1.1V50.4z
			 M43.8,50.4h1.1v1.1h-1.1V50.4z M45.3,50.4h1.1v1.1h-1.1V50.4z M46.9,50.4H48v1.1h-1.1V50.4z M48.5,50.4h1.1v1.1h-1.1V50.4z
			 M50,50.4h1.1v1.1H50V50.4z M50,49.9v-1.1h1.1v1.1H50z M50,48.4v-1.1h1.1v1.1H50z M50,46.8v-1.1h1.1v1.1H50z M50,45.3v-1.1h1.1
			v1.1H50z M50,43.7v-1.1h1.1v1.1H50z M50,42.2v-1.1h1.1v1.1H50z M50,40.6v-1.1h1.1v1.1H50z M50,39v-1.1h1.1V39H50z M50,37.5v-1.1
			h1.1v1.1H50z M50,35.9v-1.1h1.1v1.1H50z M50,34.4v-1.1h1.1v1.1H50z M50,32.8v-1.1h1.1v1.1H50z M50,31.2v-1.1h1.1v1.1H50z M50,29.7
			v-1.1h1.1v1.1H50z M50,28.1V27h1.1v1.1H50z M50,26.6v-1.1h1.1v1.1H50z M50,25v-1.1h1.1V25H50z M50,23.4v-1.1h1.1v1.1H50z M50,21.9
			v-1.1h1.1v1.1H50z M50,20.3v-1.1h1.1v1.1H50z M50,18.8v-1.1h1.1v1.1H50z M50,17.2v-1.1h1.1v1.1H50z M49.6,17.2h-1.1v-1.1h1.1V17.2
			z M48,17.2h-1.1v-1.1H48V17.2z M46.4,17.2h-1.1v-1.1h1.1V17.2z M44.9,17.2h-1.1v-1.1h1.1V17.2z M43.3,17.2h-1.1v-1.1h1.1V17.2z
			 M41.8,17.2h-1.1v-1.1h1.1V17.2z M40.2,17.2h-1.1v-1.1h1.1V17.2z M38.7,17.2h-1.1v-1.1h1.1V17.2z M37.1,17.2H36v-1.1h1.1V17.2z
			 M35.5,17.2h-1.1v-1.1h1.1V17.2z M34,17.2h-1.1v-1.1H34V17.2z M32.4,17.2h-1.1v-1.1h1.1V17.2z M30.9,17.2h-1.1v-1.1h1.1V17.2z
			 M29.3,17.2h-1.1v-1.1h1.1V17.2z M27.7,17.2h-1.1v-1.1h1.1V17.2z M26.2,17.2h-1.1v-1.1h1.1V17.2z M24.6,17.2h-1.1v-1.1h1.1V17.2z
			 M23.1,17.2H22v-1.1h1.1V17.2z M21.5,17.2h-1.1v-1.1h1.1V17.2z M19.9,17.2h-1.1v-1.1h1.1V17.2z M18.4,17.2h-1.1v-1.1h1.1V17.2z
			 M16.8,17.2h-1.1v-1.1h1.1V17.2z M15.3,17.2h-1.1v-1.1h1.1V17.2z M13.7,17.2h-1.1v-1.1h1.1V17.2z M12.1,17.2H11v-1.1h1.1V17.2z
			 M10.6,17.2H9.5v-1.1h1.1V17.2z M9,17.2H7.9v-1.1H9V17.2z M9,17.6v1.1H7.9v-1.1H9z M9,19.2v1.1H7.9v-1.1H9z M9,20.8v1.1H7.9v-1.1
			H9z M9,22.3v1.1H7.9v-1.1H9z M9,23.9V25H7.9v-1.1H9z M9,25.4v1.1H7.9v-1.1H9z M9,27v1.1H7.9V27H9z M9,28.6v1.1H7.9v-1.1H9z
			 M9,30.1v1.1H7.9v-1.1H9z M9,31.7v1.1H7.9v-1.1H9z M9,33.2v1.1H7.9v-1.1H9z M9,34.8v1.1H7.9v-1.1H9z M9,36.4v1.1H7.9v-1.1H9z
			 M9,37.9V39H7.9v-1.1H9z M9,39.5v1.1H7.9v-1.1H9z M9,41v1.1H7.9V41H9z M9,42.6v1.1H7.9v-1.1H9z M9,44.2v1.1H7.9v-1.1H9z M9,45.7
			v1.1H7.9v-1.1H9z M9,47.3v1.1H7.9v-1.1H9z M9,48.8v1.1H7.9v-1.1H9z M9,50.4v1.1H7.9v-1.1H9z M9,52v1.1H7.9V52H9z M9.5,52h1.1v1.1
			H9.5V52z M11,52h1.1v1.1H11V52z M12.6,52h1.1v1.1h-1.1V52z M14.1,52h1.1v1.1h-1.1V52z M15.7,52h1.1v1.1h-1.1
			C15.7,53.1,15.7,52,15.7,52z M17.3,52h1.1v1.1h-1.1V52z M18.8,52h1.1v1.1h-1.1V52z M20.4,52h1.1v1.1h-1.1V52z M21.9,52H23v1.1
			h-1.1V52z M23.5,52h1.1v1.1h-1.1V52z M25.1,52h1.1v1.1h-1.1V52z M26.6,52h1.1v1.1h-1.1V52z M28.2,52h1.1v1.1h-1.1V52z M29.7,52
			h1.1v1.1h-1.1V52z M31.3,52h1.1v1.1h-1.1C31.3,53.1,31.3,52,31.3,52z M32.9,52H34v1.1h-1.1V52z M34.4,52h1.1v1.1h-1.1V52z M36,52
			h1.1v1.1H36V52z M37.5,52h1.1v1.1h-1.1V52z M39.1,52h1.1v1.1h-1.1V52z M40.7,52h1.1v1.1h-1.1V52z M42.2,52h1.1v1.1h-1.1V52z
			 M43.8,52h1.1v1.1h-1.1V52z M45.3,52h1.1v1.1h-1.1V52z M46.9,52H48v1.1h-1.1V52z M48.5,52h1.1v1.1h-1.1V52z M50,52h1.1v1.1H50V52z
			 M51.6,52h1.1v1.1h-1.1V52z M51.6,51.5v-1.1h1.1v1.1H51.6z M51.6,49.9v-1.1h1.1v1.1H51.6z M51.6,48.4v-1.1h1.1v1.1H51.6z
			 M51.6,46.8v-1.1h1.1v1.1H51.6z M51.6,45.3v-1.1h1.1v1.1H51.6z M51.6,43.7v-1.1h1.1v1.1H51.6z M51.6,42.2v-1.1h1.1v1.1H51.6z
			 M51.6,40.6v-1.1h1.1v1.1H51.6z M51.6,39v-1.1h1.1V39H51.6z M51.6,37.5v-1.1h1.1v1.1H51.6z M51.6,35.9v-1.1h1.1v1.1H51.6z
			 M51.6,34.4v-1.1h1.1v1.1H51.6z M51.6,32.8v-1.1h1.1v1.1H51.6z M51.6,31.2v-1.1h1.1v1.1H51.6z M51.6,29.7v-1.1h1.1v1.1H51.6z
			 M51.6,28.1V27h1.1v1.1H51.6z M51.6,26.6v-1.1h1.1v1.1H51.6z M51.6,25v-1.1h1.1V25H51.6z M51.6,23.4v-1.1h1.1v1.1H51.6z
			 M51.6,21.9v-1.1h1.1v1.1H51.6z M51.6,20.3v-1.1h1.1v1.1H51.6z M51.6,18.8v-1.1h1.1v1.1H51.6z M51.6,17.2v-1.1h1.1v1.1H51.6z
			 M51.1,14.5v1.1H50v-1.1H51.1z M49.6,14.5v1.1h-1.1v-1.1H49.6z M48,14.5v1.1h-1.1v-1.1H48z M46.4,14.5v1.1h-1.1v-1.1H46.4z
			 M44.9,14.5v1.1h-1.1v-1.1H44.9z M43.3,14.5v1.1h-1.1v-1.1H43.3z M41.8,14.5v1.1h-1.1v-1.1H41.8z M40.2,14.5v1.1h-1.1v-1.1H40.2z
			 M38.7,14.5v1.1h-1.1v-1.1H38.7z M37.1,14.5v1.1H36v-1.1H37.1z M35.5,14.5v1.1h-1.1v-1.1H35.5z M34,14.5v1.1h-1.1v-1.1H34z
			 M32.4,14.5v1.1h-1.1v-1.1H32.4z M30.9,14.5v1.1h-1.1v-1.1H30.9z M29.3,14.5v1.1h-1.1v-1.1H29.3z M27.7,14.5v1.1h-1.1v-1.1H27.7z
			 M26.2,14.5v1.1h-1.1v-1.1H26.2z M24.6,14.5v1.1h-1.1v-1.1H24.6z M23.1,14.5v1.1H22v-1.1H23.1z M21.5,14.5v1.1h-1.1v-1.1H21.5z
			 M19.9,14.5v1.1h-1.1v-1.1H19.9z M18.4,14.5v1.1h-1.1v-1.1H18.4z M16.8,14.5v1.1h-1.1v-1.1H16.8z M15.3,14.5v1.1h-1.1v-1.1H15.3z
			 M13.7,14.5v1.1h-1.1v-1.1H13.7z M12.1,14.5v1.1H11v-1.1H12.1z M10.6,14.5v1.1H9.5v-1.1H10.6z M9,14.5v1.1H7.9v-1.1H9z M6.3,14.5
			h1.1v1.1H6.3V14.5z M6.3,16.1h1.1v1.1H6.3V16.1z M6.3,17.6h1.1v1.1H6.3V17.6z M6.3,19.2h1.1v1.1H6.3V19.2z M6.3,20.8h1.1v1.1H6.3
			V20.8z M6.3,22.3h1.1v1.1H6.3V22.3z M6.3,23.9h1.1V25H6.3V23.9z M6.3,25.4h1.1v1.1H6.3V25.4z M6.3,27h1.1v1.1H6.3V27z M6.3,28.6
			h1.1v1.1H6.3V28.6z M6.3,30.1h1.1v1.1H6.3V30.1z M6.3,31.7h1.1v1.1H6.3V31.7z M6.3,33.2h1.1v1.1H6.3V33.2z M6.3,34.8h1.1v1.1H6.3
			V34.8z M6.3,36.4h1.1v1.1H6.3V36.4z M6.3,37.9h1.1V39H6.3V37.9z M6.3,39.5h1.1v1.1H6.3V39.5z M6.3,41h1.1v1.1H6.3V41z M6.3,42.6
			h1.1v1.1H6.3V42.6z M6.3,44.2h1.1v1.1H6.3V44.2z M6.3,45.7h1.1v1.1H6.3V45.7z M6.3,47.3h1.1v1.1H6.3V47.3z M6.3,48.8h1.1v1.1H6.3
			V48.8z M6.3,50.4h1.1v1.1H6.3V50.4z M6.3,52h1.1v1.1H6.3V52z M6.3,54.6v-1.1h1.1v1.1H6.3z M7.9,54.6v-1.1H9v1.1H7.9z M9.5,54.6
			v-1.1h1.1v1.1H9.5z M11,54.6v-1.1h1.1v1.1H11z M12.6,54.6v-1.1h1.1v1.1H12.6z M14.1,54.6v-1.1h1.1v1.1H14.1z M15.7,54.6v-1.1h1.1
			v1.1H15.7z M17.3,54.6v-1.1h1.1v1.1H17.3z M18.8,54.6v-1.1h1.1v1.1H18.8z M20.4,54.6v-1.1h1.1v1.1H20.4z M21.9,54.6v-1.1H23v1.1
			H21.9z M23.5,54.6v-1.1h1.1v1.1H23.5z M25.1,54.6v-1.1h1.1v1.1H25.1z M26.6,54.6v-1.1h1.1v1.1H26.6z M28.2,54.6v-1.1h1.1v1.1H28.2
			z M29.7,54.6v-1.1h1.1v1.1H29.7z M31.3,54.6v-1.1h1.1v1.1H31.3z M32.9,54.6v-1.1H34v1.1H32.9z M34.4,54.6v-1.1h1.1v1.1H34.4z
			 M36,54.6v-1.1h1.1v1.1H36z M37.5,54.6v-1.1h1.1v1.1H37.5z M39.1,54.6v-1.1h1.1v1.1H39.1z M40.7,54.6v-1.1h1.1v1.1H40.7z
			 M42.2,54.6v-1.1h1.1v1.1H42.2z M43.8,54.6v-1.1h1.1v1.1H43.8z M45.3,54.6v-1.1h1.1v1.1H45.3z M46.9,54.6v-1.1H48v1.1H46.9z
			 M48.5,54.6v-1.1h1.1v1.1H48.5z M50,54.6v-1.1h1.1v1.1H50z M51.6,54.6v-1.1h1.1v1.1H51.6z M54.2,54.6h-1.1v-1.1h1.1V54.6z
			 M54.2,53.1h-1.1V52h1.1V53.1z M54.2,51.5h-1.1v-1.1h1.1V51.5z M54.2,49.9h-1.1v-1.1h1.1V49.9z M54.2,48.4h-1.1v-1.1h1.1V48.4z
			 M54.2,46.8h-1.1v-1.1h1.1V46.8z M54.2,45.3h-1.1v-1.1h1.1V45.3z M54.2,43.7h-1.1v-1.1h1.1V43.7z M54.2,42.2h-1.1v-1.1h1.1V42.2z
			 M54.2,40.6h-1.1v-1.1h1.1V40.6z M54.2,39h-1.1v-1.1h1.1V39z M54.2,37.5h-1.1v-1.1h1.1V37.5z M54.2,35.9h-1.1v-1.1h1.1V35.9z
			 M54.2,34.4h-1.1v-1.1h1.1V34.4z M54.2,32.8h-1.1v-1.1h1.1V32.8z M54.2,31.2h-1.1v-1.1h1.1V31.2z M54.2,29.7h-1.1v-1.1h1.1V29.7z
			 M54.2,28.1h-1.1V27h1.1V28.1z M54.2,26.6h-1.1v-1.1h1.1V26.6z M54.2,25h-1.1v-1.1h1.1V25z M54.2,23.4h-1.1v-1.1h1.1V23.4z
			 M54.2,21.9h-1.1v-1.1h1.1V21.9z M54.2,20.3h-1.1v-1.1h1.1V20.3z M54.2,18.8h-1.1v-1.1h1.1V18.8z M54.2,17.2h-1.1v-1.1h1.1V17.2z
			 M54.2,15.6h-1.1v-1.1h1.1V15.6z"/>
		<g>
			<path class="st10" d="M23.5,13.1l-8.8,22.4h6.2c0.7,0,1.3,0.6,1.3,1.3l0,0c0,0.7,0.6,1.3,1.3,1.3h1.3c1.2,0,2.2,1,2.2,2.2l0,0
				c0,1.2,1,2.2,2.2,2.2h0.4c1.2,0,2.2-1,2.2-2.2v-2.6c0-1.2,1-2.2,2.2-2.2h5.4c0.9,0,1.7,0.8,1.7,1.7l0,0c0,0.9,0.8,1.7,1.7,1.7
				h1.4c0.9,0,1.7,0.8,1.7,1.7l0,0c0,0.9,0.8,1.7,1.7,1.7H49c0.9,0,1.7-0.8,1.7-1.7v-3.4c0-0.9,0.8-1.7,1.7-1.7h2.9V13.1H23.5z"/>
			<polygon class="st10" points="23.5,13.1 23.1,13.6 23.4,15.6 			"/>
			<polygon class="st10" points="55.1,36 55.6,35.5 54.6,34.8 			"/>
			<g>
				
					<rect x="1.4" y="17.2" transform="matrix(0.3678 -0.9299 0.9299 0.3678 -12.6389 26.9394)" class="st11" width="24.1" height="11.1"/>
				<path class="st12" d="M6,33.4l9.3-23.6l0,0c-1.8-0.7-3.9,0.2-4.6,2L4,28.8C3.2,30.6,4.1,32.7,6,33.4L6,33.4z"/>
				<path class="st12" d="M6.7,21.4l0.9,0.4l0.9-2.3l-1-0.4c-1.1-0.4-2-1.2-2.7-2.1c-0.3-0.4-0.7-0.8-1.3-1
					c-1.3-0.4-2.7,0.1-3.3,1.4c-0.7,1.4,0,3.1,1.4,3.6c0.5,0.2,1.1,0.2,1.6,0.1C4.4,20.8,5.6,20.9,6.7,21.4z"/>
			</g>
			<path class="st3" d="M23.1,13.6L14.2,36h6.2c0.7,0,1.3,0.6,1.3,1.3l0,0c0,0.7,0.6,1.3,1.3,1.3h1.3c1.2,0,2.2,1,2.2,2.2l0,0
				c0,1.2,1,2.2,2.2,2.2h0.4c1.2,0,2.2-1,2.2-2.2v-2.6c0-1.2,1-2.2,2.2-2.2h5.4c0.9,0,1.7,0.8,1.7,1.7l0,0c0,0.9,0.8,1.7,1.7,1.7
				h1.4c0.9,0,1.7,0.8,1.7,1.7l0,0c0,0.9,0.8,1.7,1.7,1.7h1.4c0.9,0,1.7-0.8,1.7-1.7v-3.4c0-0.9,0.8-1.7,1.7-1.7h2.9V13.6H23.1z"/>
		</g>
	</g>
</g>
</svg>
