<?xml version="1.0" encoding="utf-8"?>
<svg version="1.1" id="pan" xmlns="http://www.w3.org/2000/svg" xmlns:xlink="http://www.w3.org/1999/xlink" x="0px" y="0px"
	 viewBox="0 0 957.3 1089.6" style="enable-background:new 0 0 957.3 1089.6;" xml:space="preserve">
<style type="text/css">
	.st0{fill:#FCAE88;}
	.st1{fill:#E89B00;}
	.st2{fill:#315B81;}
	.st3{fill:#8CADFF;}
	.st4{fill:#B3C9FF;}
	.st5{fill:#37384F;}
	.st6{fill:#B37320;}
	.st7{fill:#FBC926;}
	.st8{opacity:0.4;fill:#FBC926;enable-background:new    ;}
	.st9{fill:#FFFFFF;}
	.st10{opacity:0.3;fill:#FFFFFF;enable-background:new    ;}
	.st11{fill:#D4D4D4;}
</style>
<path class="st0" d="M129.2,613.4l-4-12.7l-27.8-28.9l13.2-14.6l27.5,17.4l7.4,25.3l-6,24.2C134.5,622.4,130.8,618.4,129.2,613.4z"
	/>
<path class="st1" d="M20.3,389.9C33,451,66.1,530,87.6,568.5c4.9,8.7,16,11.8,24.7,6.9c6.8-3.8,10.4-11.6,8.9-19.3l-31.6-161
	L20.3,389.9z"/>
<path class="st2" d="M41.2,393.1l0.2-1.6l-21.1-1.6C33,451,66.1,530,87.6,568.5c4.2,7.5,13.1,11,21.3,8.4L41.2,393.1z"/>
<path class="st1" d="M112.5,203.9c1.5-17.7,12.2-45.5-9.3-48.3c-20.7-2.7-65.5,23.3-71.6,50.1c-6.8,29.8-12,154.2-12.5,173.1
	c-0.4,17.8,10.4,33.9,27,40.3l49.8-9.6C95.9,409.6,107.2,265.4,112.5,203.9z"/>
<path class="st2" d="M103.2,155.6c-20.7-2.7-65.5,23.3-71.6,50.1c-6.8,29.8-12,154.2-12.5,173.1c-0.4,17.8,10.4,33.9,27,40.3
	l4.4-0.8l-9.3-25.2L59.7,208h52.4c0.1-1.4,0.2-2.8,0.4-4.1C114,186.1,124.7,158.3,103.2,155.6z"/>
<path class="st3" d="M343.8,359.4H233.6c-5.5,0-8.9-4.5-7.6-10l43.5-186.8c1.3-5.5,6.8-10,12.3-10H392c5.5,0,8.9,4.5,7.6,10
	l-43.5,186.9C354.8,355,349.3,359.4,343.8,359.4z"/>
<path class="st4" d="M340.8,354.9H230.6c-5.5,0-8.9-4.5-7.6-10l43.5-186.8c1.3-5.5,6.8-10,12.3-10H389c5.5,0,8.9,4.5,7.6,10
	l-43.5,186.8C351.8,350.4,346.3,354.9,340.8,354.9z"/>
<path class="st5" d="M230.6,348.9c-0.6,0.1-1.1-0.2-1.6-0.5c-0.4-0.6-0.4-1.3-0.2-2l43.5-186.8c0.8-2.9,3.4-5,6.4-5.3h110.2
	c0.6-0.1,1.2,0.1,1.6,0.6c0.4,0.6,0.4,1.3,0.2,2l-43.5,186.8c-0.8,2.9-3.4,5-6.4,5.3H230.6V348.9z"/>
<path class="st6" d="M74.8,1073.9l-5.5-4.5c-3.6-2.9-6.9-6.1-10-9.6l-9.8-18.2l-36.2-13.4c-2.5,6.7-3.1,8.3-3.9,9.8L3,1051.2
	c-2.7,5.4-0.5,11.9,4.9,14.5c0.4,0.2,0.7,0.3,1.1,0.5l57.2,21.1C74.4,1090.5,81.7,1079.7,74.8,1073.9z"/>
<path class="st5" d="M77.1,1082c-1.5,4.5-6.4,6.9-10.9,5.5h-0.1l-57.2-21.1c-4.9-1.8-7.9-6.8-6.9-12L77.1,1082z"/>
<path class="st2" d="M267.3,486.4l-154.4-24.5C94.6,536.3,87.3,603,81.4,668.3c-2.5,27.2-21.2,102.7-23.2,109
	C36.6,844.8,5.2,916.7,0,1025.2l62.3,23L267.3,486.4z"/>
<path class="st6" d="M395.7,1073.9l-6.8-2.3c-4.4-1.5-8.6-3.4-12.7-5.5l-15.6-13.7H322c0,7.1-0.1,8.8-0.3,10.6l-1.5,14.7
	c-0.6,6,3.7,11.3,9.6,11.9c0.4,0,0.8,0.1,1.2,0.1h60.9C401.1,1089.6,404.2,1076.9,395.7,1073.9z"/>
<path class="st5" d="M400.8,1080.7c0.2,4.7-3.6,8.7-8.3,8.9c-0.1,0-0.1,0-0.2,0h-60.9c-5.2,0-9.8-3.7-10.7-8.9H400.8z"/>
<path class="st2" d="M342.9,730.8c-15-75.4-58.4-293.9-58.4-293.9l-139.8,76c23.3,72.6,51.8,132,80.7,189.5
	c9.4,18.7,26.3,85.2,28.3,98.1c11.3,73.1,8.7,157.5,47.4,253.2h72.3C373.4,1053.7,346.5,749.1,342.9,730.8z"/>
<path class="st7" d="M283.5,177.6c-26.1-26.5-83.4-52.5-118.2-52C142,126,95.6,149.8,76,163.2c-9.8,6.7-16.3,24.7-16.3,36.6
	c0,135.5,35.7,262.2,35.7,349.9h211.5C303.7,484.1,298,192.4,283.5,177.6z"/>
<polygon class="st0" points="205.1,109.4 211.8,163.3 160.4,171.2 162,92.8 "/>
<path class="st0" d="M225.4,104.4c0.3,9.4-9,17.9-26.6,11.2l-28.4-18l-13.6-40.3L172.4,23l52.4,3L225.4,104.4z"/>
<path class="st5" d="M172.1,14.4h50.7c4.1,0.2,16.5,20.8,2.8,26.9c0,0-8.6,14.6-9.1,20.7c-0.7,9.2-2.4,14.1-5.5,13.8
	c-0.2-1.7-0.6-3.4-1.2-5c-2.2-5.4-6.4-8.7-9.5-7.5c-3.1,1.2-3.7,6.6-1.5,12c3.3,7.9,0,27.7-3,35.6h-37.6c-8.1-2.8,0.9-16.4-1.6-24.6
	L147.1,56C140.3,30.9,149.5,14.2,172.1,14.4z"/>
<path class="st0" d="M217.1,92.6h8.5c2.5,0,4.5-2,4.5-4.5c0-0.6-0.1-1.1-0.3-1.7l-6.3-15.9h-6.3L217.1,92.6L217.1,92.6z"/>
<path class="st7" d="M228.3,152.5h-94.9l11.3-36.3c2.3-7.4,9.1-12.4,16.8-12.4h38.8c7.7,0,14.5,5,16.8,12.4L228.3,152.5z"/>
<path class="st2" d="M283.5,177.6c-26.1-26.5-83.4-52.5-118.2-52C142,126,95.6,149.8,76,163.2c-9.8,6.7-16.3,24.7-16.3,36.6
	c0,2.8,0,5.5,0.1,8.3h157.7c28.8,0,53.4,20.7,58.3,49l15,87.1c0.9,0.5,4.2,1,8.7,1.5C295.8,262.3,290.8,185,283.5,177.6z"/>
<path class="st2" d="M52.7,218.6c0.6,0.4,7-10.6,7-10.6h28.8c-16.3,0-28.5,13.2-31.9,31.2L52.7,218.6z"/>
<path class="st8" d="M225.4,212.8c-12.7,141.7,31.3,255.9,24.7,336.9h56.8c-2.8-57.1-7.5-286.1-18.2-353.7L225.4,212.8z"/>
<path class="st0" d="M364.3,255l-9.1-40c4.2-1.4,8.7,0.6,10.6,4.6l11.2,24.3L364.3,255z"/>
<path class="st9" d="M183.1,0c-23.6,0-42.8,19.1-42.8,42.8l0,0c0,6.6,5.4,12,12,12h27.2c6.2,0,12.2-2.1,17.1-5.9l7.9-6.1h33.3
	C237.9,19.1,216,0,183.1,0z"/>
<path class="st10" d="M165.8,37.5c-8.3,0-16.7-0.4-25-1.2c-0.3,2.1-0.5,4.3-0.5,6.5c0,6.6,5.4,12,12,12h27.2
	c6.2,0,12.2-2.1,17.1-5.9l7.9-6.1h33.3c0-5.7-1.3-11.3-3.8-16.4C218.2,33.2,193.5,37.5,165.8,37.5z"/>
<path class="st9" d="M197.1,47.5c-3.3-19-2-39,7.8-39c13.7,0,25.4,15.4,28.7,34.3C218.2,41.2,205.7,42.4,197.1,47.5z"/>
<path class="st11" d="M179.5,57.8h-27.2c-8.3,0-15-6.7-15-15c0.1-1.7,1.4-3,3.1-3c0,7,6.9,12,11.9,12h27.2c5.5,0,10.9-1.8,15.3-5.2
	l3.9-3c3.1-2.4,6.9-3.7,10.9-3.7H241c1.7,0,3,1.3,3,3s-1.3,3-3,3l0,0h-31.3c-2.6,0-5.1,0.9-7.2,2.5l-3.9,3
	C193.1,55.5,186.4,57.8,179.5,57.8z"/>
<path class="st9" d="M184.1,31.7c13.4,0,25.5-2.3,34.4-6.1c3.2-1.4,4.6-5.1,3.2-8.2c-0.4-0.8-0.9-1.6-1.6-2.2
	C211.5,7.6,198.4,3,183.1,3c-11.8,0-22.9,5.7-29.8,15.3c-2,2.8-1.4,6.7,1.4,8.7c0.6,0.4,1.2,0.7,1.9,0.9
	C165.6,30.5,174.8,31.8,184.1,31.7z"/>
<path class="st0" d="M368.9,231.5l-7.7,39.4l19,5.1l9.5-20.5c2.7-5.8,3.1-12.4,1.1-18.4l-3-9.2l1.3-5.6c1-4.2-1.1-8.6-5-10.5
	L368.9,231.5z"/>
<path class="st7" d="M377.5,257c-8.7-1.9-17.4,2.8-20.7,11l-29.9,75.1c-3.8-49.2-10.5-115.6-20.4-145.4
	c-5.6-16.9-34.1-40.8-55.8-39.3c-20.8,1.4-24.6,26.8-25.3,54.3c-0.8,30.6,20.7,156.2,24,174.9c1.6,9.1,31.1,53.3,62,54.6
	c28.9,1.2,59-39.7,63.5-59.3c9.3-40.6,15.2-80.9,16.9-107.1C392.3,266.9,386.2,258.9,377.5,257z"/>
<path class="st2" d="M355.1,272.1L326.9,343c-3.8-49.2-10.5-115.6-20.4-145.4c-5.6-16.9-34.1-40.8-55.8-39.3
	c-19.6,1.4-24.1,23.9-25.1,49.6c24.1,0,44.7,17.4,48.8,41.1l22,127.6c1.1,6.3,4,12.1,8.5,16.7c9.8,10.1,26.9,5.7,31.2-7.7
	l34.5-107.4c2.8-8.7-8.5-15.2-14.3-8.2C355.8,270.7,355.4,271.4,355.1,272.1z"/>
</svg>
