<?xml version="1.0" encoding="utf-8"?>
<svg version="1.1" id="pani" xmlns="http://www.w3.org/2000/svg" xmlns:xlink="http://www.w3.org/1999/xlink" x="0px" y="0px"
	 viewBox="0 0 957.3 1089.6" style="enable-background:new 0 0 957.3 1089.6;" xml:space="preserve">
<style type="text/css">
	.st0{fill:#B37320;}
	.st1{fill:#37384F;}
	.st2{fill:#315B81;}
	.st3{fill:#FBC926;}
	.st4{fill:#E89B00;}
	.st5{fill:#FCAE88;}
	.st6{fill:#8CADFF;}
	.st7{fill:#CCDBFF;}
	.st8{fill:#FFFFFF;}
	.st9{fill:#D4D4D4;}
</style>
<g>
	<g id="Warstwa_2_1_">
		<g id="Layer_1">
			<path class="st0" d="M818.3,1089.7h51.8c0.4,0,0.8-0.1,1.2-0.1c5.9-0.6,10-5.9,9.1-11.9l-2-14.8c-0.3-1.8-0.4-3.5-0.7-10.6h-34.1
				l-10.4,13.8c-4,2.1-8.1,4-12.5,5.5l-6.7,2.3C805.6,1076.8,809.1,1089.6,818.3,1089.7z"/>
			<path class="st1" d="M880.2,1080.7c-0.7,5.2-5,8.9-10.3,8.9H818c-0.1,0-0.1,0-0.2,0c-4.7-0.2-8.7-4.2-8.7-8.9H880.2z"/>
			<path class="st0" d="M657.4,1089.7h60.9c0.4,0,0.8-0.1,1.2-0.1c5.9-0.6,10-5.9,9.1-11.9l-2-14.8c-0.3-1.8-0.4-3.5-0.7-10.6h-38.5
				l-14.9,13.8c-4,2.1-8.1,4-12.5,5.5l-6.7,2.3C644.9,1076.8,648.4,1089.6,657.4,1089.7z"/>
			<path class="st1" d="M728.5,1080.7c-0.7,5.2-5,8.9-10.3,8.9h-60.9c-0.1,0-0.1,0-0.2,0c-4.7-0.2-8.7-4.2-8.7-8.9H728.5z"/>
			<path class="st1" d="M746.1,107.8c-4.6,17.7,14.7,64.2,54.9,56c14.5-2.9,25.9-16.2,22.3-28.3l-12.1-32.1l-50.1-9.9
				C752.7,95.8,747.9,100.9,746.1,107.8z"/>
			<path class="st2" d="M680.2,1055.1h48.5c15.6-49.9,51.7-163.4,54.3-276.5c29-128,65.8-238.6,70.9-285.4l-126.8-34.6l-42.5,318.6
				l-4.4,277.7V1055.1z"/>
			<path class="st2" d="M835.1,1053.3h48.5c23.6-112.6,38.3-474.6,27.4-560.2H784.5L835.1,1053.3z"/>
			<path class="st2" d="M700.9,396.5c0.7-47.9,1.3-91.4,10.1-146c2.9-17.7,33.9-49,52.6-51.8c17.9-2.7,18.5,26.9,17,45
				c-5.1,64.1-22.5,129.1-41.7,177.2L700.9,396.5z"/>
			<path class="st2" d="M739,420.9c-38.6,24.7-92.8,35.7-131.5,33.5c-5.4-0.3-10.1-3.7-12.3-8.8c-2.9-7.1,0.4-14.9,7.3-17.5
				l110.8-41.6L739,420.9z"/>
			<path class="st3" d="M712.6,547.6h206c-7.4-107.9-20.9-260-22.5-298c-1-22.6-12.9-42.5-33.7-49.6c-26.2-8.9-67.6-9.6-91.5-3.6
				c-43.9,11.9-48.6,51.6-49.1,79C720.8,323.1,714.6,464.2,712.6,547.6z"/>
			<polygon class="st4" points="773.2,547.6 769.9,547.5 770.1,253.3 773.4,253.4 			"/>
			<path class="st2" d="M880.7,277.8h17.1c-0.8-12.2-1.5-21.9-1.7-28.3c-1-22.6-12.9-42.5-33.7-49.6c-26.2-8.9-67.6-9.6-91.5-3.6
				c-37,10.1-46.1,39.9-48.4,65.4H886L880.7,277.8z"/>
			<path class="st4" d="M808.9,163.4l7,33.1l-67.2,15.2l8.8-36.6c2.6-10.5,11.9-17.9,22.9-17.9h20.8
				C804.9,157.2,808.1,159.8,808.9,163.4z"/>
			<path class="st4" d="M817.9,392.2c6.5-47.2,17.1-107.1,32.5-160c5-17.1,10.2-32.7,21.5-27.9c16.9,7.2,44.1,35.8,36.7,73.6
				c-12.4,62.6-30.7,97.9-55.6,143.1L817.9,392.2z"/>
			<path class="st4" d="M852.9,420.9c-42.6,18.6-123.9,9.9-166.2-1.8c-6.5-1.9-11.2-7.6-11.8-14.4c-0.6-8.6,5.7-15.9,14.2-16.3
				l145.8-6.3L852.9,420.9z"/>
			<path class="st5" d="M685.3,394.1c3.9,1.4,6.2,5.2,5.7,9.3c-0.5,4.5-4.7,7.6-9.2,6.9l-31.1-5.9l-15.4,4.3l6.5-13l21.9-8.7
				L685.3,394.1L685.3,394.1z"/>
			<path class="st6" d="M668,424.8l-36-128.6c-0.9-3.1-3.7-5.3-6.8-5.4H471.1c-0.5,0-0.9,0.1-1.4,0.2c-2.2,0.7-3.3,3-2.5,5.2
				l36,128.6l0,0c0.1,3,2.6,5.4,5.6,5.4h154.1C665.9,430.2,668.2,427.8,668,424.8z"/>
			<path class="st7" d="M460.9,291.1c-2.2,0.7-3.3,3-2.5,5.2l36,128.6l0,0c0.1,3,2.6,5.4,5.6,5.4h202.6c3,0,5.3-2.4,5.2-5.4
				l-0.1-3.5h-48.5l-35.8-125.2c-0.9-3.1-3.7-5.3-6.8-5.4H462.5C461.9,290.8,461.4,290.9,460.9,291.1z"/>
			<path class="st6" d="M799.1,421.4l0.1,3.5l0,0c0.1,3-2.2,5.4-5.2,5.4H664.7l0,0c-2.9,0-5.4-2.4-5.5-5.4l-0.1-3.5H799.1z"/>
			<path class="st5" d="M603.9,430.1h-40.5c0.3,3.8,2,6.3,4.5,7.5l4.4,2.1l4.6,6.7l0.1,0.1c4.7,6.4,13.3,8.4,19.9,4.5l10.8-4
				c3.4-1.2,5.4-4.5,5.3-8.1C612.7,434,608.7,430.2,603.9,430.1z"/>
			<path class="st5" d="M598.2,438.1l-14.5-15.4c-2.4-2.5-2.6-6.4-0.4-8.9l26.3,18.6L598.2,438.1z"/>
			<polygon class="st5" points="815,132.6 817.5,193.6 782.7,211.7 782.5,161.2 			"/>
			<path class="st5" d="M764.6,164.8c-3.5-12.7-6-25.8-7.5-39c-1.3-11.3,4.9-21.8,15.3-26c8.1-3.2,17.5-5.8,24.3-4
				c30.9,8.3,19.7,48.2,14.3,63.2c-1.3,3.8-4.1,7-7.6,9c-5.8,3.2-15.2,7.7-23.6,8.1C772.9,176.4,766.5,171.6,764.6,164.8z"/>
			<path class="st5" d="M767.9,154.1l-0.8-19.8h-5.7l-5.1,14.3c-0.2,0.4-0.3,1-0.2,1.5c0.1,2.2,2,4,4.2,4H767.9L767.9,154.1z"/>
			<path class="st1" d="M796.6,143.4c0.2,2.5,0.9,4.8,2.1,7c4.7,8.7,15.2,12.3,23.7,8c14.8-7.4,14.9-19.7,14.2-36.5v-0.3
				c-1.9-47.3-41.2-44.9-58.7-40.6l-18.7,4.5c-8.1,1.9,0.3,27.7,24.3,27.7C793.6,121.7,795.8,131.3,796.6,143.4z"/>
			<path class="st8" d="M742.1,110.2h54.4l8.1,6.1c5.1,3.8,11.1,5.9,17.3,5.9h6.1c6.6,0,11.8-5.4,11.5-12l0,0
				c-1-23.8-20.9-43-44.5-43C762.2,67.2,750.9,85.7,742.1,110.2z"/>
			<path class="st8" d="M784.7,98.5c0,3.4,2.9,6.2,6.3,6.2h38.3c0.9,0,1.8-0.2,2.7-0.5c3.8-1.5,5.6-5.8,3.9-9.7
				c-3.2-7.2-8.1-13.7-14.5-18.4h-14.5c-5.4-0.1-10.5,2-14.2,5.8c-3.9,4.1-6.6,9.3-7.9,15C784.7,97.4,784.6,98,784.7,98.5z"/>
			<path class="st9" d="M802.9,118.8l-4-3.1c-2.2-1.6-4.7-2.5-7.3-2.5h-52.4c-1.7,0-3.1-1.3-3.1-3c-0.1-1.7,1.2-3,2.9-3h52.4
				c4,0.1,7.9,1.4,11.1,3.8l4,3c4.5,3.4,10,5.2,15.5,5.2h6.1c4.9,0,11.7-5,11.4-12c1.7,0,3.1,1.3,3.2,3c0.3,8.3-6.1,15.1-14.4,15.1
				h-6.1C815.2,125.2,808.4,122.9,802.9,118.8z"/>
			<path class="st8" d="M821.9,95.3c0.5-0.2,1-0.5,1.5-0.8c2.8-2,3.4-6,1.2-8.9c-6.7-9.5-17.5-15.3-28.9-15.4
				c-14.5,0-26.7,4.5-34.7,12.1c-0.5,0.5-1,1.1-1.2,1.8c-1.5,3.2,0,7,3.2,8.6c8.7,3.9,20.2,6.2,32.9,6.2
				C804.8,99.1,813.5,97.8,821.9,95.3z"/>
			<path class="st4" d="M842.7,163.4l7,33.1l-67,15.2l8.8-36.6c2.6-10.5,11.9-17.9,22.9-17.9h20.8
				C838.8,157.2,842,159.8,842.7,163.4z"/>
			<path class="st2" d="M715.5,412.5c-7,0.2-13.2,3.8-16.9,9.6c44.3,10,115.4,15.8,154.3-1.2l-11.2-24.1l-4.1,12.5L715.5,412.5z"/>
			<path class="st2" d="M908.5,277.7c7.5-37.7-19.8-66.4-36.7-73.6c-11.3-4.8-16.5,10.7-21.5,27.9c-2.8,9.6-5.4,19.5-7.9,29.5
				c3.6,0,7.1,0.7,10.6,1.9c15.9,5.8,24.7,23.4,19.6,39.2l-34.7,105.9l15,12.3C877.9,375.7,896,340.5,908.5,277.7z"/>
		</g>
	</g>
</g>
</svg>
