<svg xmlns="http://www.w3.org/2000/svg" xmlns:xlink="http://www.w3.org/1999/xlink" viewBox="0 0 957.26 1089.58"><defs><style>.cls-1{isolation:isolate;}.cls-2{fill:#b37320;}.cls-3{fill:#37384f;}.cls-4{fill:#315b81;}.cls-15,.cls-5{fill:#fbc926;}.cls-6{fill:#e89b00;}.cls-7{fill:#fcae88;}.cls-8{fill:#8cadff;}.cls-9{fill:#ccdbff;}.cls-10,.cls-11{fill:#ccc;}.cls-11{opacity:0.3;}.cls-11,.cls-15{mix-blend-mode:multiply;}.cls-12{fill:#d4d4d4;}.cls-13,.cls-16,.cls-17{mix-blend-mode:screen;}.cls-13{fill:url(#linear-gradient);}.cls-14{fill:#b3c9ff;}.cls-15{opacity:0.4;}.cls-16{fill:url(#linear-gradient-2);}.cls-17{fill:url(#linear-gradient-3);}</style><linearGradient id="linear-gradient" x1="614.65" y1="74.71" x2="614.65" y2="102.48" gradientUnits="userSpaceOnUse"><stop offset="0" stop-color="#fff"/><stop offset="1"/></linearGradient><linearGradient id="linear-gradient-2" x1="214.59" y1="9.12" x2="214.59" y2="46.89" xlink:href="#linear-gradient"/><linearGradient id="linear-gradient-3" x1="187.21" y1="3.5" x2="187.21" y2="31.27" xlink:href="#linear-gradient"/></defs><title>doradztwo</title><g class="cls-1"><g id="Warstwa_2" data-name="Warstwa 2"><g id="Layer_1" data-name="Layer 1"><path class="cls-2" d="M632.84,1073.88l-6.75-2.33a85.92,85.92,0,0,1-12.66-5.54l-11-13.7H568.33c0,7.09-.08,8.85-.26,10.59l-1.44,14.65a10.85,10.85,0,0,0,10.87,12h51.85C638.25,1089.58,641.31,1076.92,632.84,1073.88Z"/><path class="cls-3" d="M637.88,1080.69a8.6,8.6,0,0,1-8.5,8.89H577.52a10.79,10.79,0,0,1-10.69-8.89Z"/><path class="cls-2" d="M793.55,1073.88l-6.75-2.33a86.38,86.38,0,0,1-12.66-5.54l-15.55-13.7H720c0,7.09-.09,8.85-.26,10.59l-1.44,14.65a10.85,10.85,0,0,0,10.86,12h60.92C799,1089.58,802,1076.92,793.55,1073.88Z"/><path class="cls-3" d="M798.59,1080.69a8.6,8.6,0,0,1-8.5,8.89H729.18a10.78,10.78,0,0,1-10.69-8.89Z"/><path class="cls-3" d="M646.27,97.32l-49.66,9.86-10.84,32c-3.08,12.07,8.81,25.33,23.37,28.21,40.63,8.05,58-38.21,52.72-55.8C659.81,104.79,654.85,99.73,646.27,97.32Z"/><path class="cls-4" d="M765.79,1055,750.24,778.37,694.92,460.92,569.56,495.38c6.93,46.6,48.18,156.81,82.34,284.26C659,892.28,699.65,1005.37,717.33,1055Z"/><path class="cls-4" d="M638.86,495.44H512.38c-7.38,85.33,21.76,445.76,49.89,558h48.46Z"/><path class="cls-4" d="M681.59,423.45c-21.11-47.87-41.1-112.73-48.82-176.46-2.18-18-2.75-47.47,15.17-44.85,18.79,2.75,51.08,34,54.65,51.6,11,54.37,13.43,97.73,16,145.4Z"/><path class="cls-4" d="M705.81,389.3l112.52,41.35a13.52,13.52,0,0,1-3.9,26.19C775.79,459,721.22,448,681.59,423.45Z"/><path class="cls-5" d="M693,278.56c-1.62-27.32-7.86-66.76-52.27-78.74-24.16-6-65.62-5.34-91.36,3.63-20.46,7.13-31.59,26.89-31.66,49.4-.12,37.84-7.45,189.31-10.58,296.78H713.18C707.7,466.63,695.77,326.1,693,278.56Z"/><rect class="cls-6" x="646.47" y="256.43" width="3.33" height="293.32" transform="translate(-15.94 26.84) rotate(-2.34)"/><path class="cls-4" d="M528.23,264.87H691.71c-3.29-25.4-13.62-55-51-65.05-24.16-6-65.62-5.34-91.36,3.63-20.46,7.13-31.59,26.89-31.66,49.4,0,6.39-.25,16-.63,28.18h17.14Z"/><path class="cls-6" d="M608.7,160.82h20.81a24.48,24.48,0,0,1,23.56,17.82l10.33,36.51L595.64,200l5.74-33A7.41,7.41,0,0,1,608.7,160.82Z"/><path class="cls-6" d="M567.64,423.45c-26.72-45-46.39-80.1-61.34-142.53-9-37.57,17.1-66.09,33.72-73.27,11.07-4.79,16.94,10.76,22.6,27.83,17.49,52.65,30.52,112.37,38.86,159.37Z"/><path class="cls-6" d="M584,384.9l146.14,6.31a15.52,15.52,0,0,1,3.61,30.43c-41.79,11.73-122.83,20.3-166.1,1.81Z"/><path class="cls-7" d="M734.16,396.81l21.38-7.05,22.31,8.66,7,12.91L769.21,407l-30.91,5.85a8.3,8.3,0,0,1-4.14-16Z"/><path class="cls-8" d="M758,432.77h154.1a5.36,5.36,0,0,0,5.36-5.37L948.3,299.3a4.14,4.14,0,0,0-4.13-5.37H790.08a7.16,7.16,0,0,0-6.61,5.37L752.64,427.4A5.37,5.37,0,0,0,758,432.77Z"/><path class="cls-9" d="M953,293.93H798.9a7.16,7.16,0,0,0-6.61,5.37L761.46,424H713v3.45a5.37,5.37,0,0,0,5.37,5.37H920.93a5.36,5.36,0,0,0,5.36-5.37l30.83-128.1A4.14,4.14,0,0,0,953,293.93Z"/><path class="cls-8" d="M761.46,424v3.45a5.36,5.36,0,0,1-5.36,5.37H626.93a5.36,5.36,0,0,1-5.36-5.37V424Z"/><path class="cls-7" d="M808.35,441.42a8.65,8.65,0,0,0,5.64,8.11l11,4.1a14.79,14.79,0,0,0,19.67-4.5l.08-.13,4.28-6.66,4.25-2.08c2.51-1.23,4.07-3.7,4.24-7.49H817A8.66,8.66,0,0,0,808.35,441.42Z"/><path class="cls-7" d="M811.39,434.89,837,416.36a6.63,6.63,0,0,1,0,8.89L823.1,440.52Z"/><polygon class="cls-7" points="627.66 164.82 629.52 215.15 593.95 197.09 593.95 136.3 627.66 164.82"/><path class="cls-7" d="M630.88,179.76c-8.43-.39-18-4.87-23.91-8.09a17.86,17.86,0,0,1-8-9c-6-15-18.77-54.7,11.81-63,6.77-1.83,16.31.75,24.49,4a26,26,0,0,1,16.34,25.89,232.28,232.28,0,0,1-5.92,38.79A14.7,14.7,0,0,1,630.88,179.76Z"/><path class="cls-7" d="M642.14,157.83h7.57a4,4,0,0,0,3.74-5.51L647.8,138.1h-5.66Z"/><path class="cls-3" d="M624.71,117.07c24,0,31.39-25.68,23.17-27.64L629,85c-17.72-4.33-57.1-6.68-57.1,40.39v.32c0,16.77.62,29,15.67,36.42a17.46,17.46,0,0,0,25.15-14.92C613.18,135,615.05,125.53,624.71,117.07Z"/><path class="cls-10" d="M611.34,71.21A42.77,42.77,0,0,0,568.57,114a12,12,0,0,0,12,12h6.06a27.92,27.92,0,0,0,17.14-5.88l7.91-6.14h54.44C656.19,89.61,644.19,71.21,611.34,71.21Z"/><path class="cls-11" d="M622.74,100.8a33.33,33.33,0,0,0-8.53-14.89,20.17,20.17,0,0,0-14.42-5.85H585.3a42.84,42.84,0,0,0-13.79,18.35,7.5,7.5,0,0,0,7,10.23h38.33A6.17,6.17,0,0,0,622.74,100.8Z"/><path class="cls-12" d="M586.64,129h-6.06a15.05,15.05,0,0,1-15-15,3.12,3.12,0,0,1,3.12-3c0,7,7,12,11.91,12h6.06a25,25,0,0,0,15.29-5.24l3.92-3A17.89,17.89,0,0,1,616.74,111h52.41a3,3,0,0,1,0,6H616.74a11.84,11.84,0,0,0-7.19,2.46l-3.92,3.05A31.11,31.11,0,0,1,586.64,129Z"/><path class="cls-13" d="M611.71,102.91c12.69,0,24.21-2.34,32.65-6.15a6.42,6.42,0,0,0,1.58-10.41c-8.28-7.57-20.65-12.12-35.18-12.12a34.26,34.26,0,0,0-28.28,15.33,6.4,6.4,0,0,0,3.15,9.67A88.74,88.74,0,0,0,611.71,102.91Z"/><path class="cls-6" d="M574.82,160.82h20.81a24.5,24.5,0,0,1,23.57,17.82l10.32,36.51L561.77,200l5.73-33A7.43,7.43,0,0,1,574.82,160.82Z"/><path class="cls-4" d="M582.45,412l-4.62-12.53-10.19,24c39.48,16.87,110.41,11.21,154.27,1.17a21.41,21.41,0,0,0-17.3-9.58Z"/><path class="cls-4" d="M567.64,423.45l14.53-12.28L543.28,305.7a30.34,30.34,0,0,1,28.46-40.83c-2.89-10-5.93-19.79-9.12-29.39-5.66-17.07-11.53-32.62-22.6-27.83-16.62,7.18-42.71,35.7-33.72,73.27C521.25,343.35,540.92,378.48,567.64,423.45Z"/><path class="cls-7" d="M129.18,613.4l-4-12.65-27.84-28.9,13.16-14.6L138,574.65,145.43,600l-6,24.24A17.1,17.1,0,0,1,129.18,613.4Z"/><path class="cls-6" d="M20.29,389.89C33,451,66.07,530,87.57,568.47a18.16,18.16,0,0,0,33.65-12.38l-31.6-161Z"/><path class="cls-4" d="M41.19,393.09l.16-1.62-21.06-1.58C33,451,66.07,530,87.57,568.47a18.12,18.12,0,0,0,21.31,8.41Z"/><path class="cls-6" d="M112.47,203.85c1.53-17.7,12.22-45.52-9.27-48.29-20.66-2.67-65.53,23.26-71.63,50.13-6.77,29.83-12,154.19-12.45,173.13a42.21,42.21,0,0,0,27,40.32l49.82-9.57S107.15,265.36,112.47,203.85Z"/><path class="cls-4" d="M103.2,155.56c-20.66-2.67-65.53,23.26-71.63,50.13-6.77,29.83-12,154.19-12.45,173.13a42.21,42.21,0,0,0,27,40.32l4.38-.84-9.28-25.21L59.71,208h52.4c.12-1.41.24-2.79.36-4.13C114,186.15,124.69,158.33,103.2,155.56Z"/><path class="cls-8" d="M343.82,359.42H233.59c-5.5,0-8.93-4.46-7.64-10l43.47-186.82c1.28-5.5,6.79-10,12.29-10H391.93c5.51,0,8.93,4.47,7.65,10L356.1,349.46C354.82,355,349.32,359.42,343.82,359.42Z"/><path class="cls-14" d="M340.8,354.9H230.57c-5.5,0-8.92-4.47-7.64-10L266.4,158.11c1.29-5.5,6.79-10,12.29-10H388.91c5.51,0,8.93,4.47,7.65,10L353.08,344.93C351.8,350.43,346.3,354.9,340.8,354.9Z"/><path class="cls-3" d="M230.57,348.86a2,2,0,0,1-1.56-.55,2.44,2.44,0,0,1-.2-2l43.48-186.82a7.31,7.31,0,0,1,6.4-5.3H388.91a2,2,0,0,1,1.57.55,2.44,2.44,0,0,1,.2,2L347.2,343.56a7.32,7.32,0,0,1-6.4,5.3Z"/><path class="cls-2" d="M74.76,1073.88l-5.52-4.52a86,86,0,0,1-10-9.58l-9.85-18.23L13.2,1028.2c-2.46,6.65-3.14,8.27-3.91,9.85l-6.42,13.24a10.85,10.85,0,0,0,6,15l57.15,21.07C74.41,1090.48,81.66,1079.66,74.76,1073.88Z"/><path class="cls-3" d="M77.13,1082a8.6,8.6,0,0,1-11,5.41L8.93,1066.35a10.79,10.79,0,0,1-6.95-12Z"/><path class="cls-4" d="M267.27,486.42,112.89,461.93C94.57,536.28,87.3,603,81.4,668.27,78.94,695.46,60.2,771,58.17,777.32,36.56,844.77,5.17,916.72,0,1025.2l62.28,23Z"/><path class="cls-2" d="M395.73,1073.88l-6.75-2.33a85.92,85.92,0,0,1-12.66-5.54l-15.56-13.7h-38.6c0,7.09-.08,8.85-.25,10.59l-1.45,14.65a10.85,10.85,0,0,0,10.87,12h60.91C401.14,1089.58,404.2,1076.92,395.73,1073.88Z"/><path class="cls-3" d="M400.77,1080.69a8.6,8.6,0,0,1-8.5,8.89H331.35a10.78,10.78,0,0,1-10.68-8.89Z"/><path class="cls-4" d="M342.89,730.8c-15.05-75.36-58.41-293.92-58.41-293.92l-139.78,76C168,585.5,196.52,644.93,225.43,702.39c9.41,18.7,26.32,85.23,28.3,98.07C265,873.54,262.41,958,301.14,1053.69h72.27S346.54,749.06,342.89,730.8Z"/><path class="cls-5" d="M283.45,177.58c-26.12-26.52-83.42-52.47-118.16-52C142,125.94,95.57,149.78,76,163.14c-9.8,6.69-16.33,24.68-16.33,36.55,0,135.52,35.67,262.24,35.67,349.94H306.86C303.66,484.13,298,192.36,283.45,177.58Z"/><polygon class="cls-7" points="205.07 109.45 211.83 163.28 160.38 171.2 161.96 92.82 205.07 109.45"/><path class="cls-7" d="M225.37,104.45c.25,9.44-9,17.87-26.65,11.19l-28.4-18L156.71,57.37,172.35,23l52.39,3Z"/><path class="cls-3" d="M172.1,14.4h50.72c4.13.17,16.54,20.81,2.76,26.86,0,0-8.63,14.59-9.08,20.7-.68,9.21-2.45,14.11-5.51,13.84a17.11,17.11,0,0,0-1.22-5c-2.21-5.37-6.45-8.71-9.47-7.47s-3.68,6.6-1.47,12c3.28,7.91,0,27.69-3,35.57H158.26c-8.08-2.84.93-16.4-1.62-24.58L147.15,56C140.27,30.93,149.52,14.16,172.1,14.4Z"/><path class="cls-7" d="M217.13,92.59h8.46a4.5,4.5,0,0,0,4.18-6.16l-6.31-15.9h-6.33Z"/><path class="cls-5" d="M228.32,152.46H133.39l11.26-36.33a17.61,17.61,0,0,1,16.81-12.39h38.79a17.6,17.6,0,0,1,16.81,12.39Z"/><path class="cls-4" d="M283.45,177.58c-26.12-26.52-83.42-52.47-118.16-52C142,125.94,95.57,149.78,76,163.14c-9.8,6.69-16.33,24.68-16.33,36.55,0,2.77,0,5.53.07,8.29H217.48A59.13,59.13,0,0,1,275.75,257l15.05,87.07c.85.51,4.22,1,8.66,1.54C295.82,262.26,290.75,185,283.45,177.58Z"/><path class="cls-4" d="M52.68,218.57c.61.4,7-10.59,7-10.59H88.46C72.19,208,60,221.23,56.59,239.21Z"/><path class="cls-15" d="M225.39,212.76c-12.66,141.7,31.26,255.87,24.66,336.87h56.81c-2.79-57.09-7.45-286.06-18.23-353.71Z"/><path class="cls-7" d="M364.25,255l-9.07-40a8.61,8.61,0,0,1,10.59,4.56l11.16,24.32Z"/><path class="cls-10" d="M183.11,0a42.77,42.77,0,0,0-42.78,42.77,12,12,0,0,0,12,12h27.19a27.91,27.91,0,0,0,17.14-5.87l7.91-6.14h33.3C237.89,19.15,216,0,183.11,0Z"/><path class="cls-11" d="M165.8,37.52a249.33,249.33,0,0,1-25-1.23,43.26,43.26,0,0,0-.49,6.48,12,12,0,0,0,12,12h27.19a27.91,27.91,0,0,0,17.14-5.87l7.91-6.14h33.3a36.82,36.82,0,0,0-3.83-16.41C218.16,33.16,193.5,37.52,165.8,37.52Z"/><path class="cls-16" d="M197.13,47.48c-3.26-18.95-2-39,7.84-39,13.66,0,25.43,15.36,28.68,34.3C218.22,41.21,205.69,42.44,197.13,47.48Z"/><path class="cls-12" d="M179.54,57.8H152.35a15.05,15.05,0,0,1-15-15,3.11,3.11,0,0,1,3.13-3c0,7,6.95,12,11.91,12h27.19a25,25,0,0,0,15.29-5.24l3.92-3.05a17.89,17.89,0,0,1,10.89-3.73h31.27a3,3,0,1,1,0,6H209.64a11.78,11.78,0,0,0-7.19,2.46l-3.92,3A31.16,31.16,0,0,1,179.54,57.8Z"/><path class="cls-17" d="M184.11,31.7c13.39,0,25.53-2.34,34.45-6.15a6.25,6.25,0,0,0,1.65-10.41C211.49,7.57,198.44,3,183.11,3a36.7,36.7,0,0,0-29.84,15.33A6.27,6.27,0,0,0,156.6,28,98.75,98.75,0,0,0,184.11,31.7Z"/><path class="cls-7" d="M368.87,231.49l-7.73,39.38,19,5.13,9.48-20.5a25.29,25.29,0,0,0,1.11-18.44l-3-9.18,1.32-5.61a9.31,9.31,0,0,0-5-10.47Z"/><path class="cls-5" d="M377.45,257a18.17,18.17,0,0,0-20.73,11l-29.89,75.07c-3.81-49.22-10.5-115.65-20.41-145.38-5.62-16.86-34.14-40.77-55.75-39.26-20.78,1.45-24.59,26.78-25.28,54.33-.76,30.57,20.69,156.19,24,174.85,1.59,9.06,31.14,53.31,62,54.56,28.86,1.16,59-39.66,63.5-59.27,9.26-40.63,15.21-80.94,16.87-107.07A18.14,18.14,0,0,0,377.45,257Z"/><path class="cls-4" d="M355.07,272.15l-28.24,70.92c-3.81-49.22-10.5-115.65-20.41-145.38-5.62-16.86-34.14-40.77-55.75-39.26-19.57,1.37-24.09,23.91-25.12,49.55a49.55,49.55,0,0,1,48.83,41.11l22,127.55a31.4,31.4,0,0,0,8.51,16.66c9.83,10.06,26.93,5.74,31.22-7.66l34.48-107.42c2.78-8.66-8.54-15.24-14.3-8.2A8.15,8.15,0,0,0,355.07,272.15Z"/></g></g></g></svg>