<?xml version="1.0" encoding="utf-8"?>
<!-- Generator: Adobe Illustrator 24.1.2, SVG Export Plug-In . SVG Version: 6.00 Build 0)  -->
<svg version="1.1" id="pani" xmlns="http://www.w3.org/2000/svg" xmlns:xlink="http://www.w3.org/1999/xlink" x="0px" y="0px"
	 viewBox="0 0 957.3 1089.6" style="enable-background:new 0 0 957.3 1089.6;" xml:space="preserve">
<style type="text/css">
	.st0{fill:#B37320;}
	.st1{fill:#37384F;}
	.st2{fill:#315B81;}
	.st3{fill:#FBC926;}
	.st4{fill:#E89B00;}
	.st5{fill:#FCAE88;}
	.st6{fill:#8CADFF;}
	.st7{fill:#CCDBFF;}
	.st8{fill:#CCCCCC;}
	.st9{opacity:0.3;fill:#CCCCCC;enable-background:new    ;}
	.st10{fill:#D4D4D4;}
</style>
<g>
	<g id="Warstwa_2_1_">
		<g id="Layer_1">
			<path class="st0" d="M782.6,1089.7h51.8c0.4,0,0.8-0.1,1.2-0.1c5.9-0.6,10-5.9,9.1-11.9l-2-14.8c-0.3-1.8-0.4-3.5-0.7-10.6h-34.1
				l-10.4,13.8c-4,2.1-8.1,4-12.5,5.5l-6.7,2.3C769.9,1076.8,773.4,1089.6,782.6,1089.7z"/>
			<path class="st1" d="M844.5,1080.7c-0.7,5.2-5,8.9-10.3,8.9h-51.9c-0.1,0-0.1,0-0.2,0c-4.7-0.2-8.7-4.2-8.7-8.9H844.5z"/>
			<path class="st0" d="M621.7,1089.7h60.9c0.4,0,0.8-0.1,1.2-0.1c5.9-0.6,10-5.9,9.1-11.9l-2-14.8c-0.3-1.8-0.4-3.5-0.7-10.6h-38.5
				l-14.9,13.8c-4,2.1-8.1,4-12.5,5.5l-6.7,2.3C609.2,1076.8,612.7,1089.6,621.7,1089.7z"/>
			<path class="st1" d="M692.8,1080.7c-0.7,5.2-5,8.9-10.3,8.9h-60.9c-0.1,0-0.1,0-0.2,0c-4.7-0.2-8.7-4.2-8.7-8.9H692.8z"/>
			<path class="st1" d="M710.4,107.8c-4.6,17.7,14.7,64.2,54.9,56c14.5-2.9,25.9-16.2,22.3-28.3l-12.1-32.1l-50.1-9.9
				C717,95.8,712.2,100.9,710.4,107.8z"/>
			<path class="st2" d="M644.5,1055.1H693c15.6-49.9,51.7-163.4,54.3-276.5c29-128,65.8-238.6,70.9-285.4l-126.8-34.6l-42.5,318.6
				l-4.4,277.7L644.5,1055.1z"/>
			<path class="st2" d="M799.4,1053.3h48.5c23.6-112.6,38.3-474.6,27.4-560.2l-126.5,0L799.4,1053.3z"/>
			<path class="st2" d="M665.2,396.5c0.7-47.9,1.3-91.4,10.1-146c2.9-17.7,33.9-49,52.6-51.8c17.9-2.7,18.5,26.9,17,45
				c-5.1,64.1-22.5,129.1-41.7,177.2L665.2,396.5z"/>
			<path class="st2" d="M703.3,420.9c-38.6,24.7-92.8,35.7-131.5,33.5c-5.4-0.3-10.1-3.7-12.3-8.8c-2.9-7.1,0.4-14.9,7.3-17.5
				l110.8-41.6L703.3,420.9z"/>
			<path class="st3" d="M676.9,547.6l206,0c-7.4-107.9-20.9-260-22.5-298c-1-22.6-12.9-42.5-33.7-49.6c-26.2-8.9-67.6-9.6-91.5-3.6
				c-43.9,11.9-48.6,51.6-49.1,79C685.1,323.1,678.9,464.2,676.9,547.6z"/>
			<polygon class="st4" points="737.5,547.6 734.2,547.5 734.4,253.3 737.7,253.4 			"/>
			<path class="st2" d="M845,277.8h17.1c-0.8-12.2-1.5-21.9-1.7-28.3c-1-22.6-12.9-42.5-33.7-49.6c-26.2-8.9-67.6-9.6-91.5-3.6
				c-37,10.1-46.1,39.9-48.4,65.4l163.5,0L845,277.8z"/>
			<path class="st4" d="M773.2,163.4l7,33.1l-67.2,15.2l8.8-36.6c2.6-10.5,11.9-17.9,22.9-17.9h20.8
				C769.2,157.2,772.4,159.8,773.2,163.4z"/>
			<path class="st4" d="M782.2,392.2c6.5-47.2,17.1-107.1,32.5-160c5-17.1,10.2-32.7,21.5-27.9c16.9,7.2,44.1,35.8,36.7,73.6
				c-12.4,62.6-30.7,97.9-55.6,143.1L782.2,392.2z"/>
			<path class="st4" d="M817.2,420.9c-42.6,18.6-123.9,9.9-166.2-1.8c-6.5-1.9-11.2-7.6-11.8-14.4c-0.6-8.6,5.7-15.9,14.2-16.3
				l145.8-6.3L817.2,420.9z"/>
			<path class="st5" d="M649.6,394.1c3.9,1.4,6.2,5.2,5.7,9.3c-0.5,4.5-4.7,7.6-9.2,6.9l-31.1-5.9l-15.4,4.3l6.5-13l21.9-8.7
				L649.6,394.1L649.6,394.1z"/>
			<path class="st6" d="M632.3,424.8l-36-128.6c-0.9-3.1-3.7-5.3-6.8-5.4l-154.1,0c-0.5,0-0.9,0.1-1.4,0.2c-2.2,0.7-3.3,3-2.5,5.2
				l36,128.6l0,0c0.1,3,2.6,5.4,5.6,5.4l154.1,0C630.2,430.2,632.5,427.8,632.3,424.8z"/>
			<path class="st7" d="M425.2,291.1c-2.2,0.7-3.3,3-2.5,5.2l36,128.6l0,0c0.1,3,2.6,5.4,5.6,5.4l202.6,0c3,0,5.3-2.4,5.2-5.4
				l-0.1-3.5l-48.5,0l-35.8-125.2c-0.9-3.1-3.7-5.3-6.8-5.4l-154.1,0C426.2,290.8,425.7,290.9,425.2,291.1z"/>
			<path class="st6" d="M763.4,421.4l0.1,3.5l0,0c0.1,3-2.2,5.4-5.2,5.4l-129.3,0l0,0c-2.9,0-5.4-2.4-5.5-5.4l-0.1-3.5L763.4,421.4z
				"/>
			<path class="st5" d="M568.2,430.1h-40.5c0.3,3.8,2,6.3,4.5,7.5l4.4,2.1l4.6,6.7l0.1,0.1c4.7,6.4,13.3,8.4,19.9,4.5L572,447
				c3.4-1.2,5.4-4.5,5.3-8.1C577,434,573,430.2,568.2,430.1z"/>
			<path class="st5" d="M562.5,438.1l-14.5-15.4c-2.4-2.5-2.6-6.4-0.4-8.9l26.3,18.6L562.5,438.1z"/>
			<polygon class="st5" points="779.3,132.6 781.8,193.6 747,211.7 746.8,161.2 			"/>
			<path class="st5" d="M728.9,164.8c-3.5-12.7-6-25.8-7.5-39c-1.3-11.3,4.9-21.8,15.3-26c8.1-3.2,17.5-5.8,24.3-4
				c30.9,8.3,19.7,48.2,14.3,63.2c-1.3,3.8-4.1,7-7.6,9c-5.8,3.2-15.2,7.7-23.6,8.1C737.2,176.4,730.8,171.6,728.9,164.8z"/>
			<path class="st5" d="M732.2,154.1l-0.8-19.8l-5.7,0l-5.1,14.3c-0.2,0.4-0.3,1-0.2,1.5c0.1,2.2,2,4,4.2,4h7.6H732.2z"/>
			<path class="st1" d="M760.9,143.4c0.2,2.5,0.9,4.8,2.1,7c4.7,8.7,15.2,12.3,23.7,8c14.8-7.4,14.9-19.7,14.2-36.5l0-0.3
				c-1.9-47.3-41.2-44.9-58.7-40.6l-18.7,4.5c-8.1,1.9,0.3,27.7,24.3,27.7C757.9,121.7,760.1,131.3,760.9,143.4z"/>
			<path class="st8" d="M706.4,110.2l54.4,0l8.1,6.1c5.1,3.8,11.1,5.9,17.3,5.9h6.1c6.6,0,11.8-5.4,11.5-12l0,0
				c-1-23.8-20.9-43-44.5-43C726.5,67.2,715.2,85.7,706.4,110.2z"/>
			<path class="st9" d="M749,98.5c0,3.4,2.9,6.2,6.3,6.2l38.3,0c0.9,0,1.8-0.2,2.7-0.5c3.8-1.5,5.6-5.8,3.9-9.7
				c-3.2-7.2-8.1-13.7-14.5-18.4h-14.5c-5.4-0.1-10.5,2-14.2,5.8c-3.9,4.1-6.6,9.3-7.9,15C749,97.4,748.9,98,749,98.5z"/>
			<path class="st10" d="M767.2,118.8l-4-3.1c-2.2-1.6-4.7-2.5-7.3-2.5l-52.4,0c-1.7,0-3.1-1.3-3.1-3c-0.1-1.7,1.2-3,2.9-3l52.4,0
				c4,0.1,7.9,1.4,11.1,3.8l4,3c4.5,3.4,10,5.2,15.5,5.2h6.1c4.9,0,11.7-5,11.4-12c1.7,0,3.1,1.3,3.2,3c0.3,8.3-6.1,15.1-14.4,15.1
				h-6.1C779.5,125.2,772.7,122.9,767.2,118.8z"/>
			<path class="st8" d="M786.2,95.3c0.5-0.2,1-0.5,1.5-0.8c2.8-2,3.4-6,1.2-8.9c-6.7-9.5-17.5-15.3-28.9-15.4
				c-14.5,0-26.7,4.5-34.7,12.1c-0.5,0.5-1,1.1-1.2,1.8c-1.5,3.2,0,7,3.2,8.6c8.7,3.9,20.2,6.2,32.9,6.2
				C769.1,99.1,777.8,97.8,786.2,95.3z"/>
			<path class="st4" d="M807,163.4l7,33.1L747,211.7l8.8-36.6c2.6-10.5,11.9-17.9,22.9-17.9l20.8,0
				C803.1,157.2,806.3,159.8,807,163.4z"/>
			<path class="st2" d="M679.8,412.5c-7,0.2-13.2,3.8-16.9,9.6c44.3,10,115.4,15.8,154.3-1.2L806,396.8l-4.1,12.5L679.8,412.5z"/>
			<path class="st2" d="M872.8,277.7c7.5-37.7-19.8-66.4-36.7-73.6c-11.3-4.8-16.5,10.7-21.5,27.9c-2.8,9.6-5.4,19.5-7.9,29.5
				c3.6,0,7.1,0.7,10.6,1.9c15.9,5.8,24.7,23.4,19.6,39.2l-34.7,105.9l15,12.3C842.2,375.7,860.3,340.5,872.8,277.7z"/>
		</g>
	</g>
</g>
</svg>
