<svg xmlns="http://www.w3.org/2000/svg" viewBox="0 0 243.66 62.4"><defs><style>.cls-1{fill:#333;}.cls-2{fill:#91d3f0;}.cls-3{fill:#c7134d;}.cls-4{fill:#840e31;}.cls-5{fill:#00a2cb;}.cls-6{fill:#6c6969;}.cls-7{fill:#83bb26;}</style></defs><title>logo-gonar</title><g id="Warstwa_2" data-name="Warstwa 2"><g id="Warstwa_1-2" data-name="Warstwa 1"><path class="cls-1" d="M87.32,28c-3.63,0-6.26,1-7.87,3S77,35.77,77,39.26a16.6,16.6,0,0,0,.6,4.63,10.18,10.18,0,0,0,1.8,3.57,8.12,8.12,0,0,0,3,2.33,10,10,0,0,0,4.2.82c.87,0,1.61,0,2.22,0a10.22,10.22,0,0,0,1.63-.2v-12h7.8V55.46a29.7,29.7,0,0,1-4.5,1.18,40.15,40.15,0,0,1-7.65.62,19.82,19.82,0,0,1-7.07-1.2,14.7,14.7,0,0,1-5.43-3.5,15.44,15.44,0,0,1-3.47-5.65,22.08,22.08,0,0,1-1.23-7.65,20.45,20.45,0,0,1,1.35-7.69A16.5,16.5,0,0,1,74,25.89a15.61,15.61,0,0,1,5.53-3.52,19,19,0,0,1,6.77-1.2,28.12,28.12,0,0,1,4.42.32,29.08,29.08,0,0,1,3.4.75,16.2,16.2,0,0,1,2.35.88c.62.3,1.06.53,1.33.7l-2.25,6.25a20.29,20.29,0,0,0-3.68-1.48A15.83,15.83,0,0,0,87.32,28Z"/><path class="cls-1" d="M137.51,39.26a21.2,21.2,0,0,1-1.33,7.83,16.11,16.11,0,0,1-3.62,5.65,14.88,14.88,0,0,1-5.47,3.42,19.87,19.87,0,0,1-6.83,1.15,19.33,19.33,0,0,1-6.7-1.15,15.42,15.42,0,0,1-5.5-3.42,16.28,16.28,0,0,1-3.7-5.65A21.19,21.19,0,0,1,103,39.26a20.18,20.18,0,0,1,1.4-7.82,16.61,16.61,0,0,1,3.77-5.67,15.62,15.62,0,0,1,5.5-3.45,18.77,18.77,0,0,1,6.57-1.15,19.29,19.29,0,0,1,6.7,1.15,15.36,15.36,0,0,1,5.5,3.45,16.17,16.17,0,0,1,3.7,5.67A21,21,0,0,1,137.51,39.26Zm-26.45,0a15.55,15.55,0,0,0,.63,4.6,10.41,10.41,0,0,0,1.8,3.53,7.94,7.94,0,0,0,2.87,2.27,9.86,9.86,0,0,0,7.78,0,8,8,0,0,0,2.9-2.27,10.59,10.59,0,0,0,1.8-3.53,15.9,15.9,0,0,0,.62-4.6,16.24,16.24,0,0,0-.62-4.62,10.7,10.7,0,0,0-1.8-3.55,8,8,0,0,0-2.9-2.27,9,9,0,0,0-3.88-.8,8.87,8.87,0,0,0-3.9.82,8.24,8.24,0,0,0-2.87,2.3,10.51,10.51,0,0,0-1.8,3.55A15.68,15.68,0,0,0,111.06,39.26Z"/><path class="cls-1" d="M165.84,56.61l-15.55-22v22h-7.7V22h6.35l15.7,21.29V22h7.74V56.61Z"/><path class="cls-1" d="M203.78,56.61l-2.57-7.5H187.68l-2.54,7.5H177L190.88,22h7.39c1.14,2.4,13.86,34.64,13.86,34.64Zm-9.37-26.79c-.17.5-.43,1.19-.76,2.05s-.72,1.87-1.15,3-.91,2.39-1.43,3.75-1.07,2.8-1.62,4.29h9.91c-.53-1.5-1-2.93-1.54-4.3s-1-2.62-1.42-3.76-.84-2.13-1.17-3S194.62,30.31,194.41,29.82Z"/><path class="cls-1" d="M225.47,22.14c5.19,0,9.18.35,11.94,2.2s4.15,4.73,4.15,8.63a9.79,9.79,0,0,1-1.67,5.92,11,11,0,0,1-4.83,3.57c.7.87,8.6,14.15,8.6,14.15h-8.29L227.67,44h-4.55V56.61h-7.8V22S224,22.14,225.47,22.14Zm.44,6.08c-.56,0-1.07,0-1.52.05l-1.27.1v9.39h2.2q4.4,0,6.29-1.09a4,4,0,0,0,1.9-3.75,3.83,3.83,0,0,0-1.92-3.63A12,12,0,0,0,225.91,28.22Z"/><polygon class="cls-2" points="0 62.4 0 16.79 11.95 22.97 11.95 51.39 0 62.4"/><polygon class="cls-3" points="27.68 13.37 11.95 22.97 0 16.79 27.68 0 27.68 13.37"/><polygon class="cls-4" points="27.68 13.37 43.76 22.97 55.7 16.79 27.68 0 27.68 13.37"/><polygon class="cls-2" points="55.7 35.49 55.7 62.4 43.76 51.39 43.76 46.56 55.7 35.49"/><polygon class="cls-2" points="55.7 16.79 55.7 29.92 43.76 29.92 43.76 22.97 55.7 16.79"/><polygon class="cls-5" points="55.7 35.49 43.76 46.56 43.76 46.56 27.68 35.49 55.7 35.49"/><polygon class="cls-6" points="98.3 38.25 90.45 45.52 90.43 45.52 82.57 38.25 98.3 38.25"/><polygon class="cls-7" points="11.95 51.39 43.76 51.39 55.7 62.4 0 62.4 11.95 51.39"/></g></g></svg>