<?xml version="1.0" encoding="utf-8"?>
<svg version="1.1" id="Warstwa_1" xmlns="http://www.w3.org/2000/svg" xmlns:xlink="http://www.w3.org/1999/xlink" x="0px" y="0px"
	 viewBox="0 0 1019.7 631.1" style="enable-background:new 0 0 1019.7 631.1;" xml:space="preserve">
<style type="text/css">
	.st0{fill-rule:evenodd;clip-rule:evenodd;fill:#8CBCD2;}
	.st1{fill-rule:evenodd;clip-rule:evenodd;fill:#AED2E2;}
	.st2{fill-rule:evenodd;clip-rule:evenodd;fill:#69AE17;}
	.st3{fill:#195852;}
	.st4{fill:#DADADA;}
	.st5{fill:#86A5B0;}
	.st6{fill:#0F3858;}
	.st7{fill:#FFFFFF;}
	.st8{fill:#9A9A9A;}
	.st9{fill:#61C1C5;}
	.st10{fill:#94DADD;}
	.st11{fill:#545766;}
	.st12{fill:none;stroke:#0F3858;stroke-miterlimit:10;}
	.st13{opacity:0.3;fill:#0A1925;enable-background:new    ;}
	.st14{fill:#FFFFB3;}
	.st15{fill:#5F8897;}
	.st16{fill:#111224;}
	.st17{fill:#BCDD31;}
	.st18{fill:#69AE17;}
	.st19{fill:none;stroke:#F2651D;stroke-miterlimit:10;}
	.st20{fill:#F2651D;}
	.st21{enable-background:new    ;}
</style>
<title>oferta-banner</title>
<g id="Warstwa_2_1_">
	<g id="Objects">
		<path class="st0" d="M251,115.7c136.7,0,247.4,101.7,247.4,227.3c-0.1,49.9-17.7,98.3-49.7,136.7c-65.3,10.1-111,5.5-191.8,5.5
			c-77.7,0-116.2,0.6-180.1,0.9C42.4,447,3.6,397.2,3.6,343C3.6,217.5,114.4,115.7,251,115.7z"/>
		<path class="st1" d="M469.1,149.6c162.5,0,294.2,96.2,294.2,214.9c0,48.5-22,93.2-59.1,129.2c-77.7,9.5-132,5.2-228.1,5.2
			c-92.4,0-159.8,0.6-235.8,0.8c-41-37-65.5-84.1-65.5-135.2C174.9,245.9,306.6,149.6,469.1,149.6z"/>
		<path class="st2" d="M457.5,548.4c138.9,0,269.8-19.8,269.8-44.1c0-9.9,4.5-18.8-27.2-26.1c-66.3-1.9-154.5-1.1-236.6-1.1
			c-78.9,0-136.4,0-201.3-0.2c-35,7.5-204.5,9.9-204.5,20.3C57.7,521.4,318.7,548.4,457.5,548.4z"/>
		<rect x="92.5" y="416.4" class="st3" width="4.5" height="65.5"/>
		<path class="st3" d="M94.7,450.1H74.6c-9.3,0-16.9-7.6-16.9-16.9l0,0v-19.4h3.9v19.4c0,7.2,5.8,13,13,13h20.1V450.1z"/>
		<rect x="406.2" y="214.3" class="st4" width="262.3" height="110.9"/>
		<rect x="413.3" y="322.7" class="st5" width="277.8" height="154.2"/>
		<polygon class="st4" points="284.5,476.9 160.7,476.9 160.7,272.7 284.5,213.3 		"/>
		<polygon class="st6" points="311.1,206.7 138.6,288.1 133.5,277.2 306,195.7 		"/>
		<rect x="406.2" y="211.3" class="st6" width="284.9" height="12.1"/>
		<rect x="284.5" y="147.8" class="st7" width="128.8" height="329.1"/>
		<rect x="302.6" y="167" class="st8" width="93.6" height="310"/>
		<rect x="314.4" y="178.3" class="st9" width="68.7" height="143.9"/>
		<polygon class="st10" points="383.1,179.1 314.4,322.2 383.1,322.2 		"/>
		<rect x="277.9" y="322.2" class="st6" width="141.9" height="10.6"/>
		<rect x="191" y="344.8" class="st6" width="65.4" height="5.3"/>
		<rect x="444.5" y="305" class="st6" width="89.8" height="5.3"/>
		<rect x="549.4" y="305" class="st6" width="89.8" height="5.3"/>
		<rect x="191" y="433.3" class="st6" width="65.4" height="5.3"/>
		<rect x="302.6" y="466.9" class="st5" width="93.6" height="10.1"/>
		<rect x="307" y="456.8" class="st5" width="84.8" height="10.1"/>
		<rect x="328.7" y="370.8" class="st11" width="41.3" height="86"/>
		<line class="st12" x1="658.6" y1="380.2" x2="445.7" y2="380.2"/>
		<rect x="445.7" y="355.9" class="st11" width="212.9" height="121"/>
		<polygon class="st13" points="658.6,452.7 445.7,452.7 658.6,443.5 		"/>
		<polygon class="st13" points="658.6,428.6 445.7,428.6 658.6,419.4 		"/>
		<polygon class="st13" points="658.6,404.4 445.7,404.4 658.6,395.3 		"/>
		<polygon class="st13" points="658.6,380.3 445.7,380.3 658.6,371.1 		"/>
		<polygon class="st13" points="658.6,476.9 445.7,476.9 658.6,467.8 		"/>
		<polygon class="st6" points="669.9,376.5 680,376.5 677.7,396.7 672.2,396.7 		"/>
		<circle class="st14" cx="674.9" cy="370.8" r="9.1"/>
		<polygon class="st6" points="423.8,376.5 433.9,376.5 431.6,396.7 426.2,396.7 		"/>
		<circle class="st14" cx="428.9" cy="370.8" r="9.1"/>
		<rect x="307" y="463.9" class="st15" width="84.8" height="3"/>
		<rect x="302.6" y="473.9" class="st15" width="93.6" height="3"/>
		<polygon class="st16" points="328.7,456.8 370,370.8 370,456.8 		"/>
		<circle class="st10" cx="365" cy="416.4" r="2.6"/>
		<path class="st17" d="M54.2,494.8c0,0,117.4,33.5,283.3,27.4s204.7-23.6,373.8-23.6c24,0,24-21.6,0-21.6H65.3
			C45.3,477.1,54.2,494.8,54.2,494.8z"/>
		<path class="st18" d="M94.7,428.6L94.7,428.6c-11.5,0-20.7-9.3-20.7-20.8v-92.2c0-11.5,9.3-20.8,20.7-20.8l0,0
			c11.5,0,20.8,9.3,20.8,20.8v92.2C115.5,419.3,106.2,428.6,94.7,428.6C94.7,428.6,94.7,428.6,94.7,428.6z"/>
		<path class="st18" d="M59.7,421.8L59.7,421.8c-6,0-10.9-4.9-11-10.9v-31c0-6,4.9-10.9,11-11l0,0c6,0,10.9,4.9,10.9,11v30.9
			C70.6,416.8,65.8,421.7,59.7,421.8C59.7,421.8,59.7,421.8,59.7,421.8z"/>
		<rect x="193.9" y="285.1" class="st9" width="60.3" height="59.8"/>
		<polygon class="st10" points="254.3,344.8 193.9,344.8 254.3,285.1 		"/>
		<rect x="446.7" y="245.3" class="st9" width="85.4" height="59.8"/>
		<polygon class="st10" points="532.2,305 446.7,305 532.2,245.2 		"/>
		<rect x="551.5" y="245.3" class="st9" width="85.4" height="59.8"/>
		<polygon class="st10" points="637,305 551.5,305 637,245.2 		"/>
		<rect x="193.9" y="373.5" class="st9" width="60.3" height="59.8"/>
		<polygon class="st10" points="254.3,433.3 193.9,433.3 254.3,373.5 		"/>
		<rect x="314.4" y="178.3" class="st11" width="68.7" height="7.5"/>
		<rect x="193.4" y="373.5" class="st11" width="60.8" height="7.5"/>
		<rect x="193.4" y="374.5" class="st11" width="60.8" height="59.8"/>
		<polygon class="st13" points="254.2,387.6 193.4,387.6 254.2,378.4 		"/>
		<polygon class="st13" points="254.2,401.8 193.4,401.8 254.2,392.6 		"/>
		<polygon class="st13" points="254.2,415.9 193.4,415.9 254.2,406.8 		"/>
		<polygon class="st13" points="254.2,430.1 193.4,430.1 254.2,421 		"/>
		<line class="st19" x1="246.7" y1="263.7" x2="163.2" y2="107.7"/>
		<circle class="st20" cx="247.1" cy="265.5" r="7.1"/>
		<line class="st19" x1="472.2" y1="262.7" x2="563.7" y2="51.3"/>
		<circle class="st20" cx="469.7" cy="265.3" r="7.1"/>
		<line class="st19" x1="226.9" y1="416.5" x2="180.1" y2="561.8"/>
		<circle class="st20" cx="227.3" cy="414" r="7.1"/>
		<line class="st19" x1="350.2" y1="419.9" x2="498.6" y2="565.2"/>
		<circle class="st20" cx="347.5" cy="417.5" r="7.1"/>
		<line class="st19" x1="641.2" y1="417" x2="777.1" y2="443"/>
		<circle class="st20" cx="637.6" cy="415.4" r="7.1"/>
		<line class="st19" x1="636.2" y1="306.9" x2="765.2" y2="239.1"/>
		<circle class="st20" cx="634" cy="308.2" r="7.1"/>
		<g class="st21">
			<path class="st6" d="M139.7,94.1h-20.5V59.6h20.5v7.5h-11.2v5.4h10.3V80h-10.3v6.5h11.2V94.1z"/>
		</g>
		<g class="st21">
			<path class="st6" d="M154.5,94.1h-9.2V57.4h9.2V94.1z"/>
		</g>
		<g class="st21">
			<path class="st6" d="M173.3,94.6c-4.5,0-7.9-1.2-10.4-3.5c-2.5-2.4-3.7-5.7-3.7-10.1c0-4.5,1.1-8,3.4-10.4
				c2.3-2.4,5.5-3.6,9.8-3.6c4,0,7.1,1,9.3,3.1c2.2,2.1,3.3,5.1,3.3,9.1v4.1h-16.5c0.1,1.5,0.6,2.7,1.6,3.5c1,0.8,2.4,1.3,4.2,1.3
				c1.6,0,3.1-0.2,4.5-0.5c1.4-0.3,2.8-0.8,4.4-1.6v6.6c-1.4,0.7-2.9,1.3-4.5,1.5C177.3,94.4,175.5,94.6,173.3,94.6z M172.8,73.2
				c-1.1,0-2,0.3-2.7,1c-0.7,0.7-1.2,1.8-1.3,3.2h7.9c0-1.3-0.4-2.3-1.1-3.1C174.9,73.6,174,73.2,172.8,73.2z"/>
		</g>
		<g class="st21">
			<path class="st6" d="M212.4,94.1l-3-12.7l-0.7-3.8l-0.5-3.1h-0.1c-0.8,4.4-1.3,7.2-1.6,8.3l-2.7,11.3h-9.7l-7.3-26.7h9.1
				l2.2,10.3c0.7,3.5,1.1,6.4,1.2,8.8h0.1c0-1.4,0.5-4.2,1.3-8.3l2.5-10.8h10.2l2.3,10.9c0.7,3.5,1.2,6.2,1.4,8.1h0.1
				c0.1-1.2,0.3-2.7,0.5-4.5c0.2-1.8,0.5-3.2,0.7-4.3l2.4-10.3h8.9l-7.3,26.7H212.4z"/>
		</g>
		<g class="st21">
			<path class="st6" d="M249.6,94.1l-1.8-3.5h-0.2c-1.2,1.5-2.5,2.6-3.8,3.2c-1.3,0.6-3,0.8-5,0.8c-2.5,0-4.5-0.8-5.9-2.3
				c-1.4-1.5-2.2-3.6-2.2-6.4c0-2.8,1-5,3-6.4c2-1.4,4.9-2.2,8.6-2.3l4.5-0.1v-0.4c0-2.2-1.1-3.3-3.3-3.3c-2,0-4.4,0.7-7.4,2
				l-2.7-6.1c3.1-1.6,7-2.4,11.8-2.4c3.4,0,6.1,0.8,8,2.5c1.9,1.7,2.8,4.1,2.8,7.1v17.5H249.6z M242.8,88.1c1.1,0,2.1-0.4,2.9-1.1
				c0.8-0.7,1.2-1.6,1.2-2.8v-2.1l-2.1,0.1c-3,0.1-4.6,1.2-4.6,3.3C240.2,87.2,241,88.1,242.8,88.1z"/>
		</g>
		<g class="st21">
			<path class="st6" d="M273.9,94.6c-4.4,0-7.7-1.2-9.9-3.5c-2.3-2.4-3.4-5.7-3.4-10.2c0-4.4,1.2-7.9,3.7-10.3
				c2.4-2.4,5.9-3.7,10.4-3.7c3.1,0,6,0.7,8.8,2l-2.7,6.8c-1.1-0.5-2.1-0.9-3.1-1.2s-1.9-0.4-2.9-0.4c-1.5,0-2.7,0.6-3.5,1.7
				c-0.8,1.2-1.2,2.8-1.2,4.9c0,4.3,1.6,6.4,4.7,6.4c2.7,0,5.3-0.8,7.8-2.4v7.3C280.1,93.8,277.2,94.6,273.9,94.6z"/>
		</g>
		<g class="st21">
			<path class="st6" d="M286.8,105.7c-0.8,0-1.6-0.1-2.6-0.2c-1-0.1-1.8-0.3-2.3-0.4v-7.2c1,0.3,2,0.4,2.8,0.4c1.9,0,2.8-1.3,2.8-4
				v-27h9.2v28.9c0,2.9-0.9,5.2-2.6,6.9C292.4,104.9,290,105.7,286.8,105.7z M287.3,60.7c0-1.4,0.4-2.4,1.2-3.1c0.8-0.7,2-1,3.7-1
				s3,0.3,3.8,1c0.8,0.7,1.2,1.7,1.2,3.1c0,2.7-1.6,4.1-4.9,4.1C288.9,64.8,287.3,63.4,287.3,60.7z"/>
		</g>
		<g class="st21">
			<path class="st6" d="M315.5,94.6c-4.4,0-7.9-1.2-10.4-3.5s-3.7-5.7-3.7-10.1c0-4.5,1.1-8,3.4-10.4c2.3-2.4,5.5-3.6,9.8-3.6
				c4,0,7.1,1,9.3,3.1c2.2,2.1,3.3,5.1,3.3,9.1v4.1h-16.5c0.1,1.5,0.6,2.7,1.6,3.5c1,0.8,2.4,1.3,4.2,1.3c1.6,0,3.1-0.2,4.5-0.5
				c1.4-0.3,2.8-0.8,4.4-1.6v6.6c-1.4,0.7-2.9,1.3-4.5,1.5C319.5,94.4,317.6,94.6,315.5,94.6z M315,73.2c-1.1,0-2,0.3-2.7,1
				c-0.7,0.7-1.2,1.8-1.3,3.2h7.9c0-1.3-0.4-2.3-1.1-3.1S316.1,73.2,315,73.2z"/>
		</g>
		<g class="st21">
			<path class="st6" d="M561.8,23.2c0,5.8-1.4,10.2-4.3,13.2c-2.8,3-7,4.5-12.5,4.5c-5.4,0-9.6-1.5-12.4-4.6
				c-2.9-3-4.3-7.5-4.3-13.3c0-5.7,1.4-10.1,4.3-13.2c2.9-3,7-4.5,12.5-4.5c5.5,0,9.6,1.5,12.5,4.5C560.4,13,561.8,17.4,561.8,23.2z
				 M538.1,23.2c0,6.7,2.3,10,7,10c2.4,0,4.1-0.8,5.2-2.4c1.1-1.6,1.7-4.1,1.7-7.6c0-3.4-0.6-6-1.7-7.6c-1.2-1.6-2.9-2.5-5.2-2.5
				C540.4,13.1,538.1,16.4,538.1,23.2z"/>
		</g>
		<g class="st21">
			<path class="st6" d="M576.1,25.4c1.1-1.8,2.1-3.2,2.9-4.2l6-7.5h10.3L586,25.1l9.9,15.4h-10.5l-5.8-9.6l-3,2.3v7.3h-9.3V3.8h9.3
				v14.4c0,2.5-0.2,4.9-0.5,7.2H576.1z"/>
		</g>
		<g class="st21">
			<path class="st6" d="M615.8,40.5V25.9c0-1.8-0.3-3.1-0.8-4c-0.5-0.9-1.3-1.4-2.5-1.4c-1.6,0-2.7,0.6-3.4,1.9
				c-0.7,1.2-1,3.4-1,6.4v11.7H599V13.7h7l1.2,3.3h0.5c0.8-1.3,1.9-2.2,3.3-2.8c1.4-0.6,3-0.9,4.8-0.9c3,0,5.3,0.9,6.9,2.6
				c1.6,1.7,2.5,4.1,2.5,7.2v17.4H615.8z"/>
		</g>
		<g class="st21">
			<path class="st6" d="M648.1,40.5l-1.8-3.5h-0.2c-1.2,1.5-2.5,2.6-3.8,3.2c-1.3,0.6-3,0.8-5,0.8c-2.5,0-4.5-0.8-5.9-2.3
				c-1.4-1.5-2.2-3.6-2.2-6.4c0-2.8,1-5,3-6.4s4.9-2.2,8.6-2.3l4.5-0.1v-0.4c0-2.2-1.1-3.3-3.3-3.3c-1.9,0-4.4,0.7-7.4,2l-2.7-6.1
				c3.1-1.6,7-2.4,11.8-2.4c3.4,0,6.1,0.8,8,2.5s2.8,4.1,2.8,7.1v17.5H648.1z M641.3,34.4c1.1,0,2.1-0.4,2.9-1.1
				c0.8-0.7,1.2-1.6,1.2-2.8v-2.1l-2.1,0.1c-3,0.1-4.6,1.2-4.6,3.3C638.6,33.6,639.5,34.4,641.3,34.4z"/>
		</g>
		<g class="st21">
			<path class="st6" d="M762.4,204.9c0,3.9-1.1,6.8-3.4,8.9c-2.3,2.1-5.5,3.1-9.7,3.1h-2.6v11.4h-9.3V194h11.9c4.4,0,7.6,1,9.8,2.9
				C761.3,198.7,762.4,201.4,762.4,204.9z M746.7,209.4h1.7c1.4,0,2.5-0.4,3.3-1.2c0.8-0.8,1.2-1.9,1.2-3.3c0-2.3-1.3-3.5-3.9-3.5
				h-2.4V209.4z"/>
		</g>
		<g class="st21">
			<path class="st6" d="M783.3,228.4l-1.8-3.5h-0.2c-1.2,1.5-2.5,2.6-3.8,3.2c-1.3,0.6-3,0.8-5,0.8c-2.5,0-4.5-0.8-5.9-2.3
				c-1.4-1.5-2.2-3.6-2.2-6.4c0-2.8,1-5,3-6.4s4.9-2.2,8.6-2.3l4.5-0.1v-0.4c0-2.2-1.1-3.3-3.3-3.3c-1.9,0-4.4,0.7-7.4,2l-2.7-6.1
				c3.1-1.6,7-2.4,11.8-2.4c3.4,0,6.1,0.8,8,2.5c1.9,1.7,2.8,4.1,2.8,7.1v17.5H783.3z M776.5,222.4c1.1,0,2.1-0.4,2.9-1.1
				c0.8-0.7,1.2-1.6,1.2-2.8v-2.1l-2.1,0.1c-3,0.1-4.6,1.2-4.6,3.3C773.9,221.6,774.7,222.4,776.5,222.4z"/>
		</g>
		<g class="st21">
			<path class="st6" d="M811.7,201.3c0.8,0,1.6,0.1,2.3,0.2l0.5,0.1l-0.8,8.7c-0.8-0.2-1.8-0.3-3.1-0.3c-2,0-3.5,0.5-4.4,1.4
				s-1.4,2.2-1.4,4v13.1h-9.2v-26.7h6.9l1.4,4.3h0.4c0.8-1.4,1.8-2.6,3.2-3.4C809,201.7,810.3,201.3,811.7,201.3z"/>
		</g>
		<g class="st21">
			<path class="st6" d="M834.6,228.4l-1.8-3.5h-0.2c-1.2,1.5-2.5,2.6-3.8,3.2c-1.3,0.6-3,0.8-5,0.8c-2.5,0-4.5-0.8-5.9-2.3
				c-1.4-1.5-2.2-3.6-2.2-6.4c0-2.8,1-5,3-6.4s4.9-2.2,8.6-2.3l4.5-0.1v-0.4c0-2.2-1.1-3.3-3.3-3.3c-2,0-4.4,0.7-7.4,2l-2.7-6.1
				c3.1-1.6,7-2.4,11.8-2.4c3.4,0,6.1,0.8,8,2.5c1.9,1.7,2.8,4.1,2.8,7.1v17.5H834.6z M827.8,222.4c1.1,0,2.1-0.4,2.9-1.1
				c0.8-0.7,1.2-1.6,1.2-2.8v-2.1l-2.1,0.1c-3,0.1-4.6,1.2-4.6,3.3C825.2,221.6,826,222.4,827.8,222.4z"/>
		</g>
		<g class="st21">
			<path class="st6" d="M862.9,228.9c-1.4,0-2.6-0.2-3.6-0.7c-1.1-0.4-2.1-1.3-3.2-2.4h-0.4c0.3,1.9,0.4,3,0.4,3.5v10.7h-9.2v-38.3
				h7.5l1.3,3.4h0.4c1.7-2.6,4.1-3.9,7.1-3.9c3,0,5.3,1.2,7,3.7c1.7,2.5,2.5,5.8,2.5,10.1c0,4.3-0.9,7.7-2.6,10.2
				C868.3,227.7,865.9,228.9,862.9,228.9z M859.9,208.5c-1.4,0-2.3,0.5-2.8,1.5c-0.5,1-0.8,2.4-0.9,4.3v0.7c0,2.3,0.3,4,0.9,5
				c0.6,1,1.6,1.5,2.9,1.5c1.2,0,2-0.5,2.6-1.5c0.5-1,0.8-2.7,0.8-5c0-2.3-0.3-3.9-0.8-4.9C862,209,861.1,208.5,859.9,208.5z"/>
			<path class="st6" d="M890.4,228.9c-4.5,0-7.9-1.2-10.4-3.5c-2.5-2.4-3.7-5.7-3.7-10.1c0-4.5,1.1-8,3.4-10.4
				c2.3-2.4,5.5-3.6,9.8-3.6c4,0,7.1,1,9.3,3.1s3.3,5.1,3.3,9.1v4.1h-16.5c0.1,1.5,0.6,2.7,1.6,3.5c1,0.8,2.4,1.3,4.2,1.3
				c1.6,0,3.1-0.2,4.5-0.5c1.4-0.3,2.8-0.8,4.4-1.6v6.6c-1.4,0.7-2.9,1.3-4.5,1.5C894.4,228.8,892.5,228.9,890.4,228.9z
				 M889.8,207.5c-1.1,0-2,0.3-2.7,1c-0.7,0.7-1.2,1.8-1.3,3.2h7.9c0-1.3-0.4-2.3-1.1-3.1C892,207.9,891,207.5,889.8,207.5z"/>
		</g>
		<g class="st21">
			<path class="st6" d="M920,221.6c1.2,0,2.7-0.3,4.5-0.9v6.7c-1.2,0.5-2.4,0.9-3.5,1.1c-1.1,0.2-2.4,0.3-4,0.3
				c-3.1,0-5.3-0.8-6.7-2.3c-1.4-1.5-2.1-3.8-2.1-7v-11H905v-3.8l4.1-2.9l2.4-5.6h6v5.4h6.6v6.9h-6.6V219
				C917.5,220.8,918.4,221.6,920,221.6z"/>
		</g>
		<g class="st21">
			<path class="st6" d="M926.5,201.7h9.7l4.5,15.3c0.2,0.8,0.4,1.8,0.4,2.9h0.2c0.1-1.1,0.3-2,0.6-2.9l4.6-15.4h9.4l-10.6,28.4
				c-1.4,3.6-3,6.2-5,7.7c-2,1.5-4.5,2.2-7.7,2.2c-1.2,0-2.5-0.1-3.8-0.4v-7.2c0.8,0.2,1.8,0.3,2.9,0.3c0.8,0,1.5-0.2,2.1-0.5
				s1.1-0.8,1.6-1.3c0.5-0.6,0.9-1.5,1.5-2.8L926.5,201.7z"/>
		</g>
		<g class="st21">
			<path class="st6" d="M780.8,394.1h12c4.7,0,8.2,0.7,10.4,2.1c2.3,1.4,3.4,3.6,3.4,6.5c0,1.9-0.5,3.6-1.5,5
				c-1,1.4-2.3,2.2-3.9,2.6v0.2c2.1,0.6,3.7,1.5,4.6,2.8s1.4,3,1.4,5.1c0,3.1-1.2,5.6-3.5,7.4c-2.3,1.8-5.6,2.7-9.6,2.7h-13.4V394.1
				z M790.1,407.3h2.8c1.3,0,2.4-0.3,3.1-0.8c0.7-0.6,1.1-1.4,1.1-2.5c0-1.9-1.5-2.9-4.4-2.9h-2.6V407.3z M790.1,414.1v7.2h3.3
				c2.9,0,4.4-1.2,4.4-3.7c0-1.1-0.4-2-1.2-2.6c-0.8-0.6-1.9-0.9-3.4-0.9H790.1z"/>
		</g>
		<g class="st21">
			<path class="st6" d="M828.8,401.4c0.8,0,1.6,0.1,2.3,0.2l0.5,0.1l-0.8,8.7c-0.8-0.2-1.8-0.3-3.1-0.3c-2,0-3.5,0.5-4.4,1.4
				c-0.9,0.9-1.4,2.2-1.4,4v13.1h-9.2v-26.7h6.9l1.4,4.3h0.4c0.8-1.4,1.8-2.6,3.2-3.4C826,401.8,827.4,401.4,828.8,401.4z"/>
		</g>
		<g class="st21">
			<path class="st6" d="M851.7,428.6l-1.8-3.5h-0.2c-1.2,1.5-2.5,2.6-3.8,3.2c-1.3,0.6-3,0.8-5,0.8c-2.5,0-4.5-0.8-5.9-2.3
				c-1.4-1.5-2.2-3.6-2.2-6.4c0-2.8,1-5,3-6.4c2-1.4,4.9-2.2,8.6-2.3l4.5-0.1v-0.4c0-2.2-1.1-3.3-3.3-3.3c-1.9,0-4.4,0.7-7.4,2
				l-2.7-6.1c3.1-1.6,7-2.4,11.8-2.4c3.4,0,6.1,0.8,8,2.5c1.9,1.7,2.8,4.1,2.8,7.1v17.5H851.7z M844.8,422.5c1.1,0,2.1-0.4,2.9-1.1
				c0.8-0.7,1.2-1.6,1.2-2.8v-2.1l-2.1,0.1c-3,0.1-4.6,1.2-4.6,3.3C842.2,421.7,843.1,422.5,844.8,422.5z"/>
		</g>
		<g class="st21">
			<path class="st6" d="M896.8,428.6V414c0-1.8-0.2-3.2-0.7-4.1c-0.5-0.9-1.3-1.4-2.3-1.4c-1.4,0-2.5,0.6-3.1,1.8s-1,3.1-1,5.7v12.5
				h-9.2V414c0-1.8-0.2-3.2-0.7-4.1c-0.5-0.9-1.2-1.4-2.3-1.4c-1.4,0-2.5,0.6-3.2,1.9s-1,3.4-1,6.3v11.7H864v-26.7h7l1.2,3.3h0.5
				c0.7-1.2,1.7-2.2,3.1-2.8c1.3-0.6,2.9-1,4.6-1c3.9,0,6.6,1.2,8.1,3.5h0.7c0.8-1.1,1.8-2,3.1-2.6s2.8-0.9,4.4-0.9
				c3.2,0,5.5,0.8,7,2.4c1.5,1.6,2.3,4.1,2.3,7.4v17.4H896.8z"/>
		</g>
		<g class="st21">
			<path class="st6" d="M907.9,401.8h9.7l4.5,15.3c0.2,0.8,0.4,1.8,0.4,2.9h0.2c0.1-1.1,0.3-2,0.6-2.9l4.6-15.4h9.4l-10.6,28.4
				c-1.4,3.6-3,6.2-5,7.7c-2,1.5-4.5,2.2-7.7,2.2c-1.2,0-2.5-0.1-3.8-0.4v-7.2c0.8,0.2,1.8,0.3,2.9,0.3c0.8,0,1.5-0.2,2.1-0.5
				s1.1-0.8,1.6-1.3c0.5-0.6,0.9-1.5,1.5-2.8L907.9,401.8z"/>
		</g>
		<g class="st21">
			<path class="st6" d="M805.5,456.2v4.5l-3.7,1.3c0.5,0.9,0.8,2,0.8,3.2c0,2.9-1,5.1-3,6.7c-2,1.6-5,2.4-9,2.4
				c-1,0-1.8-0.1-2.4-0.2c-0.2,0.4-0.3,0.8-0.3,1.2c0,0.5,0.4,0.8,1.1,1c0.7,0.2,1.7,0.4,2.9,0.4h4.4c6,0,9,2.5,9,7.6
				c0,3.3-1.4,5.8-4.2,7.6c-2.8,1.8-6.7,2.7-11.7,2.7c-3.8,0-6.7-0.6-8.8-1.9c-2.1-1.3-3.1-3.1-3.1-5.5c0-3.2,2-5.3,5.9-6.2
				c-0.8-0.3-1.5-0.9-2.1-1.7c-0.6-0.8-0.9-1.5-0.9-2.3c0-0.8,0.2-1.6,0.7-2.2c0.5-0.6,1.4-1.4,2.9-2.3c-1.4-0.6-2.5-1.6-3.3-2.9
				c-0.8-1.3-1.2-2.9-1.2-4.8c0-2.9,1-5.2,3-6.8s4.8-2.4,8.5-2.4c0.5,0,1.3,0.1,2.5,0.2c1.2,0.1,2.1,0.2,2.6,0.3H805.5z
				 M785.3,486.2c0,0.8,0.4,1.4,1.2,1.8c0.8,0.5,1.9,0.7,3.3,0.7c2.2,0,4-0.3,5.4-0.8s2-1.3,2-2.2c0-0.7-0.4-1.2-1.2-1.5
				c-0.8-0.3-2-0.4-3.5-0.4h-3.6c-1,0-1.8,0.2-2.5,0.7C785.7,485,785.3,485.6,785.3,486.2z M788.2,464.9c0,2.7,1,4.1,2.9,4.1
				c0.9,0,1.6-0.3,2-1c0.5-0.7,0.7-1.7,0.7-3c0-2.8-0.9-4.2-2.8-4.2C789.2,460.8,788.2,462.2,788.2,464.9z"/>
		</g>
		<g class="st21">
			<path class="st6" d="M826.1,482.9l-1.8-3.5h-0.2c-1.2,1.5-2.5,2.6-3.8,3.2c-1.3,0.6-3,0.8-5,0.8c-2.5,0-4.5-0.8-5.9-2.3
				c-1.4-1.5-2.2-3.6-2.2-6.4c0-2.8,1-5,3-6.4s4.9-2.2,8.6-2.3l4.5-0.1v-0.4c0-2.2-1.1-3.3-3.3-3.3c-1.9,0-4.4,0.7-7.4,2l-2.7-6.1
				c3.1-1.6,7-2.4,11.8-2.4c3.4,0,6.1,0.8,8,2.5s2.8,4.1,2.8,7.1v17.5H826.1z M819.3,476.9c1.1,0,2.1-0.4,2.9-1.1s1.2-1.6,1.2-2.8
				V471l-2.1,0.1c-3,0.1-4.6,1.2-4.6,3.3C816.7,476.1,817.6,476.9,819.3,476.9z"/>
		</g>
		<g class="st21">
			<path class="st6" d="M854.6,455.7c0.8,0,1.6,0.1,2.3,0.2l0.5,0.1l-0.8,8.7c-0.8-0.2-1.8-0.3-3.1-0.3c-2,0-3.5,0.5-4.4,1.4
				c-0.9,0.9-1.4,2.2-1.4,4v13.1h-9.2v-26.7h6.9l1.4,4.3h0.4c0.8-1.4,1.8-2.6,3.2-3.4C851.8,456.1,853.2,455.7,854.6,455.7z"/>
		</g>
		<g class="st21">
			<path class="st6" d="M877.5,482.9l-1.8-3.5h-0.2c-1.2,1.5-2.5,2.6-3.8,3.2c-1.3,0.6-3,0.8-5,0.8c-2.5,0-4.5-0.8-5.9-2.3
				c-1.4-1.5-2.2-3.6-2.2-6.4c0-2.8,1-5,3-6.4s4.9-2.2,8.6-2.3l4.5-0.1v-0.4c0-2.2-1.1-3.3-3.3-3.3c-1.9,0-4.4,0.7-7.4,2l-2.7-6.1
				c3.1-1.6,7-2.4,11.8-2.4c3.4,0,6.1,0.8,8,2.5s2.8,4.1,2.8,7.1v17.5H877.5z M870.6,476.9c1.1,0,2.1-0.4,2.9-1.1s1.2-1.6,1.2-2.8
				V471l-2.1,0.1c-3,0.1-4.6,1.2-4.6,3.3C868,476.1,868.9,476.9,870.6,476.9z"/>
		</g>
		<g class="st21">
			<path class="st6" d="M910.3,482.9h-22.1v-5.3l11.1-14.4h-10.4v-7.1h21v5.7l-10.6,14h11.1V482.9z M894,449.5
				c0-1.4,0.4-2.4,1.2-3.1c0.8-0.7,2-1,3.7-1c1.7,0,3,0.3,3.8,1c0.8,0.7,1.2,1.7,1.2,3.1c0,2.7-1.6,4.1-4.9,4.1
				C895.6,453.6,894,452.2,894,449.5z"/>
		</g>
		<g class="st21">
			<path class="st6" d="M939.9,469.5c0,4.4-1.2,7.8-3.5,10.2c-2.4,2.4-5.6,3.7-9.9,3.7c-4.1,0-7.3-1.3-9.7-3.8
				c-2.4-2.5-3.6-5.9-3.6-10.1c0-4.4,1.2-7.7,3.5-10.2c2.3-2.4,5.6-3.6,9.9-3.6c2.6,0,4.9,0.6,7,1.7c2,1.1,3.6,2.7,4.7,4.8
				C939.4,464.3,939.9,466.7,939.9,469.5z M922.6,469.5c0,2.3,0.3,4,0.9,5.2s1.6,1.8,3.1,1.8c1.4,0,2.4-0.6,3-1.8
				c0.6-1.2,0.9-3,0.9-5.2c0-2.3-0.3-4-0.9-5.2c-0.6-1.2-1.6-1.7-3.1-1.7c-1.4,0-2.4,0.6-3,1.7C922.9,465.5,922.6,467.2,922.6,469.5
				z"/>
		</g>
		<g class="st21">
			<path class="st6" d="M967,482.9l-3-12.7l-0.7-3.8l-0.5-3.1h-0.1c-0.8,4.4-1.3,7.2-1.6,8.3l-2.7,11.3h-9.7l-7.3-26.7h9.1l2.2,10.3
				c0.7,3.5,1.1,6.4,1.2,8.8h0.1c0-1.4,0.5-4.2,1.3-8.3l2.5-10.8H968l2.3,10.9c0.7,3.5,1.2,6.2,1.4,8.1h0.1c0.1-1.2,0.3-2.7,0.5-4.5
				c0.2-1.8,0.5-3.2,0.7-4.3l2.4-10.3h8.9l-7.3,26.7H967z"/>
		</g>
		<g class="st21">
			<path class="st6" d="M999.9,483.4c-4.4,0-7.9-1.2-10.4-3.5c-2.5-2.4-3.7-5.7-3.7-10.1c0-4.5,1.1-8,3.4-10.4s5.5-3.6,9.8-3.6
				c4,0,7.1,1,9.3,3.1c2.2,2.1,3.3,5.1,3.3,9.1v4.1h-16.5c0.1,1.5,0.6,2.7,1.6,3.5c1,0.8,2.4,1.3,4.2,1.3c1.6,0,3.1-0.2,4.5-0.5
				s2.8-0.8,4.4-1.6v6.6c-1.4,0.7-2.9,1.3-4.5,1.5C1003.8,483.2,1002,483.4,999.9,483.4z M999.3,462c-1.1,0-2,0.3-2.7,1
				c-0.7,0.7-1.2,1.8-1.3,3.2h7.9c0-1.3-0.4-2.3-1.1-3.1C1001.4,462.4,1000.5,462,999.3,462z"/>
		</g>
		<g class="st21">
			<path class="st6" d="M550.9,591.8c0,5.8-1.6,10.2-4.8,13.3s-7.6,4.7-13.4,4.7h-11.2v-34.5h11.9c5.5,0,9.8,1.4,12.8,4.2
				C549.4,582.4,550.9,586.5,550.9,591.8z M541.3,592.1c0-3.2-0.6-5.5-1.9-7c-1.3-1.5-3.1-2.3-5.7-2.3H531v19.3h2.1
				c2.8,0,4.9-0.8,6.2-2.5C540.6,598,541.3,595.5,541.3,592.1z"/>
		</g>
		<g class="st21">
			<path class="st6" d="M572.4,582.6c0.8,0,1.6,0.1,2.3,0.2l0.5,0.1l-0.8,8.7c-0.8-0.2-1.8-0.3-3.1-0.3c-2,0-3.5,0.5-4.4,1.4
				c-0.9,0.9-1.4,2.2-1.4,4v13.1h-9.2v-26.7h6.9l1.4,4.3h0.4c0.8-1.4,1.8-2.6,3.2-3.4C569.6,583,571,582.6,572.4,582.6z"/>
			<path class="st6" d="M599.5,609.8h-22.1v-5.3l11.1-14.4H578v-7.1h21v5.7l-10.6,14h11.1V609.8z"/>
		</g>
		<g class="st21">
			<path class="st6" d="M627.1,609.8l-3-12.7l-0.7-3.8l-0.5-3.1h-0.1c-0.8,4.4-1.3,7.2-1.6,8.3l-2.7,11.3h-9.7l-7.3-26.7h9.1
				l2.2,10.3c0.7,3.5,1.1,6.5,1.2,8.8h0.1c0-1.4,0.5-4.2,1.3-8.3l2.5-10.8H628l2.3,10.9c0.7,3.5,1.2,6.2,1.4,8.1h0.1
				c0.1-1.2,0.3-2.7,0.5-4.5c0.2-1.8,0.5-3.2,0.7-4.3l2.4-10.3h8.9l-7.3,26.7H627.1z"/>
		</g>
		<g class="st21">
			<path class="st6" d="M647.4,576.4c0-1.4,0.4-2.4,1.2-3.1c0.8-0.7,2-1,3.7-1c1.7,0,3,0.3,3.8,1c0.8,0.7,1.2,1.7,1.2,3.1
				c0,2.7-1.6,4.1-4.9,4.1C649,580.5,647.4,579.1,647.4,576.4z M656.9,609.8h-9.2v-26.7h9.2V609.8z"/>
		</g>
		<g class="st21">
			<path class="st6" d="M153.8,597.2v12.5h-9.3v-34.5h11.3c9.4,0,14.1,3.4,14.1,10.2c0,4-2,7.1-5.8,9.3l10,15h-10.6l-7.3-12.5H153.8
				z M153.8,590.2h1.7c3.3,0,4.9-1.4,4.9-4.3c0-2.4-1.6-3.6-4.8-3.6h-1.8V590.2z"/>
		</g>
		<g class="st21">
			<path class="st6" d="M201.2,596.4c0,4.4-1.2,7.8-3.5,10.2c-2.4,2.4-5.6,3.7-9.9,3.7c-4.1,0-7.3-1.3-9.7-3.8
				c-2.4-2.5-3.6-5.9-3.6-10.1c0-4.4,1.2-7.7,3.5-10.2c2.3-2.4,5.6-3.6,9.9-3.6c2.6,0,4.9,0.6,7,1.7c2,1.1,3.6,2.7,4.7,4.8
				C200.6,591.1,201.2,593.6,201.2,596.4z M183.9,596.4c0,2.3,0.3,4,0.9,5.2c0.6,1.2,1.6,1.8,3.1,1.8c1.4,0,2.4-0.6,3-1.8
				c0.6-1.2,0.9-2.9,0.9-5.2c0-2.3-0.3-4-0.9-5.2c-0.6-1.2-1.6-1.7-3.1-1.7c-1.4,0-2.4,0.6-3,1.7
				C184.2,592.3,183.9,594.1,183.9,596.4z"/>
			<path class="st6" d="M215.2,609.8H206v-36.7h9.2V609.8z"/>
		</g>
		<g class="st21">
			<path class="st6" d="M234,610.2c-4.4,0-7.9-1.2-10.4-3.5c-2.5-2.4-3.7-5.7-3.7-10.1c0-4.5,1.1-8,3.4-10.4
				c2.3-2.4,5.5-3.6,9.8-3.6c4,0,7.1,1,9.3,3.1c2.2,2.1,3.3,5.1,3.3,9.1v4.1h-16.5c0.1,1.5,0.6,2.7,1.6,3.5s2.4,1.3,4.2,1.3
				c1.6,0,3.1-0.2,4.5-0.5s2.8-0.8,4.4-1.6v6.6c-1.4,0.7-2.9,1.3-4.5,1.5C238,610.1,236.1,610.2,234,610.2z M233.4,588.9
				c-1.1,0-2,0.3-2.7,1c-0.7,0.7-1.2,1.8-1.3,3.2h7.9c0-1.3-0.4-2.3-1.1-3.1C235.6,589.2,234.6,588.9,233.4,588.9z"/>
		</g>
		<g class="st21">
			<path class="st6" d="M263.6,603c1.2,0,2.7-0.3,4.5-0.9v6.7c-1.2,0.5-2.4,0.9-3.5,1.1c-1.1,0.2-2.4,0.3-4,0.3
				c-3.1,0-5.3-0.8-6.7-2.3c-1.4-1.5-2.1-3.8-2.1-7v-11h-3.2v-3.8l4.1-2.9l2.4-5.6h6v5.4h6.6v6.9h-6.6v10.4
				C261.1,602.1,261.9,603,263.6,603z"/>
		</g>
		<g class="st21">
			<path class="st6" d="M270.1,583.1h9.7l4.5,15.3c0.2,0.8,0.4,1.8,0.4,2.9h0.2c0.1-1.1,0.3-2,0.6-2.9l4.6-15.4h9.4L289,611.5
				c-1.4,3.6-3,6.2-5,7.7c-2,1.5-4.5,2.2-7.7,2.2c-1.2,0-2.5-0.1-3.8-0.4v-7.2c0.8,0.2,1.8,0.3,2.9,0.3c0.8,0,1.5-0.2,2.1-0.5
				c0.6-0.3,1.1-0.8,1.6-1.3c0.5-0.6,0.9-1.5,1.5-2.8L270.1,583.1z"/>
		</g>
	</g>
</g>
</svg>
