<?xml version="1.0" encoding="utf-8"?>
<svg version="1.1" id="Warstwa_1" xmlns="http://www.w3.org/2000/svg" xmlns:xlink="http://www.w3.org/1999/xlink" x="0px" y="0px"
	 viewBox="0 0 1019.7 631.1" style="enable-background:new 0 0 1019.7 631.1;" xml:space="preserve">
<style type="text/css">
	.st0{fill:#FFFFFF;}
	.st1{fill:#4D5963;}
	.st2{fill:#E8E8E8;}
	.st3{fill:url(#SVGID_1_);}
	.st4{opacity:0.2;fill:#4B6984;}
	.st5{fill:#313A40;}
	.st6{fill:url(#SVGID_2_);}
	.st7{opacity:0.3;fill:#24FFE0;}
	.st8{opacity:0.56;}
	.st9{fill:#6C8D9E;}
	.st10{fill:#95ABBF;}
	.st11{fill:url(#SVGID_3_);}
	.st12{opacity:0.2;}
	.st13{fill:#191E28;}
	.st14{fill:url(#SVGID_4_);}
	.st15{opacity:0.4;}
	.st16{fill:#E6E7E8;}
	.st17{fill:url(#SVGID_5_);}
	.st18{fill:url(#SVGID_6_);}
	.st19{fill:#576570;}
	.st20{opacity:0.7;}
	.st21{fill:#88B1C7;}
	.st22{opacity:0.55;}
	.st23{fill:#7BA0B3;}
	.st24{fill:#434E57;}
	.st25{fill:#8FA5B8;}
	.st26{opacity:0.5;}
	.st27{fill:#879BAD;}
	.st28{fill:#03601F;}
	.st29{fill:#084F15;}
	.st30{fill:#E6A85E;}
	.st31{fill:#E8882C;}
	.st32{fill:#687007;}
	.st33{fill:#074010;}
	.st34{fill:#61731A;}
</style>
<title>oferta-banner</title>
<g>
	
		<rect x="0" y="591.3" transform="matrix(-1 -4.489798e-11 4.489798e-11 -1 1019.7 1223.6353)" class="st0" width="1019.7" height="41"/>
	
		<rect x="304.1" y="392.4" transform="matrix(-1 -4.490331e-11 4.490331e-11 -1 804.1145 983.7158)" class="st1" width="196" height="198.9"/>
	
		<rect x="303.9" y="466.4" transform="matrix(-1 -4.490553e-11 4.490553e-11 -1 803.9224 946.6263)" class="st2" width="196.2" height="13.9"/>
	
		<rect x="576.1" y="338" transform="matrix(-1 -4.489266e-11 4.489266e-11 -1 1537.3215 929.2535)" class="st0" width="385" height="253.3"/>
	
		<linearGradient id="SVGID_1_" gradientUnits="userSpaceOnUse" x1="251.0393" y1="411.5883" x2="251.0393" y2="376.8877" gradientTransform="matrix(-1 0 0 1 1019.7 0)">
		<stop  offset="0" style="stop-color:#6BCAEF"/>
		<stop  offset="1" style="stop-color:#357CEF"/>
	</linearGradient>
	<rect x="576.1" y="386.5" class="st3" width="385" height="29.2"/>
	<g>
		<polygon class="st4" points="899.8,386.5 930.7,415.7 961.2,415.7 961.2,415.3 930.7,386.5 		"/>
		<polygon class="st4" points="576.1,388.2 576.1,415.7 605.2,415.7 		"/>
		<polygon class="st4" points="692.7,386.5 723.6,415.7 740.6,415.7 709.7,386.5 		"/>
		<polygon class="st4" points="586.1,386.5 617,415.7 634,415.7 603.1,386.5 		"/>
		<polygon class="st4" points="729.4,386.5 760.3,415.7 791.2,415.7 760.2,386.5 		"/>
		<polygon class="st4" points="616.5,386.5 647.4,415.7 706.2,415.7 675.3,386.5 		"/>
		<polygon class="st4" points="787.7,386.5 818.6,415.7 870.2,415.7 839.3,386.5 		"/>
		<polygon class="st4" points="844.9,386.5 875.8,415.7 915.8,415.7 884.9,386.5 		"/>
	</g>
	
		<rect x="766.9" y="195.6" transform="matrix(-4.470576e-11 1 -1 -4.470576e-11 1156.8197 -380.4057)" class="st5" width="3.5" height="385.1"/>
	
		<linearGradient id="SVGID_2_" gradientUnits="userSpaceOnUse" x1="284.0854" y1="590.2747" x2="284.0854" y2="461.7317" gradientTransform="matrix(-1 0 0 1 1019.7 0)">
		<stop  offset="0" style="stop-color:#6BCAEF"/>
		<stop  offset="1" style="stop-color:#357CEF"/>
	</linearGradient>
	<rect x="576.1" y="466.4" class="st6" width="319" height="124.9"/>
	<g>
		<polygon class="st4" points="809.3,466.4 895.1,547.5 895.1,518.4 840.1,466.4 		"/>
		<polygon class="st4" points="576.1,466.4 576.1,515.6 656.3,591.3 744.8,591.3 612.6,466.4 		"/>
		<polygon class="st4" points="790.3,466.4 895.1,565.4 895.1,555.9 800.4,466.4 		"/>
		<polygon class="st4" points="707,466.4 839.2,591.3 893.1,591.3 760.9,466.4 		"/>
		<polygon class="st4" points="665,466.4 797.2,591.3 830.3,591.3 698.2,466.4 		"/>
		<polygon class="st4" points="576.1,542.1 576.1,573.4 595,591.3 628.2,591.3 		"/>
		<polygon class="st4" points="619.6,466.4 751.8,591.3 765.3,591.3 633.1,466.4 		"/>
	</g>
	
		<rect x="576" y="466.4" transform="matrix(-1 -4.489710e-11 4.489710e-11 -1 1471.1333 996.1055)" class="st7" width="319.1" height="63.3"/>
	<g class="st8">
		<rect x="576.1" y="466.4" class="st9" width="319" height="11.8"/>
	</g>
	
		<rect x="708" y="466.4" transform="matrix(-1 -4.489576e-11 4.489576e-11 -1 1433.4221 1057.6833)" class="st7" width="17.5" height="124.9"/>
	
		<rect x="699.5" y="466.4" transform="matrix(-1 -4.515289e-11 4.515289e-11 -1 1404.8096 1057.6833)" class="st7" width="5.7" height="124.9"/>
	
		<rect x="795.3" y="466.4" transform="matrix(-1 -4.487001e-11 4.487001e-11 -1 1617.5709 1057.6833)" class="st7" width="26.9" height="124.9"/>
	
		<rect x="782.4" y="466.4" transform="matrix(-1 -4.483093e-11 4.483093e-11 -1 1573.5317 1057.6833)" class="st7" width="8.8" height="124.9"/>
	
		<rect x="609.2" y="466.4" transform="matrix(-1 -4.486956e-11 4.486956e-11 -1 1245.3751 1057.6833)" class="st7" width="26.9" height="124.9"/>
	
		<rect x="596.3" y="466.4" transform="matrix(-1 -4.503743e-11 4.503743e-11 -1 1201.3359 1057.6833)" class="st7" width="8.8" height="124.9"/>
	<g class="st8">
		<rect x="576.2" y="386.5" class="st9" width="385" height="11.5"/>
	</g>
	
		<rect x="895.1" y="466.4" transform="matrix(-1 -4.488555e-11 4.488555e-11 -1 1856.2743 1057.7074)" class="st10" width="66.1" height="124.9"/>
	
		<rect x="500" y="466.4" transform="matrix(-1 -4.489665e-11 4.489665e-11 -1 1076.1849 1057.7074)" class="st10" width="76.1" height="124.9"/>
	
		<rect x="413.6" y="312.3" transform="matrix(-1 -4.489754e-11 4.489754e-11 -1 1416.2526 650.2411)" class="st1" width="589.1" height="25.6"/>
	
		<rect x="413.6" y="207.9" transform="matrix(-1 -4.489488e-11 4.489488e-11 -1 1161.8798 441.4171)" class="st1" width="334.7" height="25.6"/>
	
		<rect x="11.4" y="166" transform="matrix(-1 -4.489576e-11 4.489576e-11 -1 449.8079 357.6636)" class="st1" width="426.9" height="25.6"/>
	
		<linearGradient id="SVGID_3_" gradientUnits="userSpaceOnUse" x1="459.5139" y1="310.7054" x2="459.5139" y2="239.7425" gradientTransform="matrix(-1 0 0 1 1019.7 0)">
		<stop  offset="0" style="stop-color:#6BCAEF"/>
		<stop  offset="1" style="stop-color:#357CEF"/>
	</linearGradient>
	<rect x="413.6" y="233.5" class="st11" width="293.2" height="78.8"/>
	<g>
		<polygon class="st4" points="605.1,233.5 688.4,312.3 706.8,312.3 706.8,278.7 659,233.5 		"/>
		<polygon class="st4" points="496.4,233.5 579.7,312.3 633.6,312.3 550.3,233.5 		"/>
		<polygon class="st4" points="573.9,233.5 657.3,312.3 676.5,312.3 593.2,233.5 		"/>
		<polygon class="st4" points="462.8,233.5 546.2,312.3 565.4,312.3 482.1,233.5 		"/>
		<polygon class="st4" points="413.6,233.5 413.6,233.8 496.7,312.3 529.8,312.3 446.4,233.5 		"/>
		<polygon class="st4" points="413.6,256.3 413.6,287.6 439.7,312.3 472.9,312.3 		"/>
	</g>
	<path class="st7" d="M706.8,294.9L706.8,294.9v-61.4H670v24.6C670,278.4,686.5,294.9,706.8,294.9z"/>
	<path class="st7" d="M870.4,558.5h24.7v-88.7h-44.9v68.5C850.2,549.5,859.3,558.5,870.4,558.5z"/>
	<g class="st12">
		<path class="st13" d="M817.2,518.9h77.9v72.4H744.8v0C744.8,551.3,777.2,518.9,817.2,518.9z"/>
	</g>
	
		<rect x="413.6" y="233.5" transform="matrix(-1 -4.489754e-11 4.489754e-11 -1 1120.3735 513.1103)" class="st7" width="293.2" height="46.1"/>
	
		<linearGradient id="SVGID_4_" gradientUnits="userSpaceOnUse" x1="524.8391" y1="465.7675" x2="524.8391" y2="369.4984" gradientTransform="matrix(-1 0 0 1 1019.7 0)">
		<stop  offset="0" style="stop-color:#6BCAEF"/>
		<stop  offset="1" style="stop-color:#357CEF"/>
	</linearGradient>
	<rect x="413.6" y="349.5" class="st14" width="162.6" height="116.9"/>
	<g>
		<polygon class="st4" points="518.2,363.6 576.1,418.3 576.1,363.6 		"/>
		<polygon class="st4" points="413.6,363.6 413.6,398.8 485.2,466.4 555.5,466.4 446.7,363.6 		"/>
		
			<rect x="413.6" y="367.3" transform="matrix(-1 -4.490687e-11 4.490687e-11 -1 989.722 783.6602)" class="st7" width="162.6" height="49.1"/>
		<polygon class="st4" points="477.5,363.6 576.1,456.8 576.1,433 502.7,363.6 		"/>
		<polygon class="st4" points="413.6,416.4 413.6,440.2 441.3,466.4 466.5,466.4 		"/>
		<polygon class="st4" points="413.6,460.3 413.6,466.4 420,466.4 		"/>
	</g>
	<g>
		<rect x="654.1" y="233.3" class="st5" width="3.5" height="79"/>
		<rect x="590.3" y="233.3" class="st5" width="3.5" height="79"/>
		<rect x="526.6" y="233.3" class="st5" width="3.5" height="79"/>
		<rect x="462.8" y="233.3" class="st5" width="3.5" height="79"/>
	</g>
	<g>
		<g class="st15">
			<rect x="650.6" y="233.4" class="st9" width="3.5" height="79"/>
		</g>
		<g class="st15">
			<rect x="586.9" y="233.4" class="st9" width="3.5" height="79"/>
		</g>
		<g class="st15">
			<rect x="523.1" y="233.4" class="st9" width="3.5" height="79"/>
		</g>
		<g class="st15">
			<rect x="459.4" y="233.4" class="st9" width="3.5" height="79"/>
		</g>
	</g>
	<g>
		<rect x="826.9" y="466.4" class="st5" width="3.5" height="124.9"/>
		<rect x="826.9" y="591.3" class="st5" width="3.5" height="0"/>
		
			<rect x="733.9" y="327.2" transform="matrix(-4.417995e-11 1 -1 -4.417995e-11 1222.3344 -248.8909)" class="st5" width="3.5" height="319"/>
		
			<rect x="733.9" y="345.5" transform="matrix(-4.470576e-11 1 -1 -4.470576e-11 1240.6385 -230.5867)" class="st5" width="3.5" height="319"/>
		
			<rect x="733.9" y="308.6" transform="matrix(-4.523156e-11 1 -1 -4.523156e-11 1203.726 -267.4993)" class="st5" width="3.5" height="319"/>
		<rect x="733.9" y="466.4" class="st5" width="3.5" height="124.9"/>
		<rect x="733.9" y="591.3" class="st5" width="3.5" height="0"/>
		<rect x="640.9" y="466.4" class="st5" width="3.5" height="124.9"/>
		<rect x="640.9" y="591.3" class="st5" width="3.5" height="0"/>
	</g>
	
		<rect x="413.6" y="338" transform="matrix(-1 -4.490687e-11 4.490687e-11 -1 989.722 705.2456)" class="st0" width="162.6" height="29.3"/>
	<g>
		
			<rect x="540" y="367.3" transform="matrix(-1 -4.470614e-11 4.470614e-11 -1 1083.4865 833.6538)" class="st5" width="3.5" height="99.1"/>
		<rect x="413.6" y="367.3" class="st5" width="162.6" height="3.5"/>
		<rect x="413.6" y="386.5" class="st5" width="162.6" height="3.5"/>
		
			<rect x="493.1" y="367.3" transform="matrix(-1 -4.470569e-11 4.470569e-11 -1 989.722 833.6538)" class="st5" width="3.5" height="99.1"/>
		
			<rect x="446.2" y="367.3" transform="matrix(-1 -4.470569e-11 4.470569e-11 -1 895.9575 833.6538)" class="st5" width="3.5" height="99.1"/>
	</g>
	<rect x="70.4" y="392.4" class="st0" width="233.6" height="198.9"/>
	<rect x="70.4" y="591.3" class="st0" width="233.6" height="0"/>
	
		<rect x="36.2" y="191.6" transform="matrix(-1 -4.489621e-11 4.489621e-11 -1 449.8081 584.0817)" class="st0" width="377.4" height="200.8"/>
	
		<rect x="66.4" y="221.5" transform="matrix(-1 -4.489665e-11 4.489665e-11 -1 449.8081 613.9156)" class="st16" width="317" height="171"/>
	
		<linearGradient id="SVGID_5_" gradientUnits="userSpaceOnUse" x1="794.7999" y1="345.7812" x2="794.7999" y2="240.8245" gradientTransform="matrix(-1 0 0 1 1019.7 0)">
		<stop  offset="0" style="stop-color:#6BCAEF"/>
		<stop  offset="1" style="stop-color:#357CEF"/>
	</linearGradient>
	<rect x="90.2" y="247.2" class="st17" width="269.4" height="145.3"/>
	<g>
		<polygon class="st4" points="300.8,247.2 359.6,302.7 359.6,275.3 329.8,247.2 		"/>
		<polygon class="st4" points="90.2,247.2 90.2,301.8 148.7,357 232,357 115.7,247.2 		"/>
		<polygon class="st4" points="283,247.2 359.6,319.6 359.6,310.6 292.5,247.2 		"/>
		<polygon class="st4" points="204.5,247.2 320.8,357 359.6,357 359.6,345.8 255.3,247.2 		"/>
		<polygon class="st4" points="165,247.2 281.3,357 312.5,357 196.2,247.2 		"/>
		<polygon class="st4" points="90.2,326.8 90.2,356.3 91,357 122.2,357 		"/>
		<polygon class="st4" points="122.3,247.2 238.5,357 251.3,357 135,247.2 		"/>
	</g>
	<path class="st7" d="M359.6,330.3L359.6,330.3V251h-36.8v42.6C322.8,313.8,339.3,330.3,359.6,330.3z"/>
	<rect x="90.2" y="247.2" class="st7" width="269.4" height="54.8"/>
	<g class="st12">
		<path class="st13" d="M280.6,291h79v62.5H224.9v-6.8C224.9,315.9,249.9,291,280.6,291z"/>
	</g>
	
		<linearGradient id="SVGID_6_" gradientUnits="userSpaceOnUse" x1="617.6428" y1="588.5454" x2="617.6428" y2="475.571" gradientTransform="matrix(-1 0 0 1 1019.7 0)">
		<stop  offset="0" style="stop-color:#6BCAEF"/>
		<stop  offset="1" style="stop-color:#357CEF"/>
	</linearGradient>
	<rect x="304.1" y="480.2" class="st18" width="196" height="111.1"/>
	<g>
		<polygon class="st4" points="406.3,480.2 500,568.8 500,539.1 437.8,480.2 		"/>
		<polygon class="st4" points="304.1,480.2 304.1,544.7 353.4,591.3 443.6,591.3 326.1,480.2 		"/>
		<polygon class="st4" points="346.3,480.2 463.8,591.3 497.9,591.3 380.4,480.2 		"/>
		<polygon class="st4" points="304.1,581.6 304.1,588.8 306.7,591.3 314.3,591.3 		"/>
	</g>
	
		<rect x="304.1" y="480.2" transform="matrix(-1 -4.490331e-11 4.490331e-11 -1 804.1145 1018.644)" class="st7" width="196" height="58.2"/>
	
		<rect x="381.9" y="500.2" transform="matrix(-1 -4.490598e-11 4.490598e-11 -1 803.9186 1091.5221)" class="st19" width="40.1" height="91.1"/>
	<rect x="50.5" y="392.4" class="st1" width="21.5" height="198.9"/>
	<rect x="50.5" y="591.3" class="st1" width="21.5" height="0"/>
	<g>
		
			<rect x="904.6" y="386.5" transform="matrix(-1 -4.470569e-11 4.470569e-11 -1 1812.5625 802.1608)" class="st5" width="3.5" height="29.2"/>
		
			<rect x="849.5" y="386.5" transform="matrix(-1 -4.470569e-11 4.470569e-11 -1 1702.4659 802.1608)" class="st5" width="3.5" height="29.2"/>
		
			<rect x="794.5" y="386.5" transform="matrix(-1 -4.470569e-11 4.470569e-11 -1 1592.37 802.1608)" class="st5" width="3.5" height="29.2"/>
		
			<rect x="739.4" y="386.5" transform="matrix(-1 -4.523150e-11 4.523150e-11 -1 1482.2734 802.1608)" class="st5" width="3.5" height="29.2"/>
		
			<rect x="684.4" y="386.5" transform="matrix(-1 -4.470569e-11 4.470569e-11 -1 1372.177 802.1608)" class="st5" width="3.5" height="29.2"/>
		
			<rect x="629.3" y="386.5" transform="matrix(-1 -4.470525e-11 4.470525e-11 -1 1262.0809 802.1608)" class="st5" width="3.5" height="29.2"/>
	</g>
	<g class="st15">
		
			<rect x="310.1" y="247.2" transform="matrix(-1 -4.506629e-11 4.506629e-11 -1 624.0627 600.7123)" class="st9" width="3.8" height="106.4"/>
		
			<rect x="249.7" y="247.2" transform="matrix(-1 -4.506363e-11 4.506363e-11 -1 503.2789 600.7123)" class="st9" width="3.8" height="106.4"/>
		
			<rect x="189.4" y="247.2" transform="matrix(-1 -4.458401e-11 4.458401e-11 -1 382.4949 600.7123)" class="st9" width="3.8" height="106.4"/>
		
			<rect x="129" y="247.2" transform="matrix(-1 -4.506629e-11 4.506629e-11 -1 261.7111 600.7123)" class="st9" width="3.8" height="106.4"/>
	</g>
	<g>
		
			<rect x="313.6" y="247.2" transform="matrix(-1 -4.506363e-11 4.506363e-11 -1 630.9839 600.7123)" class="st5" width="3.8" height="106.4"/>
		
			<rect x="253.2" y="247.2" transform="matrix(-1 -4.458401e-11 4.458401e-11 -1 510.1999 600.7123)" class="st5" width="3.8" height="106.4"/>
		
			<rect x="192.8" y="247.2" transform="matrix(-1 -4.506629e-11 4.506629e-11 -1 389.4161 600.7123)" class="st5" width="3.8" height="106.4"/>
		
			<rect x="132.4" y="247.2" transform="matrix(-1 -4.458401e-11 4.458401e-11 -1 268.6323 600.7123)" class="st5" width="3.8" height="106.4"/>
	</g>
	<g>
		<rect x="465.5" y="480.2" class="st5" width="3.5" height="111.1"/>
		<rect x="422" y="480.2" class="st5" width="3.5" height="111.1"/>
		<rect x="378.5" y="480.2" class="st5" width="3.5" height="111.1"/>
		<rect x="335" y="480.2" class="st5" width="3.5" height="111.1"/>
	</g>
	
		<rect x="369.6" y="466.4" transform="matrix(-1 -4.490909e-11 4.490909e-11 -1 869.6343 946.6263)" class="st0" width="130.5" height="13.9"/>
	<rect x="90.2" y="247.2" class="st5" width="269.4" height="3.8"/>
	<rect x="90.2" y="284" class="st5" width="269.4" height="3.8"/>
	<rect x="90.2" y="266.3" class="st5" width="269.4" height="3.8"/>
	<rect x="413.6" y="250.8" class="st5" width="293.2" height="3.5"/>
	<rect x="413.6" y="266" class="st5" width="293.2" height="3.5"/>
	<rect x="304.1" y="496.8" class="st5" width="196" height="3.5"/>
	<g class="st12">
		<rect x="413.6" y="233.5" class="st13" width="293.2" height="25.8"/>
	</g>
	<g class="st12">
		<rect x="36.2" y="191.7" class="st13" width="377.4" height="15"/>
	</g>
	<g class="st20">
		<rect x="413.5" y="338" class="st21" width="547.7" height="15.3"/>
	</g>
	<g class="st20">
		<rect x="413.6" y="367.3" class="st9" width="162.6" height="12.4"/>
	</g>
	<g class="st20">
		<rect x="560.2" y="338" class="st9" width="15.9" height="128.4"/>
	</g>
	<g class="st22">
		<rect x="484.1" y="466.4" class="st23" width="15.9" height="124.9"/>
	</g>
	<g class="st20">
		<rect x="50.5" y="392.4" class="st9" width="363.1" height="15.5"/>
	</g>
	<g class="st20">
		<rect x="369.4" y="480.2" class="st9" width="130.7" height="36.3"/>
	</g>
	<g>
		
			<rect x="96.6" y="446.4" transform="matrix(-1 -4.489798e-11 4.489798e-11 -1 374.489 1037.7247)" class="st1" width="181.4" height="144.9"/>
		
			<rect x="96.6" y="461.5" transform="matrix(-1 -4.489798e-11 4.489798e-11 -1 374.489 925.2077)" class="st24" width="181.4" height="2.3"/>
		
			<rect x="96.6" y="477.9" transform="matrix(-1 -4.489798e-11 4.489798e-11 -1 374.489 958.1788)" class="st24" width="181.4" height="2.3"/>
		
			<rect x="96.6" y="494.4" transform="matrix(-1 -4.489798e-11 4.489798e-11 -1 374.489 991.1499)" class="st24" width="181.4" height="2.3"/>
		
			<rect x="96.6" y="510.9" transform="matrix(-1 -4.489798e-11 4.489798e-11 -1 374.489 1024.121)" class="st24" width="181.4" height="2.3"/>
		
			<rect x="96.6" y="527.4" transform="matrix(-1 -4.489798e-11 4.489798e-11 -1 374.489 1057.092)" class="st24" width="181.4" height="2.3"/>
		
			<rect x="96.6" y="543.9" transform="matrix(-1 -4.489798e-11 4.489798e-11 -1 374.489 1090.0634)" class="st24" width="181.4" height="2.3"/>
		
			<rect x="96.6" y="560.4" transform="matrix(-1 -4.489798e-11 4.489798e-11 -1 374.489 1123.0342)" class="st24" width="181.4" height="2.3"/>
		
			<rect x="96.6" y="578.8" transform="matrix(-1 -4.489798e-11 4.489798e-11 -1 374.489 1160.0055)" class="st24" width="181.4" height="2.3"/>
	</g>
	<g class="st20">
		<rect x="90.2" y="247.2" class="st9" width="269.4" height="29.9"/>
	</g>
	
		<rect x="369.6" y="441" transform="matrix(-1 -4.489621e-11 4.489621e-11 -1 945.8121 884.5673)" class="st25" width="206.5" height="2.6"/>
	
		<rect x="371.2" y="454.3" transform="matrix(-1 -4.489710e-11 4.489710e-11 -1 947.309 909.7589)" class="st2" width="205" height="1.1"/>
	
		<rect x="371.2" y="459.9" transform="matrix(-1 -4.489710e-11 4.489710e-11 -1 947.309 920.8603)" class="st2" width="205" height="1.1"/>
	<g>
		
			<rect x="566.1" y="443.6" transform="matrix(-1 -4.549795e-11 4.549795e-11 -1 1134.2863 909.9646)" class="st2" width="2" height="22.8"/>
		
			<rect x="549.8" y="443.6" transform="matrix(-1 -4.461199e-11 4.461199e-11 -1 1101.6661 909.9646)" class="st2" width="2" height="22.8"/>
		
			<rect x="533.5" y="443.6" transform="matrix(-1 -4.550328e-11 4.550328e-11 -1 1069.0463 909.9646)" class="st2" width="2" height="22.8"/>
		
			<rect x="517.2" y="443.6" transform="matrix(-1 -4.461110e-11 4.461110e-11 -1 1036.4264 909.9646)" class="st2" width="2" height="22.8"/>
		
			<rect x="500.9" y="443.6" transform="matrix(-1 -4.461110e-11 4.461110e-11 -1 1003.8064 909.9646)" class="st2" width="2" height="22.8"/>
		
			<rect x="484.6" y="443.6" transform="matrix(-1 -4.461110e-11 4.461110e-11 -1 971.1865 909.9646)" class="st2" width="2" height="22.8"/>
		
			<rect x="468.3" y="443.6" transform="matrix(-1 -4.461110e-11 4.461110e-11 -1 938.5666 909.9646)" class="st2" width="2" height="22.8"/>
		
			<rect x="452" y="443.6" transform="matrix(-1 -4.550328e-11 4.550328e-11 -1 905.9467 909.9646)" class="st2" width="2" height="22.8"/>
		
			<rect x="435.6" y="443.6" transform="matrix(-1 -4.461110e-11 4.461110e-11 -1 873.3268 909.9646)" class="st2" width="2" height="22.8"/>
		
			<rect x="419.3" y="443.6" transform="matrix(-1 -4.550328e-11 4.550328e-11 -1 840.7068 909.9646)" class="st2" width="2" height="22.8"/>
		
			<rect x="403" y="443.6" transform="matrix(-1 -4.461066e-11 4.461066e-11 -1 808.0869 909.9646)" class="st2" width="2" height="22.8"/>
		
			<rect x="386.7" y="443.6" transform="matrix(-1 -4.461199e-11 4.461199e-11 -1 775.467 909.9646)" class="st2" width="2" height="22.8"/>
		
			<rect x="370.4" y="443.6" transform="matrix(-1 -4.461110e-11 4.461110e-11 -1 742.8471 909.9646)" class="st2" width="2" height="22.8"/>
	</g>
	<g class="st12">
		<polygon class="st13" points="576.1,338 447.8,466.3 576.1,466.4 		"/>
	</g>
	<g class="st26">
		<polygon class="st9" points="50.5,591.3 162.6,591.3 50.5,591.3 		"/>
	</g>
	<g class="st12">
		<polygon class="st13" points="500,480.2 500,591.3 389,591.3 		"/>
	</g>
	
		<rect x="35.9" y="353.5" transform="matrix(-1 -4.489710e-11 4.489710e-11 -1 449.4516 745.8998)" class="st16" width="377.7" height="39"/>
	
		<rect x="895.1" y="570.9" transform="matrix(-1 -4.488866e-11 4.488866e-11 -1 1856.2782 1162.233)" class="st27" width="66.1" height="20.4"/>
	<rect x="500" y="571" class="st27" width="76" height="20.3"/>
	<rect x="500" y="591.3" class="st27" width="76" height="0"/>
	<g class="st20">
		<rect x="881.9" y="466.4" class="st9" width="13.2" height="124.9"/>
	</g>
	<path class="st0" d="M387.1,553.4L387.1,553.4c0.6,0,1.2-0.5,1.2-1.2v-6.2c0-0.6-0.5-1.2-1.2-1.2l0,0c-0.6,0-1.2,0.5-1.2,1.2v6.2
		C385.9,552.9,386.4,553.4,387.1,553.4z"/>
	
		<rect x="334.8" y="522.1" transform="matrix(-1 -4.490465e-11 4.490465e-11 -1 716.717 1047.3861)" class="st5" width="47" height="3.2"/>
	
		<rect x="422" y="522.1" transform="matrix(-1 -4.490465e-11 4.490465e-11 -1 891.033 1047.3861)" class="st5" width="47" height="3.2"/>
	
		<rect x="334.8" y="560.1" transform="matrix(-1 -4.490465e-11 4.490465e-11 -1 716.717 1123.5193)" class="st5" width="47" height="3.2"/>
	
		<rect x="422" y="560.1" transform="matrix(-1 -4.490465e-11 4.490465e-11 -1 891.033 1123.5193)" class="st5" width="47" height="3.2"/>
	<g>
		<g>
			<path class="st28" d="M440.7,591.3h44c0-1.3-0.1-2.6-0.3-3.8c-0.1-0.3-0.1-0.6-0.2-0.9c-0.4-2.1-1.2-4-2.2-5.8
				c-0.1-0.3-0.3-0.5-0.4-0.8c-1.1-1.9-2.6-3.6-4.2-5.1c-0.2-0.2-0.4-0.4-0.7-0.6c-1.8-1.5-3.8-2.6-5.9-3.5
				c-0.3-0.1-0.5-0.2-0.8-0.3c-2.2-0.8-4.5-1.2-6.9-1.2c-0.1,0-0.3,0-0.4,0c-0.1,0-0.3,0-0.4,0c-2.4,0-4.7,0.5-6.9,1.2
				c-0.3,0.1-0.5,0.2-0.8,0.3c-2.2,0.9-4.2,2-5.9,3.5c-0.2,0.2-0.4,0.4-0.7,0.6c-1.6,1.5-3.1,3.2-4.2,5.1c-0.2,0.3-0.3,0.5-0.4,0.8
				c-1,1.8-1.7,3.8-2.2,5.8c-0.1,0.3-0.1,0.6-0.2,0.9C440.8,588.7,440.7,590,440.7,591.3z"/>
		</g>
		<g>
			<path class="st29" d="M462.3,569.3v22h0.8v-22c-0.1,0-0.3,0-0.4,0C462.6,569.3,462.4,569.3,462.3,569.3z"/>
		</g>
		<g>
			<path class="st29" d="M464.5,591.3h0.9l5.5-20.5c-0.3-0.1-0.5-0.2-0.8-0.3L464.5,591.3z"/>
		</g>
		<g>
			<path class="st29" d="M466.9,591.3h1l9.5-16.4c-0.2-0.2-0.4-0.4-0.7-0.6L466.9,591.3z"/>
		</g>
		<g>
			<path class="st29" d="M470.3,591.3h1.2l10.5-10.5c-0.1-0.3-0.3-0.5-0.4-0.8L470.3,591.3z"/>
		</g>
		<g>
			<path class="st29" d="M476,591.3h1.7l6.7-3.8c-0.1-0.3-0.1-0.6-0.2-0.9L476,591.3z"/>
		</g>
		<g>
			<path class="st29" d="M454.6,570.8l5.5,20.5h0.9l-5.6-20.8C455.1,570.6,454.8,570.7,454.6,570.8z"/>
		</g>
		<g>
			<path class="st29" d="M448,574.9l9.5,16.4h1l-9.8-17C448.5,574.5,448.2,574.7,448,574.9z"/>
		</g>
		<g>
			<path class="st29" d="M443.4,580.8l10.5,10.5h1.2L443.8,580C443.7,580.2,443.5,580.5,443.4,580.8z"/>
		</g>
		<g>
			<path class="st29" d="M441,587.5l6.7,3.8h1.7l-8.2-4.7C441.1,586.9,441.1,587.2,441,587.5z"/>
		</g>
	</g>
	<g>
		<g>
			<path class="st28" d="M484.7,591.3H509c0-0.7-0.1-1.4-0.2-2.1c0-0.2-0.1-0.3-0.1-0.5c-0.2-1.1-0.7-2.2-1.2-3.2
				c-0.1-0.1-0.2-0.3-0.2-0.4c-0.6-1.1-1.4-2-2.3-2.8c-0.1-0.1-0.2-0.2-0.4-0.3c-1-0.8-2.1-1.5-3.3-1.9c-0.1-0.1-0.3-0.1-0.4-0.2
				c-1.2-0.4-2.5-0.7-3.8-0.7c-0.1,0-0.2,0-0.2,0c-0.1,0-0.2,0-0.2,0c-1.3,0-2.6,0.3-3.8,0.7c-0.1,0.1-0.3,0.1-0.4,0.2
				c-1.2,0.5-2.3,1.1-3.3,1.9c-0.1,0.1-0.2,0.2-0.4,0.3c-0.9,0.8-1.7,1.8-2.3,2.8c-0.1,0.1-0.2,0.3-0.2,0.4c-0.5,1-1,2.1-1.2,3.2
				c0,0.2-0.1,0.3-0.1,0.5C484.7,589.9,484.7,590.6,484.7,591.3z"/>
		</g>
		<g>
			<path class="st29" d="M496.6,579.1v12.2h0.5v-12.2c-0.1,0-0.2,0-0.2,0C496.8,579.1,496.7,579.1,496.6,579.1z"/>
		</g>
		<g>
			<path class="st29" d="M497.8,591.3h0.5l3-11.3c-0.1-0.1-0.3-0.1-0.4-0.2L497.8,591.3z"/>
		</g>
		<g>
			<path class="st29" d="M499.2,591.3h0.5l5.2-9.1c-0.1-0.1-0.2-0.2-0.4-0.3L499.2,591.3z"/>
		</g>
		<g>
			<path class="st29" d="M501,591.3h0.7l5.8-5.8c-0.1-0.1-0.2-0.3-0.2-0.4L501,591.3z"/>
		</g>
		<g>
			<path class="st29" d="M504.2,591.3h0.9l3.7-2.1c0-0.2-0.1-0.3-0.1-0.5L504.2,591.3z"/>
		</g>
		<g>
			<path class="st29" d="M492.4,580l3,11.3h0.5l-3.1-11.5C492.7,579.9,492.5,579.9,492.4,580z"/>
		</g>
		<g>
			<path class="st29" d="M488.7,582.2l5.2,9.1h0.5l-5.4-9.4C489,582,488.8,582.1,488.7,582.2z"/>
		</g>
		<g>
			<path class="st29" d="M486.2,585.5l5.8,5.8h0.7l-6.3-6.3C486.3,585.2,486.2,585.3,486.2,585.5z"/>
		</g>
		<g>
			<path class="st29" d="M484.9,589.2l3.7,2.1h0.9l-4.5-2.6C484.9,588.9,484.9,589,484.9,589.2z"/>
		</g>
	</g>
	<g>
		<g>
			<path class="st28" d="M363.8,591.3h-44c0-1.3,0.1-2.6,0.3-3.8c0.1-0.3,0.1-0.6,0.2-0.9c0.4-2.1,1.2-4,2.2-5.8
				c0.1-0.3,0.3-0.5,0.4-0.8c1.1-1.9,2.6-3.6,4.2-5.1c0.2-0.2,0.4-0.4,0.7-0.6c1.8-1.5,3.8-2.6,5.9-3.5c0.3-0.1,0.5-0.2,0.8-0.3
				c2.2-0.8,4.5-1.2,6.9-1.2c0.1,0,0.3,0,0.4,0c0.1,0,0.3,0,0.4,0c2.4,0,4.7,0.5,6.9,1.2c0.3,0.1,0.5,0.2,0.8,0.3
				c2.2,0.9,4.2,2,5.9,3.5c0.2,0.2,0.4,0.4,0.7,0.6c1.6,1.5,3.1,3.2,4.2,5.1c0.2,0.3,0.3,0.5,0.4,0.8c1,1.8,1.7,3.8,2.2,5.8
				c0.1,0.3,0.1,0.6,0.2,0.9C363.6,588.7,363.8,590,363.8,591.3z"/>
		</g>
		<g>
			<path class="st29" d="M342.2,569.3v22h-0.8v-22c0.1,0,0.3,0,0.4,0C341.9,569.3,342,569.3,342.2,569.3z"/>
		</g>
		<g>
			<path class="st29" d="M340,591.3h-0.9l-5.5-20.5c0.3-0.1,0.5-0.2,0.8-0.3L340,591.3z"/>
		</g>
		<g>
			<path class="st29" d="M337.5,591.3h-1l-9.5-16.4c0.2-0.2,0.4-0.4,0.7-0.6L337.5,591.3z"/>
		</g>
		<g>
			<path class="st29" d="M334.2,591.3H333l-10.5-10.5c0.1-0.3,0.3-0.5,0.4-0.8L334.2,591.3z"/>
		</g>
		<g>
			<path class="st29" d="M328.4,591.3h-1.7l-6.7-3.8c0.1-0.3,0.1-0.6,0.2-0.9L328.4,591.3z"/>
		</g>
		<g>
			<path class="st29" d="M349.9,570.8l-5.5,20.5h-0.9l5.6-20.8C349.3,570.6,349.6,570.7,349.9,570.8z"/>
		</g>
		<g>
			<path class="st29" d="M356.4,574.9l-9.5,16.4h-1l9.8-17C356,574.5,356.2,574.7,356.4,574.9z"/>
		</g>
		<g>
			<path class="st29" d="M361.1,580.7l-10.5,10.5h-1.2l11.3-11.3C360.8,580.2,360.9,580.5,361.1,580.7z"/>
		</g>
		<g>
			<path class="st29" d="M363.4,587.4l-6.7,3.8h-1.7l8.2-4.7C363.3,586.8,363.4,587.1,363.4,587.4z"/>
		</g>
	</g>
	<g>
		<g>
			<path class="st28" d="M319.7,591.3h-24.4c0-0.7,0.1-1.4,0.2-2.1c0-0.2,0.1-0.3,0.1-0.5c0.2-1.1,0.7-2.2,1.2-3.2
				c0.1-0.1,0.2-0.3,0.2-0.4c0.6-1.1,1.4-2,2.3-2.8c0.1-0.1,0.2-0.2,0.4-0.3c1-0.8,2.1-1.5,3.3-1.9c0.1-0.1,0.3-0.1,0.4-0.2
				c1.2-0.4,2.5-0.7,3.8-0.7c0.1,0,0.2,0,0.2,0s0.2,0,0.2,0c1.3,0,2.6,0.3,3.8,0.7c0.1,0.1,0.3,0.1,0.4,0.2c1.2,0.5,2.3,1.1,3.3,1.9
				c0.1,0.1,0.2,0.2,0.4,0.3c0.9,0.8,1.7,1.8,2.3,2.8c0.1,0.1,0.2,0.3,0.2,0.4c0.5,1,1,2.1,1.2,3.2c0,0.2,0.1,0.3,0.1,0.5
				C319.7,589.8,319.7,590.6,319.7,591.3z"/>
		</g>
		<g>
			<path class="st29" d="M307.8,579.1v12.2h-0.5v-12.2c0.1,0,0.2,0,0.2,0S307.7,579.1,307.8,579.1z"/>
		</g>
		<g>
			<path class="st29" d="M306.6,591.3h-0.5l-3-11.3c0.1-0.1,0.3-0.1,0.4-0.2L306.6,591.3z"/>
		</g>
		<g>
			<path class="st29" d="M305.2,591.3h-0.5l-5.2-9.1c0.1-0.1,0.2-0.2,0.4-0.3L305.2,591.3z"/>
		</g>
		<g>
			<path class="st29" d="M303.4,591.3h-0.7l-5.8-5.8c0.1-0.1,0.2-0.3,0.2-0.4L303.4,591.3z"/>
		</g>
		<g>
			<path class="st29" d="M300.2,591.3h-0.9l-3.7-2.1c0-0.2,0.1-0.3,0.1-0.5L300.2,591.3z"/>
		</g>
		<g>
			<path class="st29" d="M312,580l-3,11.3h-0.5l3.1-11.5C311.7,579.8,311.9,579.9,312,580z"/>
		</g>
		<g>
			<path class="st29" d="M315.7,582.2l-5.2,9.1h-0.5l5.4-9.4C315.4,582,315.6,582.1,315.7,582.2z"/>
		</g>
		<g>
			<path class="st29" d="M318.2,585.5l-5.8,5.8h-0.7l6.3-6.3C318.1,585.2,318.2,585.3,318.2,585.5z"/>
		</g>
		<g>
			<path class="st29" d="M319.5,589.2l-3.7,2.1h-0.9l4.5-2.6C319.5,588.8,319.5,589,319.5,589.2z"/>
		</g>
	</g>
	<g>
		
			<rect x="60" y="471.3" transform="matrix(-1 -4.435620e-11 4.435620e-11 -1 122.4645 1062.6444)" class="st0" width="2.5" height="120.1"/>
		<polygon class="st30" points="56.5,460.7 61.2,460.7 61.2,471.3 58,471.3 		"/>
		<polygon class="st31" points="65.9,460.7 61.2,460.7 61.2,471.3 64.4,471.3 		"/>
		<path class="st0" d="M58.7,458.5h5.1c1.2,0,2.1,1,2.1,2.1l0,0h-9.4l0,0C56.5,459.5,57.5,458.5,58.7,458.5z"/>
	</g>
	<g>
		<g>
			<path class="st32" d="M19.2,568.9c3,0.1,1.8-2.9,0.7-5.3c-1.1-2.4-2.3-5.3,0-5.6c2.3-0.3,2.8-1.4,1.2-4.4c-2-3.9-0.2-7.1,2.9-4.8
				c2.2,1.7,0.6-6,2.1-7.8c1.7-2.1,4.9-0.7,4.9,2.3c0.1,4.8,3,1.5,3.9,3.3c1.5,3-2.6,6.9,0.1,7.5c2.7,0.6,2.1,3.2,1.2,5.1
				c-1,2-3.6,5,0.5,6.3c2.8,0.9-1.2,9.9-2,11.7h-15c-0.3-0.5-1-1.7-1.9-3.6C16.7,571,16.2,568.8,19.2,568.9z"/>
			<g>
				<rect x="27.9" y="549.8" class="st33" width="0.5" height="27.6"/>
			</g>
			<g>
				
					<rect x="26.3" y="553.2" transform="matrix(0.8001 -0.5999 0.5999 0.8001 -328.0572 127.0603)" class="st33" width="0.5" height="5.1"/>
			</g>
			<g>
				<rect x="27.1" y="561.4" transform="matrix(0.6 -0.8 0.8 0.6 -437.463 248.429)" class="st33" width="5.1" height="0.5"/>
			</g>
			<g>
				
					<rect x="25.5" y="561.9" transform="matrix(0.8061 -0.5918 0.5918 0.8061 -329.9114 124.9648)" class="st33" width="0.5" height="8.1"/>
			</g>
			<g>
				
					<rect x="26.5" y="572" transform="matrix(0.592 -0.8059 0.8059 0.592 -448.6958 258.0856)" class="st33" width="8.1" height="0.5"/>
			</g>
		</g>
		
			<rect x="15.7" y="577.4" transform="matrix(-1 -4.489576e-11 4.489576e-11 -1 56.0431 1168.7338)" class="st0" width="24.6" height="14"/>
	</g>
	<g>
		<g>
			<path class="st34" d="M923.6,561.5c0-5.5-0.4-10,4.2-9.9c3.6,0.1,4.5,2.9,4.5,6.1c0,3.2,0.9,5.6,3.6,5.6c2.7,0,4.9,3.8,1.9,9.7
				c-1.4,2.8-2.7,5-3.2,5.9h-15.1c-1.2-1.7-5-7.6-2-11C921.1,564,923.6,568.5,923.6,561.5z"/>
			<g>
				<rect x="928" y="564.4" class="st33" width="0.8" height="14.5"/>
			</g>
			<g>
				
					<rect x="926.1" y="570.2" transform="matrix(0.7999 -0.6001 0.6001 0.7999 -158.7041 670.7189)" class="st33" width="0.8" height="6.3"/>
			</g>
			<g>
				
					<rect x="927.5" y="568.4" transform="matrix(0.6276 -0.7785 0.7785 0.6276 -96.4991 935.8854)" class="st33" width="5.2" height="0.8"/>
			</g>
		</g>
		
			<rect x="916.7" y="578.9" transform="matrix(-1 -4.493307e-11 4.493307e-11 -1 1855.8268 1170.2115)" class="st0" width="22.3" height="12.4"/>
	</g>
	<g>
		<g>
			<g>
				<rect x="545.9" y="543.3" class="st34" width="0.8" height="36"/>
			</g>
			<g>
				
					<rect x="545.7" y="547.5" transform="matrix(0.6372 -0.7707 0.7707 0.6372 -223.6292 620.7592)" class="st34" width="3.6" height="0.7"/>
			</g>
			<g>
				
					<rect x="545.4" y="552.9" transform="matrix(0.7121 -0.7021 0.7021 0.7121 -230.4922 544.4777)" class="st34" width="6.3" height="0.8"/>
			</g>
			<g>
				
					<rect x="545.2" y="557.7" transform="matrix(0.7308 -0.6826 0.6826 0.7308 -233.0735 525.132)" class="st34" width="8.1" height="0.8"/>
			</g>
			<g>
				<path class="st34" d="M546.3,542.1c0.6,0,1.1,0.5,1.1,1.1c0,0.6-0.5,1.1-1.1,1.1c-0.6,0-1.1-0.5-1.1-1.1
					C545.2,542.6,545.7,542.1,546.3,542.1z"/>
			</g>
			<g>
				<circle class="st34" cx="548.8" cy="546.2" r="1.1"/>
			</g>
			<g>
				<path class="st34" d="M550.8,549.8c0.6,0,1.1,0.5,1.1,1.1c0,0.6-0.5,1.1-1.1,1.1c-0.6,0-1.1-0.5-1.1-1.1
					C549.7,550.2,550.2,549.8,550.8,549.8z"/>
			</g>
			<g>
				<path class="st34" d="M552.2,554c0.6,0,1.1,0.5,1.1,1.1c0,0.6-0.5,1.1-1.1,1.1c-0.6,0-1.1-0.5-1.1-1.1
					C551.1,554.5,551.6,554,552.2,554z"/>
			</g>
			<g>
				
					<rect x="545" y="563.4" transform="matrix(0.7377 -0.6752 0.6752 0.7377 -236.4063 519.1862)" class="st34" width="9.8" height="0.8"/>
			</g>
			<g>
				<path class="st34" d="M553.5,559.2c0.6,0,1.1,0.5,1.1,1.1c0,0.6-0.5,1.1-1.1,1.1c-0.6,0-1.1-0.5-1.1-1.1
					C552.4,559.7,552.9,559.2,553.5,559.2z"/>
			</g>
			<g>
				
					<rect x="545" y="569.1" transform="matrix(0.7377 -0.6751 0.6751 0.7377 -240.2364 520.6614)" class="st34" width="9.8" height="0.8"/>
			</g>
			<g>
				<path class="st34" d="M553.5,564.9c0.6,0,1.1,0.5,1.1,1.1c0,0.6-0.5,1.1-1.1,1.1c-0.6,0-1.1-0.5-1.1-1.1
					C552.4,565.4,552.9,564.9,553.5,564.9z"/>
			</g>
			<g>
				
					<rect x="544.9" y="546.1" transform="matrix(0.7707 -0.6372 0.6372 0.7707 -224.0776 473.1007)" class="st34" width="0.7" height="3.6"/>
			</g>
			<g>
				
					<rect x="543.8" y="550.1" transform="matrix(0.702 -0.7121 0.7121 0.702 -231.8412 552.3843)" class="st34" width="0.8" height="6.3"/>
			</g>
			<g>
				
					<rect x="543.1" y="554" transform="matrix(0.6825 -0.7309 0.7309 0.6825 -235.336 574.3911)" class="st34" width="0.8" height="8.1"/>
			</g>
			<g>
				<path class="st34" d="M544,545.1c0.6,0,1.1,0.5,1.1,1.1c0,0.6-0.5,1.1-1.1,1.1c-0.6,0-1.1-0.5-1.1-1.1
					C542.9,545.6,543.4,545.1,544,545.1z"/>
			</g>
			<g>
				<path class="st34" d="M542,549.8c0.6,0,1.1,0.5,1.1,1.1c0,0.6-0.5,1.1-1.1,1.1c-0.6,0-1.1-0.5-1.1-1.1
					C540.8,550.2,541.3,549.8,542,549.8z"/>
			</g>
			<g>
				<path class="st34" d="M540.5,554c0.6,0,1.1,0.5,1.1,1.1c0,0.6-0.5,1.1-1.1,1.1c-0.6,0-1.1-0.5-1.1-1.1
					C539.4,554.5,539.9,554,540.5,554z"/>
			</g>
			<g>
				
					<rect x="542.5" y="558.9" transform="matrix(0.6751 -0.7377 0.7377 0.6751 -239.5714 583.6115)" class="st34" width="0.8" height="9.8"/>
			</g>
			<g>
				<path class="st34" d="M539.3,559.2c0.6,0,1.1,0.5,1.1,1.1c0,0.6-0.5,1.1-1.1,1.1c-0.6,0-1.1-0.5-1.1-1.1
					C538.1,559.7,538.6,559.2,539.3,559.2z"/>
			</g>
			<g>
				
					<rect x="542.5" y="564.6" transform="matrix(0.6753 -0.7375 0.7375 0.6753 -243.7604 585.2974)" class="st34" width="0.8" height="9.8"/>
			</g>
			<g>
				<path class="st34" d="M539.3,564.9c0.6,0,1.1,0.5,1.1,1.1c0,0.6-0.5,1.1-1.1,1.1c-0.6,0-1.1-0.5-1.1-1.1
					C538.1,565.4,538.6,564.9,539.3,564.9z"/>
			</g>
			<g>
				<path class="st34" d="M546.1,579.4h-2.9c-1.8-0.7-4-1.8-5.9-3.7c-3.8-3.8-4.6-9-4.6-9s5.2,0.9,9,4.6
					C544.5,574.1,545.7,577.7,546.1,579.4z"/>
			</g>
			<g>
				<path class="st34" d="M560,566.7c0,0-0.9,5.2-4.6,9c-1.9,1.9-4.1,3-5.9,3.7h-2.9c0.4-1.7,1.6-5.3,4.4-8.1
					C554.7,567.5,560,566.7,560,566.7z"/>
			</g>
		</g>
		
			<rect x="532" y="577" transform="matrix(-1 -4.487178e-11 4.487178e-11 -1 1092.6495 1168.3157)" class="st0" width="28.6" height="14.4"/>
	</g>
	<g>
		<g>
			<g>
				<g>
					<path class="st34" d="M991.9,541.3c0,3.3-1.9,6.1-1.9,6.1s-2-2.7-2-6c0-3.3,1.9-6.1,1.9-6.1S991.9,537.9,991.9,541.3z"/>
				</g>
				<g>
					<path class="st34" d="M990,549.1c0,0-2.3,0-4.3-1.3s-2.7-3.5-2.7-3.5s2.3,0,4.3,1.3C989.2,546.9,990,549.1,990,549.1z"/>
				</g>
				<g>
					<path class="st34" d="M989.9,554.8c0,0-3.5,0-6.3-1.9c-2.9-2-4-5.3-4-5.3s3.5,0,6.3,1.9C988.7,551.5,989.9,554.8,989.9,554.8z"
						/>
				</g>
				<g>
					<path class="st34" d="M985,554.6c3.6,2.5,5,6.5,5,6.5s-4.3,0.1-7.9-2.4c-3.6-2.5-5-6.5-5-6.5S981.4,552.2,985,554.6z"/>
				</g>
				<g>
					<path class="st34" d="M984,560.7c4.2,2.9,5.9,7.7,5.9,7.7s-5.1,0.1-9.2-2.8c-4.2-2.9-5.9-7.7-5.9-7.7S979.9,557.8,984,560.7z"
						/>
				</g>
				<g>
					<path class="st34" d="M983.4,568.1c4.6,3.2,6.5,8.5,6.5,8.5s-5.6,0.1-10.2-3.1c-4.6-3.2-6.5-8.5-6.5-8.5
						S978.8,564.8,983.4,568.1z"/>
				</g>
				<g>
					<path class="st34" d="M992.7,545.5c1.9-1.3,4.3-1.3,4.3-1.3s-0.8,2.2-2.7,3.5c-1.9,1.3-4.3,1.3-4.3,1.3
						S990.7,546.9,992.7,545.5z"/>
				</g>
				<g>
					<path class="st34" d="M994.1,549.5c2.9-2,6.3-1.9,6.3-1.9s-1.2,3.3-4,5.3c-2.9,2-6.3,1.9-6.3,1.9S991.2,551.5,994.1,549.5z"/>
				</g>
				<g>
					<path class="st34" d="M994.9,554.5c3.6-2.5,7.9-2.4,7.9-2.4s-1.4,4.1-5,6.5c-3.6,2.5-7.9,2.4-7.9,2.4S991.4,556.9,994.9,554.5z
						"/>
				</g>
				<g>
					<path class="st34" d="M995.9,560.5c4.2-2.9,9.2-2.8,9.2-2.8s-1.7,4.8-5.9,7.7c-4.2,2.9-9.2,2.8-9.2,2.8
						S991.7,563.4,995.9,560.5z"/>
				</g>
				<g>
					<path class="st34" d="M996.5,567.9c4.6-3.2,10.2-3.1,10.2-3.1s-1.9,5.3-6.5,8.5c-4.6,3.2-10.2,3.1-10.2,3.1
						S991.9,571.1,996.5,567.9z"/>
				</g>
			</g>
			<g>
				<rect x="989.7" y="546.5" class="st34" width="0.4" height="32.4"/>
			</g>
		</g>
		
			<rect x="975" y="573.7" transform="matrix(-1 -4.488733e-11 4.488733e-11 -1 1979.9011 1164.9741)" class="st0" width="29.8" height="17.6"/>
	</g>
</g>
<rect x="96.4" y="584.9" class="st1" width="181.5" height="47.5"/>
<rect x="96.6" y="595.2" transform="matrix(-1 -4.489798e-11 4.489798e-11 -1 374.489 1192.6641)" class="st24" width="181.4" height="2.3"/>
<rect x="96.6" y="611.7" transform="matrix(-1 -4.489798e-11 4.489798e-11 -1 374.489 1225.635)" class="st24" width="181.4" height="2.3"/>
<rect x="96.6" y="629.2" transform="matrix(-1 -4.489798e-11 4.489798e-11 -1 374.489 1260.6063)" class="st24" width="181.4" height="2.3"/>
<g class="st12">
	<polygon class="st13" points="50.5,392.4 413.6,392.4 220.4,585.2 173.6,631.9 96.4,632.5 96.6,591.3 50.5,591.3 	"/>
</g>
</svg>
