<svg xmlns="http://www.w3.org/2000/svg" viewBox="0 0 66.33 106.35"><defs><style>.cls-1,.cls-7{opacity:0.2;}.cls-2{fill:#bcbec0;}.cls-3{fill:#f2f2f3;}.cls-4{fill:#adadad;}.cls-5{fill:#1c4b94;}.cls-5,.cls-6{opacity:0.5;}.cls-6{fill:#90d3ef;}.cls-7{fill:#fff;}.cls-8{fill:#f0c6b4;}.cls-9{fill:#ff7400;}.cls-10{fill:#fb0;}.cls-11{fill:#292929;}.cls-12{fill:#52bbe6;}.cls-13{fill:#663f30;}.cls-14{fill:#4a2e23;}.cls-15{fill:#009ac8;}.cls-16{fill:#eaad94;}.cls-17{fill:#d49c00;}</style></defs><title>okna</title><g id="Warstwa_2" data-name="Warstwa 2"><g id="Layer_1" data-name="Layer 1"><path class="cls-1" d="M40.17,104.06c4.91,2.84,12.74,3.07,17.49.52s4.61-6.91-.3-9.75-12.74-3.07-17.49-.52S35.26,101.23,40.17,104.06Z"/><path class="cls-1" d="M2.83,79.52a15.12,15.12,0,0,0,13.81-.1c3.83-2.25,3.85-5.85.06-8a15.18,15.18,0,0,0-13.81.1C-.94,73.73-1,77.33,2.83,79.52Z"/><polygon class="cls-2" points="20.48 0 18.57 1.11 21.88 6.03 21.88 4.29 57.02 24 57.02 37.77 29.78 22.05 21.29 18.4 57.02 41.46 57.02 60.2 54.46 58.72 58.54 64.79 60.46 63.68 60.46 22.51 20.48 0"/><path class="cls-3" d="M58.54,23.62l-40-22.51V39.29l40,25.5ZM57,37.77,21.88,15.07V4.29L57,24ZM57,60.2,21.88,37.49V18.75L57,41.46Z"/><polygon class="cls-4" points="21.88 15.07 57.02 37.77 57.02 39.83 20.1 16.08 20.1 3.26 21.88 4.29 21.88 15.07"/><polygon class="cls-5" points="57.02 38.81 20.97 15.59 20.97 3.77 21.29 3.95 21.29 15.43 57.02 38.47 57.02 38.81"/><polygon class="cls-6" points="57.02 38.81 20.97 15.59 20.97 3.77 57.02 24 57.02 38.81"/><polygon class="cls-4" points="21.88 37.49 57.02 60.2 57.02 62.26 20.1 38.51 20.1 17.72 21.88 18.75 21.88 37.49"/><polygon class="cls-5" points="57.02 61.22 20.97 38.01 20.97 18.22 21.29 18.4 21.29 37.85 57.02 60.89 57.02 61.22"/><polygon class="cls-6" points="57.02 61.22 20.97 38.01 20.97 18.22 57.02 41.46 57.02 61.22"/><polygon class="cls-7" points="44.7 33.51 34.65 46.47 31.12 44.19 41.41 31.3 44.7 33.51"/><polygon class="cls-7" points="39.34 30.07 29.15 42.92 21.29 37.77 30.89 24.6 39.34 30.07"/><polygon class="cls-7" points="48.39 19.03 41.78 27.93 32.52 21.98 38.8 13.48 48.39 19.03"/><polygon class="cls-7" points="53.02 21.69 46.74 31.13 43.44 29 49.8 19.83 53.02 21.69"/><path class="cls-8" d="M37.3,56.47s-.09.88-.1,1.27A1.81,1.81,0,0,0,39,59.4c1.44.12,3.47-1.3,3.47-1.3l-.6-2.19Z"/><path class="cls-8" d="M45,44.76c.18.12.47,0,.58.11a1.57,1.57,0,0,1-.17,2.19l-.25,2,1.36,1.39h3.83l1.2-.49.19-1.12a8.57,8.57,0,0,1-1-4.36c0-.81-1.21-1.7-1.21-1.7H45.18A18.34,18.34,0,0,1,45,44.76Z"/><path class="cls-9" d="M42.86,47.31c.46.13-.77,3.53-.77,3.53s-.34,2.63-.52,6.32c-1.38,1.24-4.14.14-4.64-.19A47.81,47.81,0,0,0,38,51.7S37.41,45.92,42.86,47.31Z"/><path class="cls-10" d="M54.9,56.57a24.55,24.55,0,0,0-1.06,6.8l-5.6,2.36-4.58-.55-1.72-1.67a12.09,12.09,0,0,0,.27-3.3c-.27-3-1.69-3.82-2-7.92a5.38,5.38,0,0,1,2.64-5l.51-.1.79,1,1.27-1.13s.12,1.83,2.8,2.27,3.53-.52,3.53-.52l1.51,1.42.85-.55,1.69,2.09S55.21,55.66,54.9,56.57Z"/><path class="cls-11" d="M44.3,96.33a16.26,16.26,0,0,1-.43,3.28c-.19.38-1.14.6-1.94.27S40.75,97.11,40.58,96s.93-1.55.93-1.55Z"/><path class="cls-11" d="M53.43,98.35c.68.42,3.72.05,4.38.34a1.38,1.38,0,0,1-.44,2.57,36,36,0,0,0-4.06,1.59c-2.12.43-2.6-.1-2.63-.54a20.46,20.46,0,0,1,.08-3.14S50.68,98.25,53.43,98.35Z"/><path class="cls-12" d="M54.56,68.23c.81,6.63,0,12.65,0,16.22,0,6.8.5,14.16.5,14.16s-.28,1.16-2,1.35c-2.7.27-2.63-1.07-2.63-1.07s-.84-8.36-.33-13.36c-1.32-5.81-2.52-13.9-2.52-13.9C48,71.65,54.56,67.72,54.56,68.23Z"/><path class="cls-12" d="M41.94,63.51s.32.81,5.25,1.13a12.19,12.19,0,0,0,6.65-1.27,19.47,19.47,0,0,1,.65,5.93c-.31,2.26-4.12,2.91-6.8,3.36-.76,6.08-1.09,9.35-1.4,11.61-.19,1.41-.46,12-.46,12s-.69.88-2.86.88a2.26,2.26,0,0,1-2.45-1.74,92.19,92.19,0,0,0,.65-13.63C40.24,67.45,41.94,63.51,41.94,63.51Z"/><path class="cls-11" d="M59.07,40.12a5.4,5.4,0,0,1-.39-2.35c.09-1.31-.24-2.31.39-2.29.44,0,.45,2.07,1.39,1.41V34.16A3.57,3.57,0,0,1,62,36.69c.05,1.55-.77,2.29-1,3.14S59.3,40.31,59.07,40.12Z"/><path class="cls-8" d="M59.21,49.06s2.65-1.06,3.22-1.23c-1.41-2.09-2.5-5.71-3.36-7.71.3-.65,1.57-1.1,1.91-.2,1.33,2.38,4.87,4.43,5.32,7.34,0,.5.17,3.34-.93,3.72s-4.76,1.65-4.76,1.65Z"/><path class="cls-9" d="M54.12,49.68a17.38,17.38,0,0,1,.78,6.89s5-3.07,8.59-4c.94-1.61-.81-4.37-1.24-4.78-2,.43-3.72.84-3.72.84A10.9,10.9,0,0,0,54.12,49.68Z"/><path class="cls-8" d="M44.2,40.68A5.93,5.93,0,0,0,45,44.76c.71-.47,1.22-2.43,1.22-2.43l1.57-1.15c.09-.43-3.41-3.68-3.63-3.37C43.57,39.69,44,40.44,44.2,40.68Z"/><path class="cls-13" d="M51.49,43.4A7,7,0,0,0,52.56,39c-.37-2.76-4.61-3.86-5.5-3.62a1.55,1.55,0,0,0-1.16.88A2.16,2.16,0,0,0,44,37.72c-.42,1.45.5,2.3.65,4,.09,1,.33-.93.68-.3.46.81-.07,1.71,1,3.19a3.31,3.31,0,0,0,5.18-1.19Z"/><path class="cls-14" d="M46.54,36.22a3.88,3.88,0,0,1,3.4,1.23A6.21,6.21,0,0,0,46.54,36.22Z"/><path class="cls-12" d="M53.84,63.37c-.37-.83-3.67-1.8-3.74-6A13,13,0,0,1,45.61,57c.65,2.67-2.6,6.14-3.67,6.48C42.47,68.08,53.74,67.86,53.84,63.37Z"/><path class="cls-12" d="M54.06,49.52c.59,3-4,7.87-4,7.87l-1,1.52-1.3-1.5s5.78-5.66,3.94-8.6A9.81,9.81,0,0,0,54.06,49.52Z"/><path class="cls-12" d="M43.37,47.21C41.2,49.72,45.61,57,45.61,57l.9,1.88,1.31-1.5S43,50.71,45.43,47.06A2.81,2.81,0,0,1,43.37,47.21Z"/><polygon class="cls-15" points="44.16 71.99 51.58 71.8 44.7 72.89 44.16 71.99"/><path class="cls-11" d="M4.41,70.41s-.91,2.33-.55,2.87.77.82,1.85.69,1.47-1.23,3-1.9c.58-.26-.3-2.2-.3-2.2Z"/><path class="cls-8" d="M15.92,19.73c0,.9-.63,1.42-.86,2.09,0,0-1.13.05-1.38.1a2.07,2.07,0,0,0-.66.44l.4,3s2.15-.29,3.09-.47a3,3,0,0,0,2.19-1.94,13.07,13.07,0,0,0,0-2.82S16.16,19.47,15.92,19.73Z"/><path class="cls-9" d="M3.65,24.44c.42-3.92,4.81-2.37,4.81-2.37a26.79,26.79,0,0,1,5.59-.32,4.37,4.37,0,0,1,.7,4.12c-5.19.86-6.23.94-6.23.94S3.27,28,3.65,24.44Z"/><path class="cls-10" d="M5.89,22.36C1.29,25.73,4.12,32,4.12,32a8.87,8.87,0,0,0,.93,2.86c.1.37.39,3.38.39,3.38l1.88,4.1.79,1.84h3.4l1.9-4.1.64-7.23a19.11,19.11,0,0,0-1.58-5.25,10.9,10.9,0,0,0-2.17-2.76c-.09-.08,0,.74,0,.74s-.36.73-2.15.71a3.91,3.91,0,0,1-2.48-.66C5,24.55,6,24.89,5.89,22.36Z"/><path class="cls-12" d="M12.72,28.18s-3.19-4.89-5.4-4.8c-1.89.07-3.42,2.22-3.82,3.43a9.24,9.24,0,0,0,.13,3.78,7.42,7.42,0,0,1-.37-3.46c.14-1.63.82-4.38,3.94-4.77,2.52-.31,4.52,3.53,5.17,5C12.53,27.73,12.72,28.18,12.72,28.18Z"/><path class="cls-16" d="M5.72,25.66a3.91,3.91,0,0,0,2.48.66c1.79,0,2.15-.71,2.15-.71l-.07-1,.12-2.92H6.07l-.18.7C6,24.89,5,24.55,5.72,25.66Z"/><path class="cls-15" d="M4.64,44.64c-.26,5.66.67,8.86.43,12.94-2,6.26-.43,8.68-.92,12.77,0,0,.28,1.16,2,1.34,2.7.28,3-1.44,3-1.44a106.66,106.66,0,0,0-.07-13,22.87,22.87,0,0,0,.34-9.73C9.05,47.56,4.64,44.13,4.64,44.64Z"/><path class="cls-11" d="M11.78,73.49c.9,2,3,2.22,4.88,3.4a1,1,0,0,1,.07,1.46,4,4,0,0,1-3.41.8,27.27,27.27,0,0,1-3.21-1.3c-.44-.1-2.39-.23-2.68-1.41a14,14,0,0,1,.37-3.7A24.08,24.08,0,0,1,11.78,73.49Z"/><path class="cls-12" d="M13.39,41.61S13.08,43,9.79,43C6.22,43,5,38,5,38a18.53,18.53,0,0,0-1.4,6,9.85,9.85,0,0,0,3,7.28c.77,6.07,1,9,1.32,11.28.2,1.41-.91,12-.91,12s.72.87,2.89.87a3.43,3.43,0,0,0,3-1.38c-.51-4.25.16-10.21.37-13.46C14.18,46.21,13.39,41.61,13.39,41.61Z"/><path class="cls-12" d="M10.26,43c2.88-1.39,3.54-6.24,2.29-10.43a11.76,11.76,0,0,0-.18-5.22,13.51,13.51,0,0,1,2,5.8c.14,3.5-.84,6.73-.88,9.81,0,.73-.48.8-.48.8l-3.21.81S9.39,44.25,10.26,43Z"/><path class="cls-8" d="M12.52,17.47a10.83,10.83,0,0,1,.63,2c-.05.3-.36.7-.37,1s.92,1.76.9,2-.81.3-.81.3a9.22,9.22,0,0,1-.16,1.81.94.94,0,0,1-.75.4c-3-.23-3.41-.73-3.75-1.07a2.5,2.5,0,0,1-.48-1.13,1.36,1.36,0,0,1-1.32-.72c-.08-.15-.25-.63-.25-.63l-.44-1.75,1.76-3L10,16Z"/><path class="cls-17" d="M6.17,16.16c2.52-2.48,6.62-.3,6.37,1.2-.22,1.31-2.16.94-2.52,1.67-.67,1.37-1.42.95-1.7,2.45-.5-.55-.65-1.3-1.58-.68s0,1.1-.09,1.68c-.57.45-.84-.15-1.08-.8C5.11,20.42,4.25,18,6.17,16.16Z"/><path class="cls-12" d="M10.26,43a10,10,0,0,1-3.94-5.63,11.45,11.45,0,0,0-1.46-2.77,11,11,0,0,1-.25,4.48l-.24,2.68,3.22,3.4S10.52,44.71,10.26,43Z"/><path class="cls-11" d="M23.45,43.62c.35-.59,1-.67,1.29-1,.48-.58.38-1.44,1-1.23s-.38,1.78.07,2.13l1.89,1.08c-1.5,1.52-4.62,1-4.62,1l.05-1.21S23,44.37,23.45,43.62Z"/><path class="cls-8" d="M14.07,36.65l2.56,2.72a17.76,17.76,0,0,1,1.94,1.05c1,.58,2.14,2,4.88,3.2a1.18,1.18,0,0,1-.38,1.89c-2.92-.89-5.92-1.67-8.42-3.43a23.75,23.75,0,0,1-3.28-3.49Z"/><path class="cls-9" d="M6.57,29.57c3.48-1.83,4.64,2.67,4.64,2.67A21.17,21.17,0,0,1,15,37.36a4.73,4.73,0,0,1-3.53,2.75c-3.6-3.83-4.56-5-4.56-5S3.42,31.22,6.57,29.57Z"/><path class="cls-12" d="M13.07,31.68s-2.49-3.55-5.55-3.19c-1.88.22-2.73.87-3.09,2.09-.6,2.06,1,4.93,1,4.93l-.58-.89a9.84,9.84,0,0,1-1.11-4.07c0-1.63.33-3.32,3.45-3.71S13,30,13,30Z"/><path class="cls-11" d="M15.94,19.37c.1-1.38,2.2-1.78,2.2-1.78s1.09-.23,1.26.63.21,1.79-.24,1.92c-.64.2-.57-1.18-.57-1.18l0,1.86c0,.05-.53.07-.56.11C17.77,21.27,15.68,20.88,15.94,19.37Z"/></g></g></svg>